<?xml version="1.0" encoding="UTF-8" standalone="no"?>
<!-- Created with Inkscape (http://www.inkscape.org/) -->

<svg
   width="1000"
   height="80"
   id="svg2701"
   sodipodi:version="0.32"
   inkscape:version="1.1.1 (3bf5ae0d25, 2021-09-20)"
   version="1.0"
   style="enable-background:new"
   sodipodi:docname="effectful rocketnia 6 resuscitated.svg"
   inkscape:output_extension="org.inkscape.output.svg.inkscape"
   xmlns:inkscape="http://www.inkscape.org/namespaces/inkscape"
   xmlns:sodipodi="http://sodipodi.sourceforge.net/DTD/sodipodi-0.dtd"
   xmlns:xlink="http://www.w3.org/1999/xlink"
   xmlns="http://www.w3.org/2000/svg"
   xmlns:svg="http://www.w3.org/2000/svg"
   xmlns:rdf="http://www.w3.org/1999/02/22-rdf-syntax-ns#"
   xmlns:cc="http://creativecommons.org/ns#"
   xmlns:dc="http://purl.org/dc/elements/1.1/">
  <defs
     id="defs2703">
    <inkscape:perspective
       sodipodi:type="inkscape:persp3d"
       inkscape:vp_x="0 : 526.18109 : 1"
       inkscape:vp_y="0 : 1000 : 0"
       inkscape:vp_z="744.09448 : 526.18109 : 1"
       inkscape:persp3d-origin="372.04724 : 350.78739 : 1"
       id="perspective2709" />
    <filter
       id="filter6873"
       inkscape:label="Shadow blur"
       x="-0.0024"
       y="-0.004"
       width="1.0048"
       height="1.008">
      <feGaussianBlur
         stdDeviation="0.5"
         id="feGaussianBlur6875" />
    </filter>
    <filter
       id="filter6881"
       inkscape:label="Rocket emboss"
       x="-0.0045880876"
       y="-0.020183968"
       width="1.0091762"
       height="1.0403679">
      <feGaussianBlur
         stdDeviation="0.5"
         id="feGaussianBlur6883"
         in="SourceGraphic" />
      <feDiffuseLighting
         id="feDiffuseLighting6885"
         result="result0">
        <feDistantLight
           id="feDistantLight6889"
           azimuth="233"
           elevation="40" />
      </feDiffuseLighting>
      <feComposite
         id="feComposite6891"
         in2="SourceGraphic"
         operator="arithmetic"
         k1="1.3599999999999994"
         in="result0" />
    </filter>
    <clipPath
       clipPathUnits="userSpaceOnUse"
       id="clipPath7005">
      <path
         style="opacity:0.8;fill:#c8b7b7;fill-opacity:1;stroke:none;stroke-opacity:1;display:inline"
         d="M 273.92099,5.3839998 L 444.46199,5.3839998 L 444.46199,75.944997 L 273.92099,75.944997 L 273.92099,5.3839998 z"
         id="path7007" />
    </clipPath>
  </defs>
  <sodipodi:namedview
     id="base"
     pagecolor="#ffffff"
     bordercolor="#666666"
     borderopacity="1.0"
     gridtolerance="10000"
     guidetolerance="10"
     objecttolerance="10"
     inkscape:pageopacity="0.0"
     inkscape:pageshadow="2"
     inkscape:zoom="1"
     inkscape:cx="383"
     inkscape:cy="14"
     inkscape:document-units="px"
     inkscape:current-layer="layer2"
     showgrid="true"
     inkscape:snap-bbox="true"
     inkscape:bbox-nodes="true"
     inkscape:bbox-paths="true"
     inkscape:snap-intersection-line-segments="true"
     inkscape:snap-center="true"
     width="1000px"
     showguides="true"
     inkscape:guide-bbox="true"
     inkscape:window-width="1920"
     inkscape:window-height="974"
     inkscape:window-x="-11"
     inkscape:window-y="-11"
     inkscape:pagecheckerboard="0"
     inkscape:window-maximized="1">
    <inkscape:grid
       type="xygrid"
       id="grid2739"
       visible="true"
       enabled="false"
       empspacing="5"
       spacingx="2"
       spacingy="2"
       dotted="false"
       originy="80"
       originx="0" />
    <sodipodi:guide
       orientation="0,1"
       position="0,80"
       id="guide2741" />
    <sodipodi:guide
       orientation="1,0"
       position="0,1000"
       id="guide2743" />
  </sodipodi:namedview>
  <metadata
     id="metadata2706">
    <rdf:RDF>
      <cc:Work
         rdf:about="">
        <dc:format>image/svg+xml</dc:format>
        <dc:type
           rdf:resource="http://purl.org/dc/dcmitype/StillImage" />
      </cc:Work>
    </rdf:RDF>
  </metadata>
  <g
     inkscape:groupmode="layer"
     id="layer7"
     inkscape:label="Colored background"
     style="display:inline"
     sodipodi:insensitive="true">
    <rect
       style="opacity:1;fill:#ac9393;fill-opacity:1;stroke:none;stroke-opacity:1"
       id="rect6863"
       width="1000"
       height="80"
       x="0"
       y="0" />
  </g>
  <g
     inkscape:label="Original text"
     inkscape:groupmode="layer"
     id="layer1"
     style="display:none"
     sodipodi:insensitive="true">
    <text
       xml:space="preserve"
       style="font-style:normal;font-weight:normal;font-size:80px;line-height:0%;fill:#000000;fill-opacity:1;stroke:none;stroke-width:1px;stroke-linecap:butt;stroke-linejoin:miter;stroke-opacity:1"
       x="5.5078125"
       y="68.945312"
       id="text2711"><tspan
         style="font-weight:bold;font-family:'Maiandra GD';-inkscape-font-specification:'Maiandra GD Bold'"
         id="tspan2719"
         dx="0 0 0 0 -0.5 1.5">Rocket</tspan><tspan
         style="font-family:MPlantin;-inkscape-font-specification:MPlantin"
         id="tspan2721"
         dx="9">N</tspan><tspan
         style="font-family:MPlantin-Italic;-inkscape-font-specification:MPlantin-Italic"
         id="tspan2723">I</tspan><tspan
         id="tspan2727"
         style="font-family:MPlantin;-inkscape-font-specification:MPlantin">A</tspan><tspan
         id="tspan2725"
         style="font-family:'Maiandra GD';-inkscape-font-specification:'Maiandra GD Bold'"
         dx="3.5 -4.5 0 -2">.com</tspan></text>
  </g>
  <g
     inkscape:groupmode="layer"
     id="layer4"
     inkscape:label="Path for &quot;.com&quot;"
     style="display:inline"
     sodipodi:insensitive="true">
    <path
       id="path6785"
       style="font-size:80px;font-style:normal;font-weight:normal;fill:#ffffff;fill-opacity:1;stroke:none;stroke-width:1px;stroke-linecap:butt;stroke-linejoin:miter;stroke-opacity:1;display:inline"
       d="M 456.58594,64.296875 C 456.58592,65.72917 456.03254,66.940106 454.92578,67.929688 C 453.819,68.919271 452.4453,69.414062 450.80469,69.414062 C 449.34634,69.414062 448.14192,68.964844 447.19141,68.066406 C 446.24088,67.167971 445.76562,65.989586 445.76562,64.53125 C 445.76562,62.968756 446.29296,61.699226 447.34766,60.722656 C 448.40234,59.746103 449.77603,59.257822 451.46875,59.257812 C 453.05728,59.257822 454.30728,59.70704 455.21875,60.605469 C 456.13019,61.503914 456.58592,62.734381 456.58594,64.296875 L 456.58594,64.296875 z M 488.17969,37.421875 C 487.16403,36.796907 486.17445,36.347689 485.21094,36.074219 C 484.24737,35.800814 483.17966,35.664096 482.00781,35.664062 C 478.04946,35.664096 474.75519,37.083365 472.125,39.921875 C 469.49478,42.760443 468.17968,46.354189 468.17969,50.703125 C 468.17968,54.635431 469.34504,57.753917 471.67578,60.058594 C 474.00649,62.363288 477.16404,63.51563 481.14844,63.515625 C 482.86716,63.51563 484.42966,63.281256 485.83594,62.8125 C 487.24216,62.343757 488.55726,61.614591 489.78125,60.625 C 490.24997,61.276049 490.60804,61.901049 490.85547,62.5 C 491.10283,63.098964 491.22653,63.67188 491.22656,64.21875 C 491.22653,65.859378 490.27601,67.16146 488.375,68.125 C 486.47393,69.088542 483.89581,69.570312 480.64062,69.570312 C 474.93748,69.570312 470.30207,67.936199 466.73438,64.667969 C 463.16666,61.399747 461.38281,57.148449 461.38281,51.914062 C 461.38281,45.559919 463.54427,40.221383 467.86719,35.898438 C 472.19009,31.575558 477.43748,29.414102 483.60938,29.414062 C 485.87497,29.414102 487.56117,29.739623 488.66797,30.390625 C 489.77471,31.041705 490.32809,32.031287 490.32812,33.359375 C 490.32809,34.036493 490.15882,34.694045 489.82031,35.332031 C 489.48174,35.970085 488.93487,36.666699 488.17969,37.421875 L 488.17969,37.421875 z M 516.22656,64.296875 C 520.44528,64.29688 523.90231,62.884121 526.59766,60.058594 C 529.29293,57.233085 530.64059,53.606786 530.64062,49.179688 C 530.64059,44.856795 529.31897,41.334663 526.67578,38.613281 C 524.03252,35.89196 520.60153,34.531284 516.38281,34.53125 C 512.08592,34.531284 508.61587,35.944043 505.97266,38.769531 C 503.32942,41.595079 502.0078,45.338565 502.00781,50 C 502.0078,54.14064 503.34895,57.558605 506.03125,60.253906 C 508.71353,62.949225 512.11196,64.29688 516.22656,64.296875 L 516.22656,64.296875 z M 515.75781,69.921875 C 509.71613,69.921874 504.79426,68.059897 500.99219,64.335938 C 497.1901,60.611987 495.28906,55.833346 495.28906,50 C 495.28906,43.802108 497.32031,38.769561 501.38281,34.902344 C 505.4453,31.035194 510.71873,29.101602 517.20312,29.101562 C 523.06247,29.101602 527.88668,30.937538 531.67578,34.609375 C 535.4648,38.281281 537.35933,42.929714 537.35938,48.554688 C 537.35933,50.820331 537.00126,53.059912 536.28516,55.273438 C 535.56897,57.486991 534.59892,59.37501 533.375,60.9375 C 531.05725,63.932297 528.43356,66.178388 525.50391,67.675781 C 522.57419,69.173177 519.32549,69.921874 515.75781,69.921875 L 515.75781,69.921875 z M 542.85938,30.234375 C 543.45833,30.026081 544.03124,29.876341 544.57812,29.785156 C 545.12499,29.69405 545.69791,29.648477 546.29688,29.648438 C 547.70312,29.648477 548.80337,30.01957 549.59766,30.761719 C 550.39191,31.503944 550.84113,32.578161 550.94531,33.984375 C 553.00259,32.578161 555.01431,31.536496 556.98047,30.859375 C 558.94659,30.18233 560.90623,29.843789 562.85938,29.84375 C 564.76039,29.843789 566.55075,30.214882 568.23047,30.957031 C 569.91012,31.699256 571.47913,32.812536 572.9375,34.296875 C 574.99475,32.812536 577.18876,31.653683 579.51953,30.820312 C 581.85022,29.987018 584.08329,29.570352 586.21875,29.570312 C 590.88016,29.570352 594.45437,30.924517 596.94141,33.632812 C 599.42832,36.341178 600.67181,40.221383 600.67188,45.273438 C 600.67181,46.002627 600.63275,47.447938 600.55469,49.609375 C 600.4765,51.770851 600.43744,53.580745 600.4375,55.039062 C 600.43744,58.398448 600.59369,60.983081 600.90625,62.792969 C 601.21869,64.602869 601.7265,66.067711 602.42969,67.1875 C 601.12754,67.812501 600.0403,68.261719 599.16797,68.535156 C 598.29551,68.808594 597.52077,68.945312 596.84375,68.945312 C 595.61973,68.945312 594.77989,68.639323 594.32422,68.027344 C 593.86843,67.415366 593.64057,66.223961 593.64062,64.453125 C 593.64057,62.838548 593.73823,60.247405 593.93359,56.679688 C 594.12885,53.111995 594.22651,50.377623 594.22656,48.476562 C 594.22651,43.789088 593.51687,40.403674 592.09766,38.320312 C 590.67833,36.237012 588.39318,35.195346 585.24219,35.195312 C 583.52339,35.195346 581.86324,35.449252 580.26172,35.957031 C 578.66012,36.464876 576.93486,37.304719 575.08594,38.476562 C 575.34632,40.065133 575.53512,41.725288 575.65234,43.457031 C 575.76949,45.188826 575.82809,47.604188 575.82812,50.703125 L 575.82812,54.804688 C 575.82809,58.398448 575.9583,61.074227 576.21875,62.832031 C 576.47913,64.589848 576.93486,66.067711 577.58594,67.265625 C 576.44007,67.864584 575.42444,68.294271 574.53906,68.554688 C 573.65361,68.815104 572.79424,68.945312 571.96094,68.945312 C 570.78903,68.945312 569.97523,68.619792 569.51953,67.96875 C 569.06377,67.31771 568.83591,66.119794 568.83594,64.375 C 568.83591,63.437506 568.90752,61.321622 569.05078,58.027344 C 569.19398,54.733087 569.26559,51.91408 569.26562,49.570312 C 569.26559,44.049504 568.64711,40.299508 567.41016,38.320312 C 566.17315,36.341178 564.04425,35.351596 561.02344,35.351562 C 559.43487,35.351596 557.82029,35.657585 556.17969,36.269531 C 554.53905,36.881542 552.84634,37.79951 551.10156,39.023438 C 551.04947,41.184924 550.97785,43.951848 550.88672,47.324219 C 550.79556,50.696633 550.74999,52.786474 550.75,53.59375 C 550.74999,57.057304 550.90624,59.85027 551.21875,61.972656 C 551.53124,64.095057 552.02603,65.859378 552.70312,67.265625 C 551.60936,67.838543 550.60676,68.261719 549.69531,68.535156 C 548.78384,68.808594 547.88541,68.945312 547,68.945312 C 545.80208,68.945312 544.98176,68.606771 544.53906,67.929688 C 544.09635,67.252606 543.87499,65.833336 543.875,63.671875 C 543.87499,63.046881 544.02473,60.462248 544.32422,55.917969 C 544.62369,51.373715 544.77343,47.135438 544.77344,43.203125 C 544.77343,40.104196 544.61718,37.513052 544.30469,35.429688 C 543.99218,33.34639 543.51041,31.614621 542.85938,30.234375 L 542.85938,30.234375 z" />
  </g>
  <g
     inkscape:groupmode="layer"
     id="layer2"
     inkscape:label="Path for &quot;Rocket&quot;"
     style="display:inline"
     sodipodi:insensitive="true">
    <path
       sodipodi:type="inkscape:offset"
       inkscape:radius="3"
       inkscape:original="M 162.96875 10.546875 C 161.51041 10.546933 160.01301 10.735735 158.47656 11.113281 C 156.9401 11.490943 155.32552 12.070369 153.63281 12.851562 C 154.41406 14.335992 154.96744 16.549532 155.29297 19.492188 C 155.61848 22.434942 155.78124 26.966188 155.78125 33.085938 C 155.78124 38.58076 155.63802 44.570337 155.35156 51.054688 C 155.0651 57.539074 154.92187 61.28907 154.92188 62.304688 C 154.92187 64.830732 155.33203 66.569013 156.15234 67.519531 C 156.97265 68.470053 158.45051 68.945312 160.58594 68.945312 C 162.0703 68.945312 163.56118 68.76302 165.05859 68.398438 C 166.55597 68.033855 168.11196 67.47396 169.72656 66.71875 C 168.99738 65.312504 168.46352 63.372401 168.125 60.898438 C 167.78644 58.424489 167.61717 55.208347 167.61719 51.25 C 170.61196 54.166681 173.86716 57.539074 177.38281 61.367188 C 180.89841 65.195316 183.05986 67.421877 183.86719 68.046875 C 184.62236 68.671875 185.40361 69.153645 186.21094 69.492188 C 187.01819 69.830727 187.8385 69.999999 188.67188 70 C 190.44267 69.999999 191.92053 69.329427 193.10547 67.988281 C 194.29032 66.647138 195.10412 64.726568 195.54688 62.226562 C 193.51557 61.992194 190.63147 60.052092 186.89453 56.40625 C 183.15752 52.760433 179.98695 50.117207 177.38281 48.476562 C 183.60674 43.867213 187.56507 40.709664 189.25781 39.003906 C 190.95048 37.298209 191.79683 35.859408 191.79688 34.6875 C 191.79683 33.307327 191.0872 32.141964 189.66797 31.191406 C 188.24866 30.240924 185.93745 29.38806 182.73438 28.632812 C 182.29163 30.299519 180.89841 32.539099 178.55469 35.351562 C 176.21091 38.164093 172.59112 41.901069 167.69531 46.5625 C 167.6953 38.854197 167.94269 30.598997 168.4375 21.796875 C 168.59373 19.296925 168.67186 17.734426 168.67188 17.109375 C 168.67186 14.687554 168.24217 12.988337 167.38281 12.011719 C 166.52342 11.035214 165.05207 10.546933 162.96875 10.546875 z M 34.882812 11.992188 C 33.476535 11.992244 30.54685 12.122454 26.09375 12.382812 C 21.640609 12.643285 17.877592 12.773493 14.804688 12.773438 C 13.919261 12.773494 13.09244 12.766983 12.324219 12.753906 C 11.555984 12.740942 10.781245 12.734431 10 12.734375 C 10.833328 14.479221 11.425775 17.063854 11.777344 20.488281 C 12.1289 23.912805 12.30468 28.997436 12.304688 35.742188 C 12.30468 40.377632 12.14843 45.520857 11.835938 51.171875 C 11.52343 56.822929 11.367181 60.156259 11.367188 61.171875 C 11.367181 64.114588 11.874994 66.158856 12.890625 67.304688 C 13.906242 68.45052 15.716136 69.023437 18.320312 69.023438 C 19.882799 69.023437 21.50389 68.815104 23.183594 68.398438 C 24.863262 67.981772 26.653625 67.343752 28.554688 66.484375 C 27.825499 64.895837 27.278624 62.747402 26.914062 60.039062 C 26.549458 57.330741 26.328104 53.841161 26.25 49.570312 C 26.848937 49.492208 27.395811 49.433613 27.890625 49.394531 C 28.385394 49.355488 28.815081 49.335957 29.179688 49.335938 C 30.690079 49.335957 32.13539 49.811217 33.515625 50.761719 C 34.895804 51.712257 36.679656 53.554704 38.867188 56.289062 C 39.387987 56.940117 40.143195 57.877615 41.132812 59.101562 C 46.835897 66.1849 51.067663 69.726562 53.828125 69.726562 C 55.963491 69.726562 57.805937 68.828125 59.355469 67.03125 C 60.904893 65.234379 62.070256 62.643235 62.851562 59.257812 C 61.236923 58.815114 59.622343 58.027355 58.007812 56.894531 C 56.393179 55.761732 54.309847 53.880223 51.757812 51.25 C 51.575475 51.067726 51.328079 50.820332 51.015625 50.507812 C 48.072874 47.382834 45.14319 45.364607 42.226562 44.453125 C 46.262981 42.942734 49.309852 40.748726 51.367188 37.871094 C 53.424431 34.993524 54.453076 31.510454 54.453125 27.421875 C 54.453076 22.578171 52.727817 18.795623 49.277344 16.074219 C 45.826783 13.35292 41.02861 11.992243 34.882812 11.992188 z M 255.375 17.8125 C 254.0729 17.812551 252.72525 17.994843 251.33203 18.359375 C 249.93879 18.724009 248.43489 19.296925 246.82031 20.078125 C 247.39322 21.197964 247.8164 22.493536 248.08984 23.964844 C 248.36327 25.436241 248.49999 27.096396 248.5 28.945312 C 248.49999 29.179728 248.48697 29.557331 248.46094 30.078125 C 248.43489 30.598997 248.42187 30.989621 248.42188 31.25 L 248.14844 31.289062 C 246.74218 31.367225 245.73958 31.406288 245.14062 31.40625 C 244.51562 31.406288 243.9427 31.386756 243.42188 31.347656 C 242.90103 31.308631 242.43229 31.263058 242.01562 31.210938 C 241.52083 32.25264 241.15625 33.177119 240.92188 33.984375 C 240.68749 34.791701 240.57031 35.507846 240.57031 36.132812 C 240.57031 37.252637 240.88281 38.053416 241.50781 38.535156 C 242.13281 39.016957 243.1875 39.257842 244.67188 39.257812 C 245.14061 39.257842 245.64192 39.238311 246.17578 39.199219 C 246.70963 39.160186 247.28906 39.101591 247.91406 39.023438 C 247.86197 41.341172 247.6927 44.433618 247.40625 48.300781 C 247.11978 52.167986 246.97656 54.856785 246.97656 56.367188 C 246.97656 60.742196 247.97265 63.997402 249.96484 66.132812 C 251.95702 68.268231 254.98436 69.335937 259.04688 69.335938 C 262.19788 69.335937 264.66534 68.802083 266.44922 67.734375 C 268.23305 66.666669 269.12497 65.208337 269.125 63.359375 C 269.12497 62.604173 268.98825 61.868497 268.71484 61.152344 C 268.44138 60.436206 267.99216 59.674487 267.36719 58.867188 C 266.82029 59.309905 266.27992 59.635426 265.74609 59.84375 C 265.21221 60.052092 264.65883 60.156259 264.08594 60.15625 C 262.47133 60.156259 261.26691 59.427093 260.47266 57.96875 C 259.67837 56.510429 259.28123 54.270848 259.28125 51.25 C 259.28123 49.583353 259.33331 47.708355 259.4375 45.625 C 259.54165 43.541692 259.71092 41.237006 259.94531 38.710938 C 260.98696 38.684925 262.04816 38.639353 263.12891 38.574219 C 264.20961 38.509145 264.77603 38.476593 264.82812 38.476562 C 265.92185 38.476593 266.80727 38.522166 267.48438 38.613281 C 268.16143 38.704457 268.78643 38.867218 269.35938 39.101562 C 270.11454 38.007843 270.66794 36.992218 271.01953 36.054688 C 271.37106 35.117221 271.54683 34.218785 271.54688 33.359375 C 271.54683 32.265662 271.26039 31.484412 270.6875 31.015625 C 270.11455 30.546913 269.16403 30.312539 267.83594 30.3125 C 267.36716 30.312539 266.25388 30.377643 264.49609 30.507812 C 262.73826 30.638059 261.37758 30.729205 260.41406 30.78125 C 260.46613 30.104206 260.54425 29.179727 260.64844 28.007812 C 260.85675 25.40369 260.96092 23.854212 260.96094 23.359375 C 260.96092 21.432339 260.5117 20.026091 259.61328 19.140625 C 258.71483 18.255259 257.30207 17.812551 255.375 17.8125 z M 30.78125 22.617188 C 33.671847 22.617234 35.904918 23.287806 37.480469 24.628906 C 39.055956 25.970095 39.843716 27.864624 39.84375 30.3125 C 39.843716 33.437536 38.736946 35.911491 36.523438 37.734375 C 34.309866 39.557321 31.276016 40.468778 27.421875 40.46875 L 26.054688 40.46875 C 26.054666 37.708365 26.093729 34.882846 26.171875 31.992188 C 26.249979 29.101602 26.380187 26.132855 26.5625 23.085938 C 27.343728 22.929733 28.092425 22.812546 28.808594 22.734375 C 29.524716 22.656296 30.182267 22.617234 30.78125 22.617188 z M 89.335938 28.164062 C 82.513002 28.164103 76.901028 30.18233 72.5 34.21875 C 68.098954 38.255239 65.898435 43.372422 65.898438 49.570312 C 65.898435 55.55991 67.949214 60.449227 72.050781 64.238281 C 76.152331 68.027345 81.458315 69.921874 87.96875 69.921875 C 91.718722 69.921874 95.084604 69.257812 98.066406 67.929688 C 101.04814 66.601564 103.68486 64.59636 105.97656 61.914062 C 107.5911 60.013031 108.83459 57.864594 109.70703 55.46875 C 110.57938 53.072933 111.01559 50.598977 111.01562 48.046875 C 111.01558 42.265652 108.98432 37.506542 104.92188 33.769531 C 100.85933 30.032591 95.664029 28.164103 89.335938 28.164062 z M 139.64844 28.476562 C 136.83591 28.476603 134.09503 28.925821 131.42578 29.824219 C 128.7565 30.722694 126.45832 31.979204 124.53125 33.59375 C 121.74478 35.937533 119.64192 38.600291 118.22266 41.582031 C 116.80338 44.563826 116.09375 47.812521 116.09375 51.328125 C 116.09375 56.875012 117.98828 61.347664 121.77734 64.746094 C 125.56639 68.144532 130.55988 69.843749 136.75781 69.84375 C 140.53383 69.843749 143.5156 69.192708 145.70312 67.890625 C 147.89059 66.588544 148.98434 64.830732 148.98438 62.617188 C 148.98434 61.653652 148.77601 60.683602 148.35938 59.707031 C 147.94267 58.730479 147.30465 57.708345 146.44531 56.640625 C 145.01299 57.578136 143.60674 58.261729 142.22656 58.691406 C 140.84633 59.121104 139.40102 59.335946 137.89062 59.335938 C 135.10415 59.335947 132.87107 58.463552 131.19141 56.71875 C 129.5117 54.973972 128.67186 52.643245 128.67188 49.726562 C 128.67185 46.67971 129.69399 44.108098 131.73828 42.011719 C 133.78253 39.915394 136.27602 38.867218 139.21875 38.867188 C 140.26039 38.867218 141.23695 38.990915 142.14844 39.238281 C 143.05987 39.485707 143.98434 39.869821 144.92188 40.390625 C 145.96351 39.244821 146.74477 38.144562 147.26562 37.089844 C 147.78642 36.035189 148.04684 34.973992 148.04688 33.90625 C 148.04684 32.161495 147.32419 30.820351 145.87891 29.882812 C 144.43356 28.945352 142.35674 28.476603 139.64844 28.476562 z M 219.46094 28.476562 C 213.08071 28.476603 207.91796 30.403684 203.97266 34.257812 C 200.02734 38.11201 198.05468 43.138047 198.05469 49.335938 C 198.05468 55.794283 200.0013 60.755217 203.89453 64.21875 C 207.78775 67.682293 213.35415 69.414062 220.59375 69.414062 C 224.91664 69.414062 228.28903 68.834636 230.71094 67.675781 C 233.13277 66.51693 234.34371 64.908858 234.34375 62.851562 C 234.34371 62.070319 234.13538 61.263029 233.71875 60.429688 C 233.30205 59.596363 232.66403 58.697927 231.80469 57.734375 C 230.58069 58.723969 229.12236 59.466155 227.42969 59.960938 C 225.73695 60.455737 223.80987 60.703133 221.64844 60.703125 C 217.89842 60.703133 215.02732 59.915374 213.03516 58.339844 C 211.04295 56.764335 210.04686 54.492202 210.04688 51.523438 L 210.04688 51.367188 C 211.84373 51.60158 213.66014 51.777361 215.49609 51.894531 C 217.33201 52.011736 219.16143 52.070329 220.98438 52.070312 C 226.94789 52.07033 231.10804 51.360695 233.46484 49.941406 C 235.82157 48.522156 236.99996 46.106794 237 42.695312 C 236.99996 38.502635 235.38538 35.084669 232.15625 32.441406 C 228.92705 29.798216 224.69528 28.476603 219.46094 28.476562 z M 218.75781 36.484375 C 220.63279 36.484407 222.1432 37.037792 223.28906 38.144531 C 224.43487 39.251332 225.00778 40.716175 225.00781 42.539062 C 225.00778 43.710964 224.61716 44.524764 223.83594 44.980469 C 223.05466 45.436221 221.54424 45.664086 219.30469 45.664062 C 218.39321 45.664086 217.22784 45.612004 215.80859 45.507812 C 214.3893 45.403669 212.65102 45.24742 210.59375 45.039062 C 210.98436 42.278672 211.88931 40.162789 213.30859 38.691406 C 214.72785 37.220084 216.54425 36.484407 218.75781 36.484375 z M 88.515625 38.554688 C 91.53643 38.554718 93.958303 39.498727 95.78125 41.386719 C 97.604132 43.274765 98.51559 45.768251 98.515625 48.867188 C 98.51559 51.888038 97.565071 54.388035 95.664062 56.367188 C 93.762991 58.346365 91.38018 59.335946 88.515625 59.335938 C 85.520811 59.335946 83.105449 58.411469 81.269531 56.5625 C 79.433578 54.713556 78.51561 52.278662 78.515625 49.257812 C 78.51561 46.080752 79.440089 43.50263 81.289062 41.523438 C 83.138002 39.5443 85.546853 38.554718 88.515625 38.554688 z "
       xlink:href="#path2865"
       style="font-size:80px;font-style:normal;font-weight:normal;fill:#ffffff;fill-opacity:1;stroke:none;stroke-width:1px;stroke-linecap:butt;stroke-linejoin:miter;stroke-opacity:1;display:inline;filter:url(#filter6873)"
       id="path2868"
       inkscape:href="#path2865"
       d="M 162.96875,7.5625 C 161.25692,7.5625681 159.50696,7.787019 157.75,8.21875 C 156.0192,8.644181 154.23154,9.2681976 152.375,10.125 C 151.62547,10.468162 151.05014,11.104604 150.78415,11.884865 C 150.51815,12.665126 150.58491,13.52046 150.96875,14.25 C 151.44351,15.152076 152.00933,17.10322 152.3125,19.84375 C 152.61389,22.568454 152.78124,27.03102 152.78125,33.09375 C 152.78124,38.533604 152.62867,44.488077 152.34375,50.9375 C 152.05667,57.435994 151.9375,61.060987 151.9375,62.3125 C 151.89416,61.024655 151.63799,59.733649 151.125,58.53125 C 150.56303,57.214285 149.77117,55.979967 148.78125,54.75 C 147.81056,53.537925 146.07542,53.266808 144.78125,54.125 C 143.53307,54.941984 142.36786,55.483945 141.3125,55.8125 C 140.21711,56.153521 139.08538,56.343757 137.875,56.34375 C 135.72031,56.343757 134.45649,55.780891 133.34375,54.625 C 132.25448,53.493534 131.68749,52.072939 131.6875,49.71875 C 131.68748,47.340291 132.37178,45.667317 133.90625,44.09375 C 135.44566,42.515128 136.97511,41.875024 139.21875,41.875 C 140.01544,41.875023 140.73873,41.983576 141.375,42.15625 C 142.08193,42.348162 142.76083,42.606748 143.46875,43 C 144.68627,43.684564 146.21514,43.43839 147.15625,42.40625 C 148.34732,41.09606 149.27063,39.78788 149.9375,38.4375 C 150.61645,37.062572 151.06245,35.520266 151.0625,33.90625 C 151.06244,31.310775 149.65413,28.741113 147.5,27.34375 C 145.34316,25.944814 142.71068,25.468796 139.65625,25.46875 C 136.52709,25.468796 133.44155,25.968185 130.46875,26.96875 C 127.48646,27.972582 124.83262,29.405469 122.59375,31.28125 C 122.5937,31.291667 122.5937,31.302083 122.59375,31.3125 C 119.51699,33.900458 117.11522,36.919071 115.5,40.3125 C 114.72152,41.948026 114.15187,43.668137 113.75,45.4375 C 113.17885,40.050443 110.95999,35.234005 106.96875,31.5625 C 102.33742,27.302359 96.268542,25.156295 89.34375,25.15625 C 81.926933,25.156295 75.438795,27.441704 70.46875,32 C 65.504134,36.553376 62.906248,42.657043 62.90625,49.5625 C 62.906249,52.002187 63.358306,54.277088 64,56.46875 C 63.877884,56.418885 63.752612,56.377128 63.625,56.34375 C 62.372061,56.000222 61.085508,55.396476 59.71875,54.4375 C 58.397399,53.510464 56.391085,51.717215 53.90625,49.15625 C 53.89591,49.145757 53.885493,49.13534 53.875,49.125 C 53.692997,48.94306 53.437329,48.687394 53.125,48.375 C 51.650284,46.808964 50.156127,45.532451 48.625,44.4375 C 50.650347,43.084315 52.447717,41.533946 53.8125,39.625 C 56.264712,36.194967 57.437445,32.017774 57.4375,27.4375 C 57.437444,21.889505 55.266978,16.985547 51.125,13.71875 C 46.986375,10.454806 41.457227,9.00006 34.875,9 C 33.305926,9.0000625 30.384483,9.1131715 25.90625,9.375 C 21.486092,9.6335438 17.790444,9.7813043 14.8125,9.78125 C 13.968371,9.7813034 13.153167,9.7632463 12.375,9.75 C 11.539377,9.7358988 10.747774,9.7500536 10,9.75 C 8.9711858,9.7480652 8.0131243,10.273406 7.4615988,11.1419 C 6.9100733,12.010395 6.8420048,13.100913 7.28125,14.03125 C 7.8586794,15.240288 8.480492,17.578605 8.8125,20.8125 C 9.1438778,24.040467 9.3124931,29.058529 9.3125,35.75 C 9.3124931,40.318033 9.1537377,45.425536 8.84375,51.03125 C 8.5306958,56.692199 8.3749922,59.864152 8.375,61.1875 C 8.3749933,64.459419 8.7530674,67.200593 10.625,69.3125 C 12.489931,71.41654 15.268325,72.03125 18.3125,72.03125 C 20.141652,72.031249 22.012402,71.782288 23.90625,71.3125 C 25.787448,70.845842 27.767449,70.143217 29.8125,69.21875 C 31.310548,68.525178 31.966874,66.751702 31.28125,65.25 C 30.74054,64.072064 30.213422,62.139147 29.875,59.625 C 29.633792,57.833275 29.547658,55.084576 29.4375,52.4375 C 30.232287,52.477422 30.948236,52.623573 31.8125,53.21875 C 32.705644,53.833864 34.43571,55.536877 36.53125,58.15625 C 37.039936,58.792161 37.780184,59.730643 38.78125,60.96875 C 41.706512,64.60198 44.296285,67.398066 46.65625,69.375 C 49.016215,71.351934 51.149273,72.71875 53.8125,72.71875 C 56.782032,72.71875 59.62594,71.318159 61.625,69 C 63.509508,66.814532 64.740219,63.921569 65.59375,60.5 C 66.736414,62.68302 68.156379,64.736732 70.03125,66.46875 C 74.711093,70.792049 80.875118,72.937499 87.96875,72.9375 C 92.077057,72.937499 95.877348,72.203633 99.28125,70.6875 C 102.69661,69.166231 105.70457,66.823023 108.25,63.84375 C 110.08413,61.684164 111.53687,59.230707 112.53125,56.5 C 112.87895,55.545069 113.0911,54.569753 113.3125,53.59375 C 113.81343,58.867805 115.93807,63.521775 119.78125,66.96875 C 124.17413,70.908771 130.00501,72.843749 136.75,72.84375 C 140.87912,72.843749 144.39107,72.120628 147.21875,70.4375 C 149.97676,68.795806 151.90387,65.946763 151.96875,62.78125 C 152.0016,65.400542 152.28527,67.657928 153.875,69.5 C 155.55291,71.444251 158.03149,71.9375 160.59375,71.9375 C 162.30267,71.9375 164.04448,71.735361 165.78125,71.3125 C 167.5135,70.890732 169.24307,70.259285 171,69.4375 C 171.73564,69.088098 172.29763,68.454662 172.55693,67.682649 C 172.81624,66.910635 172.75056,66.06638 172.375,65.34375 C 171.89136,64.411044 171.40412,62.768247 171.09375,60.5 C 171.04791,60.165033 171.07064,59.497812 171.03125,59.125 C 172.42292,60.58302 173.66147,61.778613 175.15625,63.40625 C 178.69583,67.260494 180.5515,69.291947 182.03125,70.4375 C 182.99545,71.235498 183.97082,71.82347 185.0625,72.28125 C 186.23084,72.771221 187.46665,72.999999 188.6875,73 C 191.20242,72.999999 193.67726,71.886174 195.34375,70 C 197.01263,68.110974 198.02119,65.630018 198.53125,62.75 C 198.54712,62.64645 198.55755,62.542141 198.5625,62.4375 C 199.5015,63.914229 200.58129,65.290026 201.90625,66.46875 C 206.48885,70.545587 212.87789,72.40625 220.59375,72.40625 C 225.17568,72.40625 228.93711,71.871808 232,70.40625 C 235.05944,68.942302 237.34369,66.070637 237.34375,62.84375 C 237.34368,61.529281 236.98384,60.249039 236.40625,59.09375 C 235.83081,57.942984 235.04811,56.855131 234.0625,55.75 C 232.99934,54.553412 231.18406,54.402138 229.9375,55.40625 C 229.05518,56.119597 227.96452,56.693063 226.59375,57.09375 C 225.25555,57.484915 223.61044,57.687507 221.65625,57.6875 C 218.31595,57.687507 216.16609,56.996362 214.90625,56 C 214.46123,55.648067 214.18358,55.212815 213.90625,54.78125 C 214.3782,54.819569 214.83657,54.875877 215.3125,54.90625 C 217.23339,55.028879 219.13418,55.062517 221,55.0625 C 227.2002,55.062518 231.71816,54.495174 235.03125,52.5 C 238.30133,50.530718 239.99995,46.787511 240,42.6875 C 239.99999,42.098891 239.87131,41.542183 239.8125,40.96875 C 241.33756,42.076339 242.94025,42.250034 244.6875,42.25 C 244.69783,42.250001 244.70842,42.250018 244.71875,42.25 C 244.63531,44.056645 244.58803,45.639656 244.40625,48.09375 C 244.11796,51.985503 243.96875,54.664612 243.96875,56.375 C 243.96875,61.21072 245.10092,65.283229 247.78125,68.15625 C 250.46632,71.034374 254.46666,72.34375 259.0625,72.34375 C 262.5474,72.343749 265.52303,71.776339 267.96875,70.3125 C 270.4024,68.855848 272.12495,66.201393 272.125,63.375 C 272.12496,62.268156 271.93726,61.157228 271.53125,60.09375 C 271.1222,59.022522 270.50899,58.011675 269.75,57.03125 C 269.25684,56.395438 268.52895,55.984364 267.72981,55.890348 C 266.93067,55.796331 266.12726,56.027252 265.5,56.53125 C 265.1641,56.80316 264.8711,56.978654 264.65625,57.0625 C 264.45631,57.140523 264.30296,57.156253 264.09375,57.15625 C 263.38236,57.156254 263.47367,57.228835 263.09375,56.53125 C 262.71763,55.84069 262.28123,54.010494 262.28125,51.25 C 262.28123,49.645877 262.3353,47.824733 262.4375,45.78125 C 262.50044,44.522243 262.64028,43.020985 262.75,41.59375 C 262.93442,41.582749 263.12919,41.573548 263.3125,41.5625 C 263.84847,41.530227 264.25887,41.514868 264.53125,41.5 C 264.80363,41.485132 265.32992,41.468442 264.8125,41.46875 C 265.78723,41.468778 266.58413,41.525173 267.09375,41.59375 C 267.60097,41.662055 267.98817,41.767907 268.25,41.875 C 269.549,42.404502 271.04151,41.963238 271.84375,40.8125 C 272.6981,39.575133 273.37758,38.368059 273.84375,37.125 C 274.2966,35.917329 274.56244,34.652461 274.5625,33.375 C 274.56244,31.728966 274.08147,29.904876 272.59375,28.6875 C 271.12661,27.487277 269.50122,27.312549 267.84375,27.3125 C 267.13094,27.312559 266.06775,27.367704 264.28125,27.5 C 264.02311,27.519127 263.92865,27.513557 263.6875,27.53125 C 263.84147,25.606028 263.96872,24.155798 263.96875,23.375 C 263.96873,20.985809 263.42031,18.67703 261.71875,17 C 260.03467,15.340446 257.74528,14.812563 255.375,14.8125 C 253.76898,14.812563 252.18405,15.052652 250.59375,15.46875 C 249.01471,15.882012 247.29116,16.508364 245.5,17.375 C 244.77816,17.730353 244.22929,18.360734 243.97662,19.1246 C 243.72396,19.888465 243.78868,20.721803 244.15625,21.4375 C 244.57578,22.25754 244.92854,23.306023 245.15625,24.53125 C 245.36012,25.628347 245.4427,26.956301 245.46875,28.40625 C 245.39961,28.407459 245.17777,28.406253 245.125,28.40625 C 244.57511,28.406283 244.11149,28.377926 243.65625,28.34375 C 243.12167,28.303695 242.65711,28.285289 242.375,28.25 C 241.08724,28.083801 239.83871,28.76482 239.28125,29.9375 C 238.71287,31.134134 238.33679,32.211528 238.0625,33.15625 C 237.92465,33.63108 237.90209,34.162406 237.8125,34.65625 C 236.84522,32.970798 235.63934,31.415755 234.0625,30.125 C 230.22147,26.981006 225.20955,25.468795 219.46875,25.46875 C 212.48445,25.468795 206.40066,27.672671 201.875,32.09375 C 197.34967,36.514565 195.06249,42.513081 195.0625,49.34375 C 195.06249,53.145613 195.77221,56.610527 197.09375,59.65625 C 196.73098,59.43863 196.3263,59.300185 195.90625,59.25 C 195.41846,59.19372 192.56318,57.726319 189,54.25 C 186.52648,51.836845 184.34837,49.98772 182.28125,48.375 C 186.07007,45.493496 189.85905,42.652611 191.375,41.125 C 193.29827,39.186927 194.81239,37.343686 194.8125,34.6875 C 194.81241,32.23945 193.27785,30.003836 191.3125,28.6875 C 189.34944,27.372881 186.82381,26.517201 183.4375,25.71875 C 181.86236,25.340819 180.27162,26.281431 179.84375,27.84375 C 179.63297,28.637205 178.46871,30.775048 176.25,33.4375 C 175.14087,34.768459 172.698,37.090612 170.90625,38.9375 C 171.0136,33.430716 171.09792,28.009576 171.4375,21.96875 C 171.59392,19.46571 171.68749,18.049979 171.6875,17.125 C 171.68748,14.328993 171.29726,11.931683 169.625,10.03125 C 167.95895,8.1381593 165.49453,7.5625703 162.96875,7.5625 z M 30.78125,25.625 C 33.216011,25.625039 34.64623,26.152926 35.53125,26.90625 C 36.424172,27.666382 36.843725,28.517805 36.84375,30.3125 C 36.843724,32.734229 36.179952,34.156955 34.625,35.4375 C 33.380523,36.462366 31.498113,37.01749 29.125,37.25 C 29.14555,35.53963 29.139727,33.860906 29.1875,32.09375 C 29.243814,30.009585 29.362717,27.844872 29.46875,25.6875 C 29.950415,25.642812 30.43066,25.625027 30.78125,25.625 z M 218.75,39.5 C 220.03889,39.500022 220.63229,39.776242 221.1875,40.3125 C 221.72731,40.833933 221.94727,41.331288 221.96875,42.40625 C 221.89424,42.377459 221.09382,42.656268 219.3125,42.65625 C 218.51537,42.656271 217.40331,42.600727 216.03125,42.5 C 215.60198,42.468502 214.93183,42.385443 214.4375,42.34375 C 214.73963,41.704938 215.08629,41.177756 215.46875,40.78125 C 216.34349,39.874422 217.18347,39.500023 218.75,39.5 z M 88.5,41.5625 C 90.908747,41.562524 92.39034,42.190036 93.625,43.46875 C 94.865085,44.753166 95.499972,46.354201 95.5,48.875 C 95.499972,51.271736 94.869933,52.855004 93.5,54.28125 C 92.12326,55.714553 90.673635,56.343757 88.5,56.34375 C 86.127794,56.343757 84.68097,55.721281 83.40625,54.4375 C 82.138372,53.160651 81.499988,51.644982 81.5,49.25 C 81.499988,46.659837 82.158169,44.996632 83.46875,43.59375 C 84.773776,42.196826 86.197871,41.562524 88.5,41.5625 z" />
    <path
       sodipodi:type="inkscape:offset"
       inkscape:radius="2"
       inkscape:original="M 162.96875 10.546875 C 161.51041 10.546933 160.01301 10.735735 158.47656 11.113281 C 156.9401 11.490943 155.32552 12.070369 153.63281 12.851562 C 154.41406 14.335992 154.96744 16.549532 155.29297 19.492188 C 155.61848 22.434942 155.78124 26.966188 155.78125 33.085938 C 155.78124 38.58076 155.63802 44.570337 155.35156 51.054688 C 155.0651 57.539074 154.92187 61.28907 154.92188 62.304688 C 154.92187 64.830732 155.33203 66.569013 156.15234 67.519531 C 156.97265 68.470053 158.45051 68.945312 160.58594 68.945312 C 162.0703 68.945312 163.56118 68.76302 165.05859 68.398438 C 166.55597 68.033855 168.11196 67.47396 169.72656 66.71875 C 168.99738 65.312504 168.46352 63.372401 168.125 60.898438 C 167.78644 58.424489 167.61717 55.208347 167.61719 51.25 C 170.61196 54.166681 173.86716 57.539074 177.38281 61.367188 C 180.89841 65.195316 183.05986 67.421877 183.86719 68.046875 C 184.62236 68.671875 185.40361 69.153645 186.21094 69.492188 C 187.01819 69.830727 187.8385 69.999999 188.67188 70 C 190.44267 69.999999 191.92053 69.329427 193.10547 67.988281 C 194.29032 66.647138 195.10412 64.726568 195.54688 62.226562 C 193.51557 61.992194 190.63147 60.052092 186.89453 56.40625 C 183.15752 52.760433 179.98695 50.117207 177.38281 48.476562 C 183.60674 43.867213 187.56507 40.709664 189.25781 39.003906 C 190.95048 37.298209 191.79683 35.859408 191.79688 34.6875 C 191.79683 33.307327 191.0872 32.141964 189.66797 31.191406 C 188.24866 30.240924 185.93745 29.38806 182.73438 28.632812 C 182.29163 30.299519 180.89841 32.539099 178.55469 35.351562 C 176.21091 38.164093 172.59112 41.901069 167.69531 46.5625 C 167.6953 38.854197 167.94269 30.598997 168.4375 21.796875 C 168.59373 19.296925 168.67186 17.734426 168.67188 17.109375 C 168.67186 14.687554 168.24217 12.988337 167.38281 12.011719 C 166.52342 11.035214 165.05207 10.546933 162.96875 10.546875 z M 34.882812 11.992188 C 33.476535 11.992244 30.54685 12.122454 26.09375 12.382812 C 21.640609 12.643285 17.877592 12.773493 14.804688 12.773438 C 13.919261 12.773494 13.09244 12.766983 12.324219 12.753906 C 11.555984 12.740942 10.781245 12.734431 10 12.734375 C 10.833328 14.479221 11.425775 17.063854 11.777344 20.488281 C 12.1289 23.912805 12.30468 28.997436 12.304688 35.742188 C 12.30468 40.377632 12.14843 45.520857 11.835938 51.171875 C 11.52343 56.822929 11.367181 60.156259 11.367188 61.171875 C 11.367181 64.114588 11.874994 66.158856 12.890625 67.304688 C 13.906242 68.45052 15.716136 69.023437 18.320312 69.023438 C 19.882799 69.023437 21.50389 68.815104 23.183594 68.398438 C 24.863262 67.981772 26.653625 67.343752 28.554688 66.484375 C 27.825499 64.895837 27.278624 62.747402 26.914062 60.039062 C 26.549458 57.330741 26.328104 53.841161 26.25 49.570312 C 26.848937 49.492208 27.395811 49.433613 27.890625 49.394531 C 28.385394 49.355488 28.815081 49.335957 29.179688 49.335938 C 30.690079 49.335957 32.13539 49.811217 33.515625 50.761719 C 34.895804 51.712257 36.679656 53.554704 38.867188 56.289062 C 39.387987 56.940117 40.143195 57.877615 41.132812 59.101562 C 46.835897 66.1849 51.067663 69.726562 53.828125 69.726562 C 55.963491 69.726562 57.805937 68.828125 59.355469 67.03125 C 60.904893 65.234379 62.070256 62.643235 62.851562 59.257812 C 61.236923 58.815114 59.622343 58.027355 58.007812 56.894531 C 56.393179 55.761732 54.309847 53.880223 51.757812 51.25 C 51.575475 51.067726 51.328079 50.820332 51.015625 50.507812 C 48.072874 47.382834 45.14319 45.364607 42.226562 44.453125 C 46.262981 42.942734 49.309852 40.748726 51.367188 37.871094 C 53.424431 34.993524 54.453076 31.510454 54.453125 27.421875 C 54.453076 22.578171 52.727817 18.795623 49.277344 16.074219 C 45.826783 13.35292 41.02861 11.992243 34.882812 11.992188 z M 255.375 17.8125 C 254.0729 17.812551 252.72525 17.994843 251.33203 18.359375 C 249.93879 18.724009 248.43489 19.296925 246.82031 20.078125 C 247.39322 21.197964 247.8164 22.493536 248.08984 23.964844 C 248.36327 25.436241 248.49999 27.096396 248.5 28.945312 C 248.49999 29.179728 248.48697 29.557331 248.46094 30.078125 C 248.43489 30.598997 248.42187 30.989621 248.42188 31.25 L 248.14844 31.289062 C 246.74218 31.367225 245.73958 31.406288 245.14062 31.40625 C 244.51562 31.406288 243.9427 31.386756 243.42188 31.347656 C 242.90103 31.308631 242.43229 31.263058 242.01562 31.210938 C 241.52083 32.25264 241.15625 33.177119 240.92188 33.984375 C 240.68749 34.791701 240.57031 35.507846 240.57031 36.132812 C 240.57031 37.252637 240.88281 38.053416 241.50781 38.535156 C 242.13281 39.016957 243.1875 39.257842 244.67188 39.257812 C 245.14061 39.257842 245.64192 39.238311 246.17578 39.199219 C 246.70963 39.160186 247.28906 39.101591 247.91406 39.023438 C 247.86197 41.341172 247.6927 44.433618 247.40625 48.300781 C 247.11978 52.167986 246.97656 54.856785 246.97656 56.367188 C 246.97656 60.742196 247.97265 63.997402 249.96484 66.132812 C 251.95702 68.268231 254.98436 69.335937 259.04688 69.335938 C 262.19788 69.335937 264.66534 68.802083 266.44922 67.734375 C 268.23305 66.666669 269.12497 65.208337 269.125 63.359375 C 269.12497 62.604173 268.98825 61.868497 268.71484 61.152344 C 268.44138 60.436206 267.99216 59.674487 267.36719 58.867188 C 266.82029 59.309905 266.27992 59.635426 265.74609 59.84375 C 265.21221 60.052092 264.65883 60.156259 264.08594 60.15625 C 262.47133 60.156259 261.26691 59.427093 260.47266 57.96875 C 259.67837 56.510429 259.28123 54.270848 259.28125 51.25 C 259.28123 49.583353 259.33331 47.708355 259.4375 45.625 C 259.54165 43.541692 259.71092 41.237006 259.94531 38.710938 C 260.98696 38.684925 262.04816 38.639353 263.12891 38.574219 C 264.20961 38.509145 264.77603 38.476593 264.82812 38.476562 C 265.92185 38.476593 266.80727 38.522166 267.48438 38.613281 C 268.16143 38.704457 268.78643 38.867218 269.35938 39.101562 C 270.11454 38.007843 270.66794 36.992218 271.01953 36.054688 C 271.37106 35.117221 271.54683 34.218785 271.54688 33.359375 C 271.54683 32.265662 271.26039 31.484412 270.6875 31.015625 C 270.11455 30.546913 269.16403 30.312539 267.83594 30.3125 C 267.36716 30.312539 266.25388 30.377643 264.49609 30.507812 C 262.73826 30.638059 261.37758 30.729205 260.41406 30.78125 C 260.46613 30.104206 260.54425 29.179727 260.64844 28.007812 C 260.85675 25.40369 260.96092 23.854212 260.96094 23.359375 C 260.96092 21.432339 260.5117 20.026091 259.61328 19.140625 C 258.71483 18.255259 257.30207 17.812551 255.375 17.8125 z M 30.78125 22.617188 C 33.671847 22.617234 35.904918 23.287806 37.480469 24.628906 C 39.055956 25.970095 39.843716 27.864624 39.84375 30.3125 C 39.843716 33.437536 38.736946 35.911491 36.523438 37.734375 C 34.309866 39.557321 31.276016 40.468778 27.421875 40.46875 L 26.054688 40.46875 C 26.054666 37.708365 26.093729 34.882846 26.171875 31.992188 C 26.249979 29.101602 26.380187 26.132855 26.5625 23.085938 C 27.343728 22.929733 28.092425 22.812546 28.808594 22.734375 C 29.524716 22.656296 30.182267 22.617234 30.78125 22.617188 z M 89.335938 28.164062 C 82.513002 28.164103 76.901028 30.18233 72.5 34.21875 C 68.098954 38.255239 65.898435 43.372422 65.898438 49.570312 C 65.898435 55.55991 67.949214 60.449227 72.050781 64.238281 C 76.152331 68.027345 81.458315 69.921874 87.96875 69.921875 C 91.718722 69.921874 95.084604 69.257812 98.066406 67.929688 C 101.04814 66.601564 103.68486 64.59636 105.97656 61.914062 C 107.5911 60.013031 108.83459 57.864594 109.70703 55.46875 C 110.57938 53.072933 111.01559 50.598977 111.01562 48.046875 C 111.01558 42.265652 108.98432 37.506542 104.92188 33.769531 C 100.85933 30.032591 95.664029 28.164103 89.335938 28.164062 z M 139.64844 28.476562 C 136.83591 28.476603 134.09503 28.925821 131.42578 29.824219 C 128.7565 30.722694 126.45832 31.979204 124.53125 33.59375 C 121.74478 35.937533 119.64192 38.600291 118.22266 41.582031 C 116.80338 44.563826 116.09375 47.812521 116.09375 51.328125 C 116.09375 56.875012 117.98828 61.347664 121.77734 64.746094 C 125.56639 68.144532 130.55988 69.843749 136.75781 69.84375 C 140.53383 69.843749 143.5156 69.192708 145.70312 67.890625 C 147.89059 66.588544 148.98434 64.830732 148.98438 62.617188 C 148.98434 61.653652 148.77601 60.683602 148.35938 59.707031 C 147.94267 58.730479 147.30465 57.708345 146.44531 56.640625 C 145.01299 57.578136 143.60674 58.261729 142.22656 58.691406 C 140.84633 59.121104 139.40102 59.335946 137.89062 59.335938 C 135.10415 59.335947 132.87107 58.463552 131.19141 56.71875 C 129.5117 54.973972 128.67186 52.643245 128.67188 49.726562 C 128.67185 46.67971 129.69399 44.108098 131.73828 42.011719 C 133.78253 39.915394 136.27602 38.867218 139.21875 38.867188 C 140.26039 38.867218 141.23695 38.990915 142.14844 39.238281 C 143.05987 39.485707 143.98434 39.869821 144.92188 40.390625 C 145.96351 39.244821 146.74477 38.144562 147.26562 37.089844 C 147.78642 36.035189 148.04684 34.973992 148.04688 33.90625 C 148.04684 32.161495 147.32419 30.820351 145.87891 29.882812 C 144.43356 28.945352 142.35674 28.476603 139.64844 28.476562 z M 219.46094 28.476562 C 213.08071 28.476603 207.91796 30.403684 203.97266 34.257812 C 200.02734 38.11201 198.05468 43.138047 198.05469 49.335938 C 198.05468 55.794283 200.0013 60.755217 203.89453 64.21875 C 207.78775 67.682293 213.35415 69.414062 220.59375 69.414062 C 224.91664 69.414062 228.28903 68.834636 230.71094 67.675781 C 233.13277 66.51693 234.34371 64.908858 234.34375 62.851562 C 234.34371 62.070319 234.13538 61.263029 233.71875 60.429688 C 233.30205 59.596363 232.66403 58.697927 231.80469 57.734375 C 230.58069 58.723969 229.12236 59.466155 227.42969 59.960938 C 225.73695 60.455737 223.80987 60.703133 221.64844 60.703125 C 217.89842 60.703133 215.02732 59.915374 213.03516 58.339844 C 211.04295 56.764335 210.04686 54.492202 210.04688 51.523438 L 210.04688 51.367188 C 211.84373 51.60158 213.66014 51.777361 215.49609 51.894531 C 217.33201 52.011736 219.16143 52.070329 220.98438 52.070312 C 226.94789 52.07033 231.10804 51.360695 233.46484 49.941406 C 235.82157 48.522156 236.99996 46.106794 237 42.695312 C 236.99996 38.502635 235.38538 35.084669 232.15625 32.441406 C 228.92705 29.798216 224.69528 28.476603 219.46094 28.476562 z M 218.75781 36.484375 C 220.63279 36.484407 222.1432 37.037792 223.28906 38.144531 C 224.43487 39.251332 225.00778 40.716175 225.00781 42.539062 C 225.00778 43.710964 224.61716 44.524764 223.83594 44.980469 C 223.05466 45.436221 221.54424 45.664086 219.30469 45.664062 C 218.39321 45.664086 217.22784 45.612004 215.80859 45.507812 C 214.3893 45.403669 212.65102 45.24742 210.59375 45.039062 C 210.98436 42.278672 211.88931 40.162789 213.30859 38.691406 C 214.72785 37.220084 216.54425 36.484407 218.75781 36.484375 z M 88.515625 38.554688 C 91.53643 38.554718 93.958303 39.498727 95.78125 41.386719 C 97.604132 43.274765 98.51559 45.768251 98.515625 48.867188 C 98.51559 51.888038 97.565071 54.388035 95.664062 56.367188 C 93.762991 58.346365 91.38018 59.335946 88.515625 59.335938 C 85.520811 59.335946 83.105449 58.411469 81.269531 56.5625 C 79.433578 54.713556 78.51561 52.278662 78.515625 49.257812 C 78.51561 46.080752 79.440089 43.50263 81.289062 41.523438 C 83.138002 39.5443 85.546853 38.554718 88.515625 38.554688 z "
       xlink:href="#path2865"
       style="font-size:80px;font-style:normal;font-weight:normal;fill:#000000;fill-opacity:1;stroke:none;stroke-width:1px;stroke-linecap:butt;stroke-linejoin:miter;stroke-opacity:1;display:inline"
       id="path3200"
       inkscape:href="#path2865"
       d="M 162.96875,8.5625 C 161.34142,8.5625647 159.68346,8.7738306 158,9.1875 C 156.33398,9.597008 154.58318,10.199651 152.78125,11.03125 C 152.28156,11.260024 151.89801,11.68432 151.72068,12.204494 C 151.54335,12.724668 151.58786,13.29489 151.84375,13.78125 C 152.42067,14.877444 152.97063,16.910845 153.28125,19.71875 C 153.59068,22.516138 153.78124,27.012013 153.78125,33.09375 C 153.78124,38.551927 153.62918,44.507685 153.34375,50.96875 C 153.05687,57.462541 152.9375,61.139619 152.9375,62.3125 C 152.93749,65.048864 153.25548,67.220632 154.65625,68.84375 C 156.04829,70.456758 158.17377,70.9375 160.59375,70.9375 C 162.22782,70.9375 163.87427,70.747185 165.53125,70.34375 C 167.18521,69.941044 168.85301,69.330843 170.5625,68.53125 C 171.0538,68.302032 171.43102,67.883198 171.60775,67.370669 C 171.78449,66.85814 171.7456,66.295823 171.5,65.8125 C 170.93452,64.721947 170.4135,62.961819 170.09375,60.625 C 169.95359,59.600824 169.9543,57.837786 169.875,56.5 C 171.83614,58.51097 173.73302,60.35237 175.90625,62.71875 C 179.43784,66.564289 181.40064,68.684215 182.65625,69.65625 C 183.55077,70.396582 184.4406,70.925716 185.4375,71.34375 C 186.48548,71.783244 187.59581,71.999999 188.6875,72 C 190.95438,71.999999 193.08778,71.016998 194.59375,69.3125 C 196.10129,67.606101 197.04362,65.315847 197.53125,62.5625 C 197.62981,62.016785 197.49739,61.454643 197.16562,61.010298 C 196.83384,60.565952 196.33248,60.279287 195.78125,60.21875 C 194.77896,60.103107 191.9336,58.501577 188.3125,54.96875 C 185.42683,52.153498 182.92572,50.099754 180.625,48.40625 C 185.15671,44.993199 189.06223,42.012528 190.65625,40.40625 C 192.50265,38.545636 193.81241,36.848927 193.8125,34.6875 C 193.81242,32.595409 192.56456,30.72566 190.78125,29.53125 C 188.99944,28.33801 186.54399,27.47155 183.21875,26.6875 C 182.15891,26.430587 181.0886,27.069994 180.8125,28.125 C 180.5244,29.209539 179.29163,31.350045 177.03125,34.0625 C 175.52268,35.872786 172.53819,38.777259 169.84375,41.46875 C 169.92653,35.212209 170.04644,28.893996 170.4375,21.9375 C 170.59386,19.43549 170.68749,17.950003 170.6875,17.125 C 170.68748,14.453722 170.27629,12.279994 168.875,10.6875 C 167.47784,9.0999379 165.34705,8.5625662 162.96875,8.5625 z M 34.875,10 C 33.360192,10.00006 30.438606,10.113661 25.96875,10.375 C 21.537598,10.634187 17.822097,10.781305 14.8125,10.78125 C 13.954605,10.781304 13.118602,10.76319 12.34375,10.75 C 11.53059,10.736278 10.758931,10.750054 10,10.75 C 9.3082444,10.745239 8.6631357,11.098256 8.2942131,11.683444 C 7.9252904,12.268632 7.8849328,13.002905 8.1875,13.625 C 8.8502289,15.012641 9.4427216,17.421344 9.78125,20.71875 C 10.119354,24.012236 10.312493,29.040769 10.3125,35.75 C 10.312493,40.340504 10.154573,45.441685 9.84375,51.0625 C 9.5308782,56.720151 9.3749928,59.966729 9.375,61.1875 C 9.3749936,64.349684 9.7885012,66.835118 11.375,68.625 C 12.956826,70.409638 15.414992,71.03125 18.3125,71.03125 C 20.052763,71.031249 21.833783,70.795831 23.65625,70.34375 C 25.470271,69.893756 27.377945,69.215271 29.375,68.3125 C 29.861092,68.09428 30.240026,67.691133 30.427758,67.192472 C 30.615489,66.693811 30.596499,66.140857 30.375,65.65625 C 29.771464,64.341446 29.222136,62.328878 28.875,59.75 C 28.589755,57.631164 28.478542,54.600112 28.375,51.375 C 28.673912,51.356561 28.991617,51.343761 29.1875,51.34375 C 30.295601,51.343764 31.277257,51.650287 32.375,52.40625 C 33.430489,53.133172 35.186296,54.873549 37.3125,57.53125 C 37.825224,58.172209 38.56525,59.110363 39.5625,60.34375 C 42.463189,63.946459 45.003296,66.685516 47.28125,68.59375 C 49.559204,70.501984 51.576938,71.71875 53.8125,71.71875 C 56.503977,71.71875 58.994533,70.488147 60.84375,68.34375 C 62.691049,66.201433 63.952059,63.280409 64.78125,59.6875 C 65.021306,58.647427 64.402375,57.602121 63.375,57.3125 C 62.001495,56.935915 60.605598,56.298175 59.15625,55.28125 C 57.737138,54.285626 55.694735,52.427801 53.1875,49.84375 C 53.177083,49.843669 53.166667,49.843669 53.15625,49.84375 C 52.974136,49.661699 52.718621,49.406186 52.40625,49.09375 C 50.492498,47.061491 48.548909,45.597072 46.5625,44.40625 C 49.127298,42.95493 51.405365,41.261693 53,39.03125 C 55.320556,35.785371 56.437447,31.853875 56.4375,27.4375 C 56.437446,22.124268 54.442726,17.584999 50.53125,14.5 C 46.62198,11.416938 41.31175,10.000059 34.875,10 z M 255.375,15.8125 C 253.87029,15.812559 252.36836,16.038591 250.84375,16.4375 C 249.32664,16.834553 247.6698,17.411843 245.9375,18.25 C 245.45168,18.484942 245.08141,18.906218 244.91076,19.41817 C 244.74011,19.930121 244.78356,20.489306 245.03125,20.96875 C 245.50191,21.888723 245.88205,23.036496 246.125,24.34375 C 246.37066,25.665716 246.49999,27.184352 246.5,28.9375 C 246.5,29.018133 246.50231,29.221785 246.5,29.34375 C 246.04436,29.362425 245.35896,29.406265 245.125,29.40625 C 244.55007,29.406285 244.07085,29.379567 243.59375,29.34375 C 243.06375,29.304038 242.57696,29.25965 242.25,29.21875 C 241.3839,29.113062 240.54922,29.580986 240.1875,30.375 C 239.64365,31.51999 239.29224,32.5386 239.03125,33.4375 C 238.77118,34.333301 238.5625,35.200028 238.5625,36.125 C 238.5625,37.616906 239.05864,39.18263 240.28125,40.125 C 241.5359,41.092186 242.99024,41.250033 244.6875,41.25 C 245.04101,41.250023 245.41629,41.2385 245.78125,41.21875 C 245.70209,43.228927 245.62198,45.24386 245.40625,48.15625 C 245.11857,52.039821 244.96875,54.731274 244.96875,56.375 C 244.96875,61.05715 246.04905,64.872849 248.5,67.5 C 250.95411,70.130556 254.64444,71.34375 259.0625,71.34375 C 262.4361,71.343749 265.24364,70.800545 267.46875,69.46875 C 269.68579,68.141747 271.12496,65.875583 271.125,63.375 C 271.12496,62.38537 270.95556,61.385203 270.59375,60.4375 C 270.22989,59.484635 269.68307,58.578967 268.96875,57.65625 C 268.64135,57.227698 268.15476,56.949515 267.61935,56.884795 C 267.08394,56.820076 266.54509,56.974304 266.125,57.3125 C 265.71877,57.641346 265.35243,57.843412 265.03125,57.96875 C 264.72,58.090213 264.42418,58.156255 264.09375,58.15625 C 263.08129,58.156256 262.73678,57.951171 262.21875,57 C 261.70324,56.053519 261.28123,54.097279 261.28125,51.25 C 261.28123,49.625035 261.33464,47.775524 261.4375,45.71875 C 261.51426,44.183254 261.66571,42.407431 261.8125,40.625 C 262.29258,40.599089 262.77258,40.591273 263.25,40.5625 C 263.78743,40.530139 264.19374,40.515012 264.46875,40.5 C 264.74376,40.484988 265.14877,40.46855 264.8125,40.46875 C 265.8269,40.468779 266.65331,40.51766 267.21875,40.59375 C 267.78258,40.669679 268.25946,40.78799 268.625,40.9375 C 269.49628,41.294028 270.49825,40.994739 271.03125,40.21875 C 271.85254,39.029266 272.47827,37.891216 272.90625,36.75 C 273.32533,35.632397 273.56245,34.513111 273.5625,33.375 C 273.56245,31.913073 273.15152,30.405346 271.96875,29.4375 C 270.79967,28.481114 269.39142,28.312545 267.84375,28.3125 C 267.21228,28.312553 266.12068,28.368413 264.34375,28.5 C 263.59501,28.555478 263.22893,28.582328 262.625,28.625 C 262.64101,28.449537 262.63953,28.375551 262.65625,28.1875 C 262.65633,28.177083 262.65633,28.166667 262.65625,28.15625 C 262.86529,25.543049 262.96872,24.150356 262.96875,23.375 C 262.96873,21.13986 262.4651,19.100675 261.03125,17.6875 C 259.60905,16.286008 257.59754,15.812559 255.375,15.8125 z M 30.78125,24.625 C 33.367957,24.625041 35.072303,25.207001 36.1875,26.15625 C 37.307944,27.110068 37.843722,28.300078 37.84375,30.3125 C 37.843721,32.968665 37.024471,34.757425 35.25,36.21875 C 33.606275,37.57241 31.245421,38.268264 28.09375,38.375 C 28.110429,36.295228 28.129092,34.223043 28.1875,32.0625 C 28.250906,29.715884 28.371727,27.286676 28.5,24.84375 C 28.675799,24.820928 28.858975,24.768804 29.03125,24.75 C 29.702755,24.676786 30.286499,24.625038 30.78125,24.625 z M 89.34375,26.15625 C 82.124893,26.156293 75.936622,28.365663 71.15625,32.75 C 66.379491,37.13108 63.906248,42.892899 63.90625,49.5625 C 63.906247,56.009487 66.229302,61.571369 70.71875,65.71875 C 75.205829,69.86397 81.069517,71.937499 87.96875,71.9375 C 91.957612,71.937499 95.611798,71.203463 98.875,69.75 C 102.14581,68.293113 105.03915,66.099031 107.5,63.21875 C 107.50008,63.208333 107.50008,63.197917 107.5,63.1875 C 109.26093,61.114099 110.64002,58.775336 111.59375,56.15625 C 112.54785,53.535919 112.99996,50.828189 113,48.0625 C 112.99996,41.820019 110.72617,36.40134 106.28125,32.3125 C 101.83952,28.226759 96.069642,26.156294 89.34375,26.15625 z M 139.65625,26.46875 C 136.63263,26.468794 133.68412,26.939741 130.8125,27.90625 C 127.93455,28.874963 125.38494,30.273797 123.25,32.0625 C 120.27,34.569067 117.95615,37.462551 116.40625,40.71875 C 114.8573,43.972966 114.09375,47.529244 114.09375,51.3125 C 114.09375,57.315725 116.24348,62.488358 120.4375,66.25 C 124.6291,70.009493 130.18737,71.843749 136.75,71.84375 C 140.76142,71.843749 144.10446,71.149863 146.71875,69.59375 C 149.31799,68.046566 150.99996,65.516177 151,62.625 C 150.99995,61.373249 150.7278,60.130669 150.21875,58.9375 C 149.7052,57.734006 148.94639,56.550884 148,55.375 C 147.35989,54.566 146.20951,54.376526 145.34375,54.9375 C 144.03419,55.79466 142.78863,56.418988 141.625,56.78125 C 140.43466,57.15183 139.18538,57.343758 137.875,57.34375 C 135.50971,57.343758 133.92671,56.695945 132.625,55.34375 C 131.33892,54.007847 130.68749,52.260437 130.6875,49.71875 C 130.68748,47.117493 131.48309,45.154088 133.1875,43.40625 C 134.89519,41.655061 136.74208,40.875026 139.21875,40.875 C 140.09709,40.875025 140.89699,40.989928 141.625,41.1875 C 142.4001,41.397916 143.1843,41.689231 143.96875,42.125 C 144.77775,42.567684 145.78455,42.399883 146.40625,41.71875 C 147.54751,40.463355 148.41305,39.220576 149.03125,37.96875 C 149.65749,36.70058 150.06246,35.338175 150.0625,33.90625 C 150.06245,31.594348 148.8866,29.431588 146.96875,28.1875 C 145.04907,26.942389 142.59531,26.468794 139.65625,26.46875 z M 219.46875,26.46875 C 212.68581,26.468794 206.89471,28.580404 202.5625,32.8125 C 198.2305,37.044443 196.06249,42.724007 196.0625,49.34375 C 196.06249,56.204787 198.20966,61.84633 202.5625,65.71875 C 206.9153,69.591155 213.03664,71.40625 220.59375,71.40625 C 225.08933,71.40625 228.74452,70.863324 231.59375,69.5 C 234.44065,68.137751 236.34369,65.680773 236.34375,62.84375 C 236.34369,61.707023 236.02394,60.579223 235.5,59.53125 C 234.97748,58.486298 234.25602,57.464188 233.3125,56.40625 C 232.6008,55.611741 231.39086,55.515496 230.5625,56.1875 C 229.56629,56.99293 228.35307,57.630448 226.875,58.0625 C 225.41862,58.48821 223.67952,58.687507 221.65625,58.6875 C 218.17938,58.687507 215.7852,57.970668 214.28125,56.78125 C 213.2699,55.981436 212.72375,54.892744 212.40625,53.59375 C 213.39561,53.69311 214.36987,53.842103 215.375,53.90625 C 217.26757,54.027071 219.14847,54.062517 221,54.0625 C 227.1213,54.062517 231.50568,53.459462 234.5,51.65625 C 237.46563,49.870312 238.99995,46.558001 239,42.6875 C 238.99996,37.981373 237.06695,33.845951 233.4375,30.875 C 229.80041,27.897941 225.04073,26.468794 219.46875,26.46875 z M 218.75,38.5 C 220.23425,38.500025 221.15415,38.867332 221.90625,39.59375 C 222.66589,40.327532 222.99998,41.127394 223,42.53125 C 222.99998,43.276517 222.97473,43.173596 222.84375,43.25 C 222.77663,43.289156 221.41405,43.656272 219.3125,43.65625 C 218.47725,43.656272 217.35654,43.601882 215.96875,43.5 C 215.20539,43.443987 214.08622,43.337525 213.125,43.25 C 213.53699,41.931873 214.04569,40.792667 214.75,40.0625 C 215.80625,38.967508 216.96779,38.500026 218.75,38.5 z M 88.5,40.5625 C 91.112766,40.562526 92.912995,41.268194 94.34375,42.75 C 95.778101,44.235626 96.499969,46.161489 96.5,48.875 C 96.49997,51.479774 95.765708,53.389452 94.21875,55 C 92.667232,56.615261 90.903942,57.343758 88.5,57.34375 C 85.920258,57.343758 84.149286,56.628427 82.6875,55.15625 C 81.230264,53.688703 80.499987,51.853605 80.5,49.25 C 80.499987,46.464205 81.259955,44.501236 82.75,42.90625 C 84.236331,41.315255 85.975657,40.562526 88.5,40.5625 z" />
    <path
       id="path2865"
       style="font-size:80px;font-style:normal;font-weight:normal;fill:#e31c1c;fill-opacity:1;stroke:none;stroke-width:1px;stroke-linecap:butt;stroke-linejoin:miter;stroke-opacity:1;display:inline;filter:url(#filter6881)"
       d="M 26.054688,40.46875 L 27.421875,40.46875 C 31.276016,40.468778 34.309867,39.557321 36.523438,37.734375 C 38.736946,35.911491 39.843716,33.437536 39.84375,30.3125 C 39.843716,27.864624 39.055956,25.970095 37.480469,24.628906 C 35.904918,23.287806 33.671847,22.617234 30.78125,22.617188 C 30.182267,22.617234 29.524716,22.656296 28.808594,22.734375 C 28.092425,22.812546 27.343728,22.929734 26.5625,23.085938 C 26.380187,26.132855 26.249979,29.101602 26.171875,31.992188 C 26.093729,34.882847 26.054667,37.708365 26.054688,40.46875 L 26.054688,40.46875 z M 62.851562,59.257812 C 62.070256,62.643235 60.904893,65.234379 59.355469,67.03125 C 57.805937,68.828125 55.963491,69.726562 53.828125,69.726562 C 51.067663,69.726562 46.835896,66.184899 41.132812,59.101562 C 40.143195,57.877615 39.387987,56.940116 38.867188,56.289062 C 36.679656,53.554703 34.895804,51.712257 33.515625,50.761719 C 32.13539,49.811217 30.690079,49.335957 29.179688,49.335938 C 28.815081,49.335957 28.385394,49.355488 27.890625,49.394531 C 27.395811,49.433613 26.848937,49.492207 26.25,49.570312 C 26.328104,53.841161 26.549458,57.330741 26.914062,60.039062 C 27.278624,62.747402 27.825499,64.895837 28.554688,66.484375 C 26.653625,67.343752 24.863262,67.981772 23.183594,68.398438 C 21.50389,68.815104 19.882798,69.023437 18.320312,69.023438 C 15.716136,69.023437 13.906242,68.450521 12.890625,67.304688 C 11.874994,66.158857 11.367182,64.114588 11.367188,61.171875 C 11.367182,60.156259 11.523431,56.822929 11.835938,51.171875 C 12.148431,45.520857 12.304681,40.377633 12.304688,35.742188 C 12.304681,28.997436 12.1289,23.912805 11.777344,20.488281 C 11.425775,17.063854 10.833328,14.479221 10,12.734375 C 10.781245,12.734431 11.555984,12.740942 12.324219,12.753906 C 13.09244,12.766983 13.919262,12.773494 14.804688,12.773438 C 17.877592,12.773494 21.640609,12.643285 26.09375,12.382812 C 30.54685,12.122453 33.476535,11.992244 34.882812,11.992188 C 41.02861,11.992244 45.826783,13.35292 49.277344,16.074219 C 52.727817,18.795623 54.453076,22.578171 54.453125,27.421875 C 54.453076,31.510454 53.424431,34.993524 51.367188,37.871094 C 49.309852,40.748726 46.26298,42.942734 42.226562,44.453125 C 45.14319,45.364607 48.072874,47.382834 51.015625,50.507812 C 51.328079,50.820331 51.575475,51.067726 51.757812,51.25 C 54.309847,53.880223 56.393178,55.761732 58.007812,56.894531 C 59.622342,58.027355 61.236923,58.815114 62.851562,59.257812 L 62.851562,59.257812 z M 78.515625,49.257812 C 78.51561,52.278662 79.433578,54.713556 81.269531,56.5625 C 83.105449,58.411469 85.520811,59.335947 88.515625,59.335938 C 91.38018,59.335947 93.76299,58.346365 95.664062,56.367188 C 97.56507,54.388035 98.51559,51.888038 98.515625,48.867188 C 98.51559,45.768252 97.604132,43.274765 95.78125,41.386719 C 93.958303,39.498727 91.53643,38.554718 88.515625,38.554688 C 85.546853,38.554718 83.138001,39.5443 81.289062,41.523438 C 79.440088,43.50263 78.51561,46.080752 78.515625,49.257812 L 78.515625,49.257812 z M 111.01562,48.046875 C 111.01558,50.598977 110.57938,53.072933 109.70703,55.46875 C 108.83459,57.864594 107.5911,60.01303 105.97656,61.914062 C 103.68486,64.596359 101.04814,66.601565 98.066406,67.929688 C 95.084604,69.257812 91.718722,69.921874 87.96875,69.921875 C 81.458315,69.921874 76.152331,68.027345 72.050781,64.238281 C 67.949214,60.449227 65.898435,55.559909 65.898438,49.570312 C 65.898435,43.372421 68.098954,38.255239 72.5,34.21875 C 76.901028,30.18233 82.513002,28.164103 89.335938,28.164062 C 95.66403,28.164103 100.85934,30.032591 104.92188,33.769531 C 108.98433,37.506542 111.01558,42.265652 111.01562,48.046875 L 111.01562,48.046875 z M 146.44531,56.640625 C 147.30465,57.708345 147.94267,58.730479 148.35938,59.707031 C 148.77601,60.683602 148.98434,61.653653 148.98438,62.617188 C 148.98434,64.830733 147.89059,66.588544 145.70312,67.890625 C 143.5156,69.192708 140.53383,69.843749 136.75781,69.84375 C 130.55988,69.843749 125.56639,68.144532 121.77734,64.746094 C 117.98828,61.347664 116.09375,56.875012 116.09375,51.328125 C 116.09375,47.812521 116.80338,44.563826 118.22266,41.582031 C 119.64192,38.600291 121.74478,35.937533 124.53125,33.59375 C 126.45832,31.979204 128.7565,30.722694 131.42578,29.824219 C 134.09503,28.925821 136.83591,28.476603 139.64844,28.476562 C 142.35674,28.476603 144.43356,28.945352 145.87891,29.882812 C 147.32419,30.820351 148.04684,32.161495 148.04688,33.90625 C 148.04684,34.973992 147.78642,36.035189 147.26562,37.089844 C 146.74476,38.144562 145.96351,39.244821 144.92188,40.390625 C 143.98434,39.869821 143.05987,39.485707 142.14844,39.238281 C 141.23695,38.990915 140.26039,38.867218 139.21875,38.867188 C 136.27602,38.867218 133.78253,39.915394 131.73828,42.011719 C 129.69399,44.108098 128.67186,46.67971 128.67188,49.726562 C 128.67186,52.643245 129.5117,54.973972 131.19141,56.71875 C 132.87107,58.463552 135.10415,59.335947 137.89062,59.335938 C 139.40102,59.335947 140.84633,59.121104 142.22656,58.691406 C 143.60674,58.261729 145.01299,57.578136 146.44531,56.640625 L 146.44531,56.640625 z M 195.54688,62.226562 C 195.10412,64.726567 194.29032,66.647138 193.10547,67.988281 C 191.92053,69.329427 190.44267,69.999999 188.67188,70 C 187.8385,69.999999 187.01819,69.830728 186.21094,69.492188 C 185.40361,69.153646 184.62236,68.671875 183.86719,68.046875 C 183.05986,67.421877 180.89841,65.195316 177.38281,61.367188 C 173.86716,57.539074 170.61196,54.166681 167.61719,51.25 C 167.61717,55.208347 167.78644,58.42449 168.125,60.898438 C 168.46352,63.372401 168.99738,65.312504 169.72656,66.71875 C 168.11196,67.47396 166.55597,68.033855 165.05859,68.398438 C 163.56118,68.763021 162.0703,68.945312 160.58594,68.945312 C 158.45051,68.945312 156.97265,68.470053 156.15234,67.519531 C 155.33203,66.569013 154.92187,64.830733 154.92188,62.304688 C 154.92187,61.28907 155.0651,57.539074 155.35156,51.054688 C 155.63802,44.570337 155.78124,38.58076 155.78125,33.085938 C 155.78124,26.966188 155.61848,22.434942 155.29297,19.492188 C 154.96744,16.549532 154.41406,14.335992 153.63281,12.851562 C 155.32552,12.070369 156.9401,11.490943 158.47656,11.113281 C 160.01301,10.735735 161.51041,10.546933 162.96875,10.546875 C 165.05207,10.546933 166.52342,11.035214 167.38281,12.011719 C 168.24217,12.988337 168.67186,14.687554 168.67188,17.109375 C 168.67186,17.734426 168.59373,19.296925 168.4375,21.796875 C 167.94269,30.598997 167.6953,38.854197 167.69531,46.5625 C 172.59112,41.901069 176.21091,38.164093 178.55469,35.351562 C 180.89841,32.539099 182.29163,30.299518 182.73438,28.632812 C 185.93746,29.38806 188.24866,30.240924 189.66797,31.191406 C 191.0872,32.141964 191.79683,33.307327 191.79688,34.6875 C 191.79683,35.859408 190.95048,37.298209 189.25781,39.003906 C 187.56507,40.709664 183.60674,43.867213 177.38281,48.476562 C 179.98695,50.117206 183.15752,52.760433 186.89453,56.40625 C 190.63147,60.052092 193.51558,61.992194 195.54688,62.226562 L 195.54688,62.226562 z M 210.59375,45.039062 C 212.65102,45.24742 214.3893,45.403669 215.80859,45.507812 C 217.22784,45.612003 218.39321,45.664086 219.30469,45.664062 C 221.54424,45.664086 223.05466,45.436221 223.83594,44.980469 C 224.61716,44.524764 225.00778,43.710963 225.00781,42.539062 C 225.00778,40.716174 224.43487,39.251332 223.28906,38.144531 C 222.1432,37.037792 220.63279,36.484407 218.75781,36.484375 C 216.54425,36.484407 214.72785,37.220084 213.30859,38.691406 C 211.88931,40.162789 210.98436,42.278672 210.59375,45.039062 L 210.59375,45.039062 z M 231.80469,57.734375 C 232.66403,58.697927 233.30205,59.596364 233.71875,60.429688 C 234.13538,61.263029 234.34371,62.070319 234.34375,62.851562 C 234.34371,64.908858 233.13277,66.51693 230.71094,67.675781 C 228.28903,68.834636 224.91664,69.414062 220.59375,69.414062 C 213.35415,69.414062 207.78775,67.682293 203.89453,64.21875 C 200.0013,60.755217 198.05468,55.794284 198.05469,49.335938 C 198.05468,43.138047 200.02734,38.11201 203.97266,34.257812 C 207.91796,30.403684 213.08071,28.476603 219.46094,28.476562 C 224.69528,28.476603 228.92705,29.798216 232.15625,32.441406 C 235.38538,35.084669 236.99996,38.502635 237,42.695312 C 236.99996,46.106794 235.82157,48.522156 233.46484,49.941406 C 231.10804,51.360695 226.94789,52.070329 220.98438,52.070312 C 219.16143,52.070329 217.33201,52.011736 215.49609,51.894531 C 213.66014,51.777361 211.84373,51.60158 210.04688,51.367188 L 210.04688,51.523438 C 210.04686,54.492202 211.04295,56.764335 213.03516,58.339844 C 215.02732,59.915374 217.89842,60.703133 221.64844,60.703125 C 223.80987,60.703133 225.73695,60.455738 227.42969,59.960938 C 229.12236,59.466155 230.58069,58.723969 231.80469,57.734375 L 231.80469,57.734375 z M 260.41406,30.78125 C 261.37758,30.729205 262.73826,30.638059 264.49609,30.507812 C 266.25388,30.377643 267.36716,30.312539 267.83594,30.3125 C 269.16403,30.312539 270.11455,30.546913 270.6875,31.015625 C 271.26039,31.484412 271.54684,32.265662 271.54688,33.359375 C 271.54684,34.218785 271.37106,35.117221 271.01953,36.054688 C 270.66794,36.992219 270.11455,38.007843 269.35938,39.101562 C 268.78643,38.867218 268.16143,38.704457 267.48438,38.613281 C 266.80727,38.522166 265.92185,38.476593 264.82812,38.476562 C 264.77602,38.476593 264.20961,38.509145 263.12891,38.574219 C 262.04816,38.639353 260.98696,38.684926 259.94531,38.710938 C 259.71092,41.237007 259.54165,43.541692 259.4375,45.625 C 259.33331,47.708355 259.28123,49.583353 259.28125,51.25 C 259.28123,54.270848 259.67837,56.510429 260.47266,57.96875 C 261.26691,59.427093 262.47133,60.156259 264.08594,60.15625 C 264.65883,60.156259 265.21221,60.052092 265.74609,59.84375 C 266.27992,59.635426 266.82029,59.309905 267.36719,58.867188 C 267.99216,59.674488 268.44138,60.436206 268.71484,61.152344 C 268.98825,61.868497 269.12497,62.604173 269.125,63.359375 C 269.12497,65.208337 268.23305,66.666669 266.44922,67.734375 C 264.66534,68.802083 262.19789,69.335937 259.04688,69.335938 C 254.98436,69.335937 251.95702,68.26823 249.96484,66.132812 C 247.97265,63.997401 246.97656,60.742196 246.97656,56.367188 C 246.97656,54.856785 247.11978,52.167986 247.40625,48.300781 C 247.6927,44.433618 247.86197,41.341173 247.91406,39.023438 C 247.28906,39.101592 246.70963,39.160186 246.17578,39.199219 C 245.64192,39.238311 245.14062,39.257842 244.67188,39.257812 C 243.1875,39.257842 242.13281,39.016957 241.50781,38.535156 C 240.88281,38.053416 240.57031,37.252636 240.57031,36.132812 C 240.57031,35.507846 240.6875,34.791701 240.92188,33.984375 C 241.15625,33.177119 241.52083,32.252641 242.01562,31.210938 C 242.43229,31.263059 242.90104,31.308631 243.42188,31.347656 C 243.9427,31.386756 244.51562,31.406288 245.14062,31.40625 C 245.73958,31.406288 246.74218,31.367225 248.14844,31.289062 L 248.42188,31.25 C 248.42187,30.989621 248.43489,30.598997 248.46094,30.078125 C 248.48697,29.557331 248.49999,29.179727 248.5,28.945312 C 248.49999,27.096396 248.36327,25.436241 248.08984,23.964844 C 247.8164,22.493536 247.39322,21.197964 246.82031,20.078125 C 248.43489,19.296925 249.93879,18.724009 251.33203,18.359375 C 252.72525,17.994843 254.0729,17.812551 255.375,17.8125 C 257.30207,17.812551 258.71483,18.255259 259.61328,19.140625 C 260.5117,20.026091 260.96092,21.432339 260.96094,23.359375 C 260.96092,23.854212 260.85675,25.403689 260.64844,28.007812 C 260.54425,29.179727 260.46613,30.104206 260.41406,30.78125 L 260.41406,30.78125 z" />
  </g>
  <g
     inkscape:groupmode="layer"
     id="layer5"
     inkscape:label="Path for &quot;NIA&quot; shadow"
     style="display:inline"
     sodipodi:insensitive="true">
    <g
       style="display:inline;filter:url(#filter6873);enable-background:new"
       id="g6998"
       clip-path="url(#clipPath7005)">
      <path
         transform="translate(3,4)"
         clip-path="none"
         d="M 0,-100 L 500,-100 L 500,200 L 0,200 L 0,0 L 0,-100 z M 273.92099,5.384 L 273.92099,75.944997 L 444.46199,75.944997 L 444.46199,5.384 L 273.92099,5.384 z M 281.92139,14.384766 L 294.96094,14.384766 L 335.84229,55.825195 L 335.20264,29.665527 C 335.14887,27.53178 334.9621,25.7581 334.64233,24.344482 C 334.32246,22.930954 333.84191,21.744839 333.20068,20.786133 C 332.50727,19.718474 331.53397,18.904672 330.28076,18.344727 C 329.02746,17.784882 327.65458,17.504934 326.16211,17.504883 L 325.76172,17.424316 L 325.76172,14.384766 L 347.20215,14.384766 L 347.20215,17.424316 L 346.96045,17.424316 C 344.34808,17.478079 342.3087,18.531545 340.84229,20.584717 C 339.37576,22.637986 338.64252,25.531456 338.64258,29.265137 L 338.64258,29.665527 L 339.12109,52.785645 C 339.12104,53.212093 339.13446,53.612076 339.16138,53.985596 C 339.18817,54.359145 339.2016,54.705418 339.20166,55.024414 C 339.25531,56.305351 339.30862,57.359224 339.36157,58.186035 C 339.41441,59.012868 339.49457,59.799 339.60205,60.544434 C 339.60199,60.86508 339.64187,61.198738 339.72168,61.54541 C 339.80137,61.892097 339.86811,62.251797 339.92188,62.624512 L 340.64209,66.225586 C 340.74782,66.811526 340.82758,67.277834 340.88135,67.624512 C 340.935,67.971192 340.96185,68.277995 340.96191,68.544922 C 341.01557,68.704427 341.04242,68.864339 341.04248,69.024658 C 341.04242,69.184977 341.04242,69.371744 341.04248,69.584961 L 335.84229,69.584961 C 334.72244,68.092449 333.61567,66.692711 332.52197,65.385742 C 331.42817,64.078781 330.3743,62.9183 329.36035,61.904297 L 296.24268,27.824707 L 296.88232,53.664551 C 296.93439,56.38429 297.05402,58.317882 297.24121,59.465332 C 297.42837,60.612801 297.78888,61.586108 298.32275,62.385254 C 298.37482,62.438971 298.41429,62.492275 298.44116,62.545166 C 298.468,62.598069 298.50828,62.651373 298.56201,62.705078 C 299.25535,63.719081 300.25511,64.519454 301.56128,65.106201 C 302.86741,65.692956 304.26756,65.986331 305.76172,65.986328 L 306.48193,65.905762 L 306.48193,68.945312 L 283.68164,68.945312 L 283.68164,65.905762 L 284.88037,65.905762 C 287.76122,65.959476 289.88158,65.279545 291.24146,63.865967 C 292.60131,62.452399 293.28124,60.279143 293.28125,57.346191 L 293.28125,53.664551 L 292.88086,24.226074 L 289.20166,20.705566 C 288.98844,20.54611 288.78865,20.37277 288.60229,20.185547 C 288.41593,19.998421 288.21533,19.825082 288.00049,19.665527 C 287.20133,19.078012 286.34847,18.624318 285.44189,18.304443 C 284.53532,17.98467 283.38867,17.771861 282.00195,17.666016 L 281.92139,14.384766 L 281.92139,14.384766 z M 363.50098,14.384766 L 385.26123,14.384766 L 384.54102,17.104492 L 384.30176,17.104492 C 383.929,17.158255 383.50257,17.278291 383.02246,17.4646 C 382.54228,17.651012 382.03529,17.877655 381.50146,18.144531 C 380.96758,18.46522 380.43413,18.825327 379.90112,19.224854 C 379.36805,19.62448 378.91517,20.038298 378.54248,20.466309 C 378.43503,20.572151 378.34144,20.678352 378.26172,20.784912 C 378.18194,20.891568 378.11521,20.998583 378.06152,21.105957 C 377.74086,21.478726 377.48736,21.851854 377.30103,22.225342 C 377.11464,22.598923 376.91485,23.052618 376.70166,23.586426 C 376.48842,24.064986 376.28863,24.637902 376.10229,25.305176 C 375.91591,25.972536 375.68926,26.785524 375.42236,27.744141 L 367.66113,55.666504 C 367.23468,57.21274 366.94131,58.345958 366.78101,59.066162 C 366.62067,59.786386 366.54051,60.359709 366.54053,60.786133 C 366.54051,62.278652 367.18056,63.571783 368.46069,64.665527 C 369.74078,65.759281 371.20766,66.306155 372.86133,66.306152 L 373.18115,66.225586 L 372.46094,68.945312 L 349.42139,68.945312 L 350.22217,66.225586 L 350.54199,66.225586 C 350.91471,66.2793 351.368,66.225996 351.90186,66.065674 C 352.43571,65.905358 352.96875,65.691735 353.50098,65.424805 C 354.08854,65.105798 354.66227,64.73267 355.22217,64.30542 C 355.78206,63.878179 356.27522,63.45134 356.70166,63.024902 C 356.80745,62.919114 356.8872,62.825934 356.94092,62.745361 C 356.99462,62.664801 357.07519,62.571621 357.18262,62.46582 C 357.44791,62.091478 357.68757,61.704516 357.90161,61.304932 C 358.11563,60.905363 358.32926,60.438648 358.54248,59.904785 C 358.75569,59.372568 358.95548,58.772797 359.14185,58.105469 C 359.3282,57.438163 359.55484,56.651217 359.82178,55.744629 L 367.66113,27.666016 C 367.92804,26.652061 368.14166,25.731651 368.302,24.904785 C 368.4623,24.078007 368.54246,23.398483 368.54248,22.866211 C 368.54246,21.266324 367.99559,19.919483 366.90186,18.825684 C 365.80809,17.731985 364.4881,17.18511 362.94189,17.185059 L 362.70264,17.104492 L 363.50098,14.384766 L 363.50098,14.384766 z M 401.98242,14.384766 L 410.62256,14.384766 L 429.2627,57.905273 C 429.956,59.558929 430.54235,60.892342 431.02173,61.905518 C 431.50101,62.918707 431.98074,63.718267 432.46094,64.304199 C 432.99474,64.997563 433.56847,65.451257 434.18213,65.665283 C 434.79568,65.879316 435.55577,65.986331 436.4624,65.986328 L 436.4624,68.945312 L 414.0625,68.945312 L 414.0625,65.905762 C 416.24834,65.852054 417.91459,65.371911 419.06128,64.465332 C 420.20789,63.558762 420.78121,62.332363 420.78125,60.786133 C 420.78121,60.73243 420.78121,60.678719 420.78125,60.625 C 420.78121,60.571297 420.78121,60.5184 420.78125,60.466309 C 420.7275,60.038258 420.64734,59.597584 420.54077,59.144287 C 420.43412,58.69101 420.24735,58.144542 419.98047,57.504883 L 415.90088,47.666016 L 394.70215,47.666016 L 391.90186,55.185547 C 391.79442,55.506198 391.70083,55.799574 391.62109,56.065674 C 391.54133,56.3318 391.44856,56.59832 391.34277,56.865234 C 391.23534,57.291678 391.15477,57.731538 391.10107,58.184814 C 391.04735,58.638113 391.0205,59.05193 391.02051,59.42627 C 391.0205,61.398933 391.59382,62.932135 392.74048,64.025879 C 393.88711,65.119633 395.58104,65.773115 397.82227,65.986328 L 397.82227,68.945312 L 379.42139,68.945312 L 379.42139,65.905762 C 379.52881,65.905765 379.64884,65.892337 379.78149,65.865479 C 379.91414,65.838626 380.03418,65.825198 380.1416,65.825195 C 380.56803,65.719404 380.94116,65.599775 381.26099,65.466309 C 381.58081,65.332849 381.87418,65.159509 382.14111,64.946289 C 382.24853,64.892582 382.35555,64.82585 382.46216,64.746094 C 382.56876,64.666345 382.67496,64.572758 382.78076,64.465332 C 382.88818,64.411626 382.98177,64.344894 383.06152,64.265137 C 383.14127,64.185389 383.23486,64.091802 383.34229,63.984375 C 383.5555,63.824875 383.75529,63.638514 383.94165,63.425293 C 384.12801,63.212083 384.30094,62.972011 384.46045,62.705078 C 384.8885,62.119147 385.3422,61.265877 385.82153,60.145264 C 386.30086,59.024668 386.99381,57.371431 387.90039,55.185547 L 403.26172,16.945801 L 401.98242,14.384766 L 401.98242,14.384766 z M 414.0625,43.344727 L 405.02197,21.665039 L 396.38184,43.344727 L 414.0625,43.344727 L 414.0625,43.344727 z"
         style="fill:#7f7f7f;fill-opacity:1;stroke:none;stroke-opacity:1;display:inline;enable-background:new"
         id="path6826" />
      <path
         d="M 276.92099,9.384 L 447.46199,9.384 L 447.46199,79.944997 L 276.92099,79.944997 L 276.92099,9.384 z M 284.92139,18.384766 L 284.92139,18.384766 L 285.00195,21.666016 C 286.38867,21.771861 287.53532,21.98467 288.44189,22.304443 C 289.34847,22.624318 290.20133,23.078012 291.00049,23.665527 C 291.21533,23.825082 291.41593,23.998421 291.60229,24.185547 C 291.78865,24.37277 291.98844,24.54611 292.20166,24.705566 L 295.88086,28.226074 L 296.28125,57.664551 L 296.28125,61.346191 C 296.28124,64.279143 295.60131,66.452399 294.24146,67.865967 C 292.88158,69.279545 290.76122,69.959476 287.88037,69.905762 L 286.68164,69.905762 L 286.68164,72.945312 L 309.48193,72.945312 L 309.48193,69.905762 L 308.76172,69.986328 C 307.26756,69.986331 305.86741,69.692956 304.56128,69.106201 C 303.25511,68.519454 302.25535,67.719081 301.56201,66.705078 C 301.50828,66.651373 301.468,66.598069 301.44116,66.545166 C 301.41429,66.492275 301.37482,66.438971 301.32275,66.385254 C 300.78888,65.586108 300.42837,64.612801 300.24121,63.465332 C 300.05402,62.317882 299.93439,60.38429 299.88232,57.664551 L 299.24268,31.824707 L 332.36035,65.904297 C 333.3743,66.9183 334.42817,68.078781 335.52197,69.385742 C 336.61567,70.692711 337.72244,72.092449 338.84229,73.584961 L 344.04248,73.584961 C 344.04242,73.371744 344.04242,73.184977 344.04248,73.024658 C 344.04242,72.864339 344.01557,72.704427 343.96191,72.544922 C 343.96185,72.277995 343.935,71.971192 343.88135,71.624512 C 343.82758,71.277834 343.74782,70.811526 343.64209,70.225586 L 342.92188,66.624512 C 342.86811,66.251797 342.80137,65.892097 342.72168,65.54541 C 342.64187,65.198738 342.60199,64.86508 342.60205,64.544434 C 342.49457,63.799 342.41441,63.012868 342.36157,62.186035 C 342.30862,61.359224 342.25531,60.305351 342.20166,59.024414 C 342.2016,58.705418 342.18817,58.359145 342.16138,57.985596 C 342.13446,57.612076 342.12104,57.212093 342.12109,56.785645 L 341.64258,33.665527 L 341.64258,33.265137 C 341.64252,29.531456 342.37576,26.637986 343.84229,24.584717 C 345.3087,22.531545 347.34808,21.478079 349.96045,21.424316 L 350.20215,21.424316 L 350.20215,18.384766 L 328.76172,18.384766 L 328.76172,21.424316 L 329.16211,21.504883 C 330.65458,21.504934 332.02746,21.784882 333.28076,22.344727 C 334.53397,22.904672 335.50727,23.718474 336.20068,24.786133 C 336.84191,25.744839 337.32246,26.930954 337.64233,28.344482 C 337.9621,29.7581 338.14887,31.53178 338.20264,33.665527 L 338.84229,59.825195 L 297.96094,18.384766 L 284.92139,18.384766 z M 366.50098,18.384766 L 366.50098,18.384766 L 365.70264,21.104492 L 365.94189,21.185059 C 367.4881,21.18511 368.80809,21.731985 369.90186,22.825684 C 370.99559,23.919483 371.54246,25.266324 371.54248,26.866211 C 371.54246,27.398483 371.4623,28.078007 371.302,28.904785 C 371.14166,29.731651 370.92804,30.652061 370.66113,31.666016 L 362.82178,59.744629 C 362.55484,60.651217 362.3282,61.438163 362.14185,62.105469 C 361.95548,62.772797 361.75569,63.372568 361.54248,63.904785 C 361.32926,64.438648 361.11563,64.905363 360.90161,65.304932 C 360.68757,65.704516 360.44791,66.091478 360.18262,66.46582 C 360.07519,66.571621 359.99462,66.664801 359.94092,66.745361 C 359.8872,66.825934 359.80745,66.919114 359.70166,67.024902 C 359.27522,67.45134 358.78206,67.878179 358.22217,68.30542 C 357.66227,68.73267 357.08854,69.105798 356.50098,69.424805 C 355.96875,69.691735 355.43571,69.905358 354.90186,70.065674 C 354.368,70.225996 353.91471,70.2793 353.54199,70.225586 L 353.22217,70.225586 L 352.42139,72.945312 L 375.46094,72.945312 L 376.18115,70.225586 L 375.86133,70.306152 C 374.20766,70.306155 372.74078,69.759281 371.46069,68.665527 C 370.18056,67.571783 369.54051,66.278652 369.54053,64.786133 C 369.54051,64.359709 369.62067,63.786386 369.78101,63.066162 C 369.94131,62.345958 370.23468,61.21274 370.66113,59.666504 L 378.42236,31.744141 C 378.68926,30.785524 378.91591,29.972536 379.10229,29.305176 C 379.28863,28.637902 379.48842,28.064986 379.70166,27.586426 C 379.91485,27.052618 380.11464,26.598923 380.30103,26.225342 C 380.48736,25.851854 380.74086,25.478726 381.06152,25.105957 C 381.11521,24.998583 381.18194,24.891568 381.26172,24.784912 C 381.34144,24.678352 381.43503,24.572151 381.54248,24.466309 C 381.91517,24.038298 382.36805,23.62448 382.90112,23.224854 C 383.43413,22.825327 383.96758,22.46522 384.50146,22.144531 C 385.03529,21.877655 385.54228,21.651012 386.02246,21.4646 C 386.50257,21.278291 386.929,21.158255 387.30176,21.104492 L 387.54102,21.104492 L 388.26123,18.384766 L 366.50098,18.384766 z M 404.98242,18.384766 L 404.98242,18.384766 L 406.26172,20.945801 L 390.90039,59.185547 C 389.99381,61.371431 389.30086,63.024668 388.82153,64.145264 C 388.3422,65.265877 387.8885,66.119147 387.46045,66.705078 C 387.30094,66.972011 387.12801,67.212083 386.94165,67.425293 C 386.75529,67.638514 386.5555,67.824875 386.34229,67.984375 C 386.23486,68.091802 386.14127,68.185389 386.06152,68.265137 C 385.98177,68.344894 385.88818,68.411626 385.78076,68.465332 C 385.67496,68.572758 385.56876,68.666345 385.46216,68.746094 C 385.35555,68.82585 385.24853,68.892582 385.14111,68.946289 C 384.87418,69.159509 384.58081,69.332849 384.26099,69.466309 C 383.94116,69.599775 383.56803,69.719404 383.1416,69.825195 C 383.03418,69.825198 382.91414,69.838626 382.78149,69.865479 C 382.64884,69.892337 382.52881,69.905765 382.42139,69.905762 L 382.42139,72.945312 L 400.82227,72.945312 L 400.82227,69.986328 C 398.58104,69.773115 396.88711,69.119633 395.74048,68.025879 C 394.59382,66.932135 394.0205,65.398933 394.02051,63.42627 C 394.0205,63.05193 394.04735,62.638113 394.10107,62.184814 C 394.15477,61.731538 394.23534,61.291678 394.34277,60.865234 C 394.44856,60.59832 394.54133,60.3318 394.62109,60.065674 C 394.70083,59.799574 394.79442,59.506198 394.90186,59.185547 L 397.70215,51.666016 L 418.90088,51.666016 L 422.98047,61.504883 C 423.24735,62.144542 423.43412,62.69101 423.54077,63.144287 C 423.64734,63.597584 423.7275,64.038258 423.78125,64.466309 C 423.78121,64.5184 423.78121,64.571297 423.78125,64.625 C 423.78121,64.678719 423.78121,64.73243 423.78125,64.786133 C 423.78121,66.332363 423.20789,67.558762 422.06128,68.465332 C 420.91459,69.371911 419.24834,69.852054 417.0625,69.905762 L 417.0625,72.945312 L 439.4624,72.945312 L 439.4624,69.986328 C 438.55577,69.986331 437.79568,69.879316 437.18213,69.665283 C 436.56847,69.451257 435.99474,68.997563 435.46094,68.304199 C 434.98074,67.718267 434.50101,66.918707 434.02173,65.905518 C 433.54235,64.892342 432.956,63.558929 432.2627,61.905273 L 413.62256,18.384766 L 404.98242,18.384766 z M 417.0625,47.344727 L 417.0625,47.344727 L 399.38184,47.344727 L 408.02197,25.665039 L 417.0625,47.344727 z"
         style="fill:#ffffff;fill-opacity:1;stroke:none;stroke-opacity:1;display:inline;enable-background:new"
         id="path6992" />
    </g>
  </g>
  <g
     inkscape:groupmode="layer"
     id="layer8"
     inkscape:label="Path for &quot;NIA&quot; text"
     style="display:inline"
     sodipodi:insensitive="true">
    <path
       id="path2900"
       style="font-size:80px;font-style:normal;font-weight:normal;fill:#000000;fill-opacity:1;stroke:none;stroke-width:1px;stroke-linecap:butt;stroke-linejoin:miter;stroke-opacity:1;display:inline;enable-background:new"
       d="M 281.92139,14.384766 L 294.96094,14.384766 L 335.84229,55.825195 L 335.20264,29.665527 C 335.14887,27.53178 334.9621,25.7581 334.64233,24.344482 C 334.32246,22.930954 333.84191,21.744839 333.20068,20.786133 C 332.50727,19.718474 331.53397,18.904672 330.28076,18.344727 C 329.02746,17.784882 327.65458,17.504934 326.16211,17.504883 L 325.76172,17.424316 L 325.76172,14.384766 L 347.20215,14.384766 L 347.20215,17.424316 L 346.96045,17.424316 C 344.34808,17.478079 342.3087,18.531545 340.84229,20.584717 C 339.37576,22.637986 338.64252,25.531456 338.64258,29.265137 L 338.64258,29.665527 L 339.12109,52.785645 C 339.12104,53.212093 339.13446,53.612076 339.16138,53.985596 C 339.18817,54.359145 339.2016,54.705418 339.20166,55.024414 C 339.25531,56.305351 339.30862,57.359224 339.36157,58.186035 C 339.41441,59.012868 339.49457,59.799 339.60205,60.544434 C 339.60199,60.86508 339.64187,61.198738 339.72168,61.54541 C 339.80137,61.892097 339.86811,62.251797 339.92188,62.624512 L 340.64209,66.225586 C 340.74782,66.811526 340.82758,67.277834 340.88135,67.624512 C 340.935,67.971192 340.96185,68.277995 340.96191,68.544922 C 341.01557,68.704427 341.04242,68.864339 341.04248,69.024658 C 341.04242,69.184977 341.04242,69.371744 341.04248,69.584961 L 335.84229,69.584961 C 334.72244,68.092449 333.61567,66.692711 332.52197,65.385742 C 331.42817,64.078781 330.3743,62.9183 329.36035,61.904297 L 296.24268,27.824707 L 296.88232,53.664551 C 296.93439,56.38429 297.05402,58.317882 297.24121,59.465332 C 297.42837,60.612801 297.78888,61.586108 298.32275,62.385254 C 298.37482,62.438971 298.41429,62.492275 298.44116,62.545166 C 298.468,62.598069 298.50828,62.651373 298.56201,62.705078 C 299.25535,63.719081 300.25511,64.519454 301.56128,65.106201 C 302.86741,65.692956 304.26756,65.986331 305.76172,65.986328 L 306.48193,65.905762 L 306.48193,68.945312 L 283.68164,68.945312 L 283.68164,65.905762 L 284.88037,65.905762 C 287.76122,65.959476 289.88158,65.279545 291.24146,63.865967 C 292.60131,62.452399 293.28124,60.279143 293.28125,57.346191 L 293.28125,53.664551 L 292.88086,24.226074 L 289.20166,20.705566 C 288.98844,20.54611 288.78865,20.37277 288.60229,20.185547 C 288.41593,19.998421 288.21533,19.825082 288.00049,19.665527 C 287.20133,19.078012 286.34847,18.624318 285.44189,18.304443 C 284.53532,17.98467 283.38867,17.771861 282.00195,17.666016 L 281.92139,14.384766 L 281.92139,14.384766 z M 363.50098,14.384766 L 385.26123,14.384766 L 384.54102,17.104492 L 384.30176,17.104492 C 383.929,17.158255 383.50257,17.278291 383.02246,17.4646 C 382.54228,17.651012 382.03529,17.877655 381.50146,18.144531 C 380.96758,18.46522 380.43413,18.825327 379.90112,19.224854 C 379.36805,19.62448 378.91517,20.038298 378.54248,20.466309 C 378.43503,20.572151 378.34144,20.678352 378.26172,20.784912 C 378.18194,20.891568 378.11521,20.998583 378.06152,21.105957 C 377.74086,21.478726 377.48736,21.851854 377.30103,22.225342 C 377.11464,22.598923 376.91485,23.052618 376.70166,23.586426 C 376.48842,24.064986 376.28863,24.637902 376.10229,25.305176 C 375.91591,25.972536 375.68926,26.785524 375.42236,27.744141 L 367.66113,55.666504 C 367.23468,57.21274 366.94131,58.345958 366.78101,59.066162 C 366.62067,59.786386 366.54051,60.359709 366.54053,60.786133 C 366.54051,62.278652 367.18056,63.571783 368.46069,64.665527 C 369.74078,65.759281 371.20766,66.306155 372.86133,66.306152 L 373.18115,66.225586 L 372.46094,68.945312 L 349.42139,68.945312 L 350.22217,66.225586 L 350.54199,66.225586 C 350.91471,66.2793 351.368,66.225996 351.90186,66.065674 C 352.43571,65.905358 352.96875,65.691735 353.50098,65.424805 C 354.08854,65.105798 354.66227,64.73267 355.22217,64.30542 C 355.78206,63.878179 356.27522,63.45134 356.70166,63.024902 C 356.80745,62.919114 356.8872,62.825934 356.94092,62.745361 C 356.99462,62.664801 357.07519,62.571621 357.18262,62.46582 C 357.44791,62.091478 357.68757,61.704516 357.90161,61.304932 C 358.11563,60.905363 358.32926,60.438648 358.54248,59.904785 C 358.75569,59.372568 358.95548,58.772797 359.14185,58.105469 C 359.3282,57.438163 359.55484,56.651217 359.82178,55.744629 L 367.66113,27.666016 C 367.92804,26.652061 368.14166,25.731651 368.302,24.904785 C 368.4623,24.078007 368.54246,23.398483 368.54248,22.866211 C 368.54246,21.266324 367.99559,19.919483 366.90186,18.825684 C 365.80809,17.731985 364.4881,17.18511 362.94189,17.185059 L 362.70264,17.104492 L 363.50098,14.384766 L 363.50098,14.384766 z M 401.98242,14.384766 L 410.62256,14.384766 L 429.2627,57.905273 C 429.956,59.558929 430.54235,60.892342 431.02173,61.905518 C 431.50101,62.918707 431.98074,63.718267 432.46094,64.304199 C 432.99474,64.997563 433.56847,65.451257 434.18213,65.665283 C 434.79568,65.879316 435.55577,65.986331 436.4624,65.986328 L 436.4624,68.945312 L 414.0625,68.945312 L 414.0625,65.905762 C 416.24834,65.852054 417.91459,65.371911 419.06128,64.465332 C 420.20789,63.558762 420.78121,62.332363 420.78125,60.786133 C 420.78121,60.73243 420.78121,60.678719 420.78125,60.625 C 420.78121,60.571297 420.78121,60.5184 420.78125,60.466309 C 420.7275,60.038258 420.64734,59.597584 420.54077,59.144287 C 420.43412,58.69101 420.24735,58.144542 419.98047,57.504883 L 415.90088,47.666016 L 394.70215,47.666016 L 391.90186,55.185547 C 391.79442,55.506198 391.70083,55.799574 391.62109,56.065674 C 391.54133,56.3318 391.44856,56.59832 391.34277,56.865234 C 391.23534,57.291678 391.15477,57.731538 391.10107,58.184814 C 391.04735,58.638113 391.0205,59.05193 391.02051,59.42627 C 391.0205,61.398933 391.59382,62.932135 392.74048,64.025879 C 393.88711,65.119633 395.58104,65.773115 397.82227,65.986328 L 397.82227,68.945312 L 379.42139,68.945312 L 379.42139,65.905762 C 379.52881,65.905765 379.64884,65.892337 379.78149,65.865479 C 379.91414,65.838626 380.03418,65.825198 380.1416,65.825195 C 380.56803,65.719404 380.94116,65.599775 381.26099,65.466309 C 381.58081,65.332849 381.87418,65.159509 382.14111,64.946289 C 382.24853,64.892582 382.35555,64.82585 382.46216,64.746094 C 382.56876,64.666345 382.67496,64.572758 382.78076,64.465332 C 382.88818,64.411626 382.98177,64.344894 383.06152,64.265137 C 383.14127,64.185389 383.23486,64.091802 383.34229,63.984375 C 383.5555,63.824875 383.75529,63.638514 383.94165,63.425293 C 384.12801,63.212083 384.30094,62.972011 384.46045,62.705078 C 384.8885,62.119147 385.3422,61.265877 385.82153,60.145264 C 386.30086,59.024668 386.99381,57.371431 387.90039,55.185547 L 403.26172,16.945801 L 401.98242,14.384766 L 401.98242,14.384766 z M 414.0625,43.344727 L 405.02197,21.665039 L 396.38184,43.344727 L 414.0625,43.344727 L 414.0625,43.344727 z" />
  </g>
</svg>
