<?xml version="1.0" encoding="UTF-8" standalone="no"?>
<!-- Created with Inkscape (http://www.inkscape.org/) -->

<svg
   width="1160.4994"
   height="141.62109"
   viewBox="0 0 1160.4994 141.62109"
   version="1.1"
   id="svg5"
   inkscape:version="1.1.1 (3bf5ae0d25, 2021-09-20)"
   sodipodi:docname="rocketnia-com-logo-3.svg"
   xmlns:inkscape="http://www.inkscape.org/namespaces/inkscape"
   xmlns:sodipodi="http://sodipodi.sourceforge.net/DTD/sodipodi-0.dtd"
   xmlns="http://www.w3.org/2000/svg"
   xmlns:svg="http://www.w3.org/2000/svg">
  <sodipodi:namedview
     id="namedview7"
     pagecolor="#ffffff"
     bordercolor="#666666"
     borderopacity="1.0"
     inkscape:pageshadow="2"
     inkscape:pageopacity="0.0"
     inkscape:pagecheckerboard="0"
     inkscape:document-units="px"
     showgrid="false"
     inkscape:zoom="0.70894821"
     inkscape:cx="576.91097"
     inkscape:cy="76.169175"
     inkscape:window-width="1920"
     inkscape:window-height="974"
     inkscape:window-x="-11"
     inkscape:window-y="-11"
     inkscape:window-maximized="1"
     inkscape:current-layer="g78430" />
  <defs
     id="defs2">
    <inkscape:path-effect
       effect="offset"
       id="path-effect96514"
       is_visible="true"
       lpeversion="1"
       linejoin_type="miter"
       unit="mm"
       offset="1.4"
       miter_limit="4"
       attempt_force_join="false"
       update_on_knot_move="true" />
    <filter
       style="color-interpolation-filters:sRGB;"
       inkscape:label="Diffuse Light"
       id="filter14139"
       x="-0.0082695521"
       y="-0.04945544"
       width="1.0165391"
       height="1.0989109">
      <feGaussianBlur
         in="SourceGraphic"
         stdDeviation="2.69697"
         result="blur"
         id="feGaussianBlur14129" />
      <feDiffuseLighting
         diffuseConstant="1"
         surfaceScale="10"
         lighting-color="rgb(239,211,227)"
         result="diffuse"
         id="feDiffuseLighting14133">
        <feDistantLight
           elevation="24"
           azimuth="206"
           id="feDistantLight14131" />
      </feDiffuseLighting>
      <feComposite
         in="diffuse"
         in2="diffuse"
         operator="arithmetic"
         k1="1"
         result="composite1"
         id="feComposite14135" />
      <feComposite
         in="composite1"
         in2="SourceGraphic"
         k1="1"
         operator="arithmetic"
         k3="1"
         result="composite2"
         id="feComposite14137" />
    </filter>
  </defs>
  <g
     inkscape:label="Rocketnia.com text"
     inkscape:groupmode="layer"
     id="layer1"
     style="display:none"
     sodipodi:insensitive="true"
     transform="translate(-5.5136719,-1.7539062)">
    <text
       xml:space="preserve"
       style="font-style:normal;font-variant:normal;font-weight:900;font-stretch:normal;font-size:160px;line-height:1.25;font-family:'Liera Sans';-inkscape-font-specification:'Liera Sans, Heavy';font-variant-ligatures:normal;font-variant-caps:normal;font-variant-numeric:normal;font-variant-east-asian:normal;fill:#000000;fill-opacity:1;stroke:none"
       x="-1.9947962"
       y="136.64415"
       id="text1287"><tspan
         sodipodi:role="line"
         id="tspan1285"
         x="-1.9947962"
         y="136.64415"
         style="font-style:normal;font-variant:normal;font-weight:900;font-stretch:normal;font-size:160px;font-family:'Liera Sans';-inkscape-font-specification:'Liera Sans, Heavy';font-variant-ligatures:normal;font-variant-caps:normal;font-variant-numeric:normal;font-variant-east-asian:normal">Rocketnia<tspan
   style="font-style:normal;font-variant:normal;font-weight:300;font-stretch:normal;font-size:160px;font-family:'Liera Sans';-inkscape-font-specification:'Liera Sans, Light';font-variant-ligatures:normal;font-variant-caps:normal;font-variant-numeric:normal;font-variant-east-asian:normal"
   id="tspan27825">.com</tspan></tspan></text>
  </g>
  <g
     inkscape:label="Rocketnia.com path"
     inkscape:groupmode="layer"
     id="g69241"
     style="display:none"
     sodipodi:insensitive="true"
     transform="translate(-5.5136719,-1.7539062)">
    <path
       d="m 40.245204,136.64415 h -29.44 v -117.76 h 10.24 q 6.24,0 14.4,-0.48 8.32,-0.64 20.96,-0.64 7.84,0 15.68,1.6 7.84,1.6 14.08,5.92 6.24,4.32 10.24,11.52 3.999996,7.2 3.999996,18.24 0,13.6 -5.119996,21.76 -5.12,8 -13.6,12.16 3.52,2.88 6.08,7.36 2.72,4.48 5.12,9.92 2.56,5.28 4.96,11.04 2.559996,5.6 5.439996,10.88 1.28,2.08 2.4,4.16 1.28,2.08 2.56,4.32 H 75.765204 q -0.96,-1.28 -1.76,-2.88 -0.8,-1.76 -2.56,-5.44 -2.24,-5.28 -4.16,-11.04 -1.76,-5.76 -3.84,-10.72 -1.92,-4.96 -4.32,-8.16 -2.4,-3.36 -5.92,-3.68 -2.56,0.16 -5.76,0.32 -3.04,0 -7.2,0 z m 0,-62.08 q 1.28,0.16 3.04,0.32 1.92,0.16 4,0.32 2.08,0 4,0 2.08,0 3.36,0 9.12,0 13.12,-5.6 4.16,-5.76 4.16,-14.08 0,-3.36 -0.8,-6.4 -0.8,-3.04 -2.88,-5.44 -2.08,-2.4 -5.92,-3.84 -3.68,-1.44 -9.44,-1.44 -3.2,0 -6.56,0.32 -3.36,0.32 -6.08,1.12 z"
       id="path78346"
       style="font-weight:900;font-size:160px;line-height:1.25;font-family:'Liera Sans';-inkscape-font-specification:'Liera Sans, Heavy'" />
    <path
       d="m 157.68472,137.92415 q -12.16,0 -20.64,-3.84 -8.48,-3.84 -13.76,-10.24 -5.28,-6.56 -7.52,-15.04 -2.24,-8.64 -2.08,-18.08 0.16,-10.56 3.52,-18.56 3.36,-8.16 9.44,-13.6 6.08,-5.6 14.24,-8.32 8.32,-2.88 18.4,-2.88 12.16,0 20.64,3.84 8.48,3.68 13.6,10.08 5.28,6.4 7.52,15.04 2.24,8.48 2.08,18.08 -0.16,10.56 -3.68,18.72 -3.36,8.16 -9.44,13.6 -5.92,5.44 -14.24,8.32 -8.16,2.88 -18.08,2.88 z m 0.64,-19.84 q 8.48,0 11.68,-6.08 3.36,-6.24 3.36,-18.88 0,-5.44 -0.8,-10.08 -0.64,-4.64 -2.4,-8.16 -1.6,-3.68 -4.48,-5.76 -2.72,-2.08 -6.88,-2.08 -8.8,0 -12.16,6.4 -3.2,6.24 -3.2,18.24 0,5.28 0.64,10.24 0.8,4.8 2.56,8.48 1.76,3.52 4.48,5.6 2.88,2.08 7.2,2.08 z"
       id="path78348"
       style="font-weight:900;font-size:160px;line-height:1.25;font-family:'Liera Sans';-inkscape-font-specification:'Liera Sans, Heavy'" />
    <path
       d="m 211.7646,93.44415 q 0,-9.76 2.56,-18.08 2.56,-8.48 8,-14.72 5.6,-6.24 14.08,-9.76 8.48,-3.52 20,-3.52 8.96,0 15.52,1.28 6.56,1.28 8.8,2.88 l -3.04,21.6 q -2.72,-1.44 -6.88,-2.56 -4.16,-1.12 -10.4,-1.12 -3.52,0 -7.04,1.12 -3.36,1.12 -6.24,3.68 -2.72,2.56 -4.48,6.72 -1.76,4.16 -1.92,10.4 -0.16,6.72 1.28,11.52 1.6,4.64 4.32,7.52 2.72,2.88 6.4,4.16 3.68,1.28 7.84,1.28 5.44,0 10.24,-0.96 4.96,-0.96 7.68,-2.08 l 3.68,17.92 q -1.92,1.92 -4.8,3.36 -2.88,1.28 -6.72,2.24 -3.68,0.8 -7.84,1.12 -4.16,0.48 -8.48,0.48 -10.88,0 -18.88,-3.36 -8,-3.52 -13.44,-9.44 -5.28,-5.92 -7.84,-14.08 -2.4,-8.16 -2.4,-17.6 z"
       id="path78350"
       style="font-weight:900;font-size:160px;line-height:1.25;font-family:'Liera Sans';-inkscape-font-specification:'Liera Sans, Heavy'" />
    <path
       d="m 384.08438,48.48415 -31.52,33.76 33.6,54.4 h -31.84 l -20.32,-34.24 -8.48,9.28 0.16,10.4 v 14.56 h -28.32 V 8.1641498 h 28.32 V 56.80415 l -0.96,24.16 26.72,-32.48 z"
       id="path78352"
       style="font-weight:900;font-size:160px;line-height:1.25;font-family:'Liera Sans';-inkscape-font-specification:'Liera Sans, Heavy'" />
    <path
       d="m 432.72414,137.92415 q -21.44,0 -32.64,-12.16 -11.2,-12.16 -11.2,-33.6 0,-9.76 2.88,-17.92 2.88,-8.16 8.48,-14.08 5.76,-6.08 13.92,-9.44 8.32,-3.36 18.88,-3.36 6.88,0 13.6,1.6 6.72,1.44 11.84,5.6 5.12,4 8.16,11.04 3.2,6.88 3.36,17.44 0,4.8 -0.32,9.12 -0.32,4.32 -0.48,7.04 h -51.84 q 0.96,10.08 6.56,14.24 5.76,4.16 15.36,4.16 3.2,0 6.72,-0.32 3.68,-0.48 6.88,-1.12 3.2,-0.64 5.92,-1.44 2.72,-0.8 4.32,-1.6 l 4.48,15.36 q -4.48,3.52 -13.76,6.56 -9.28,2.88 -21.12,2.88 z m 10.72,-52.96 q 0.64,-9.6 -1.92,-14.4 -2.56,-4.96 -9.12,-4.96 -6.24,0 -9.92,4.32 -3.68,4.16 -4.8,15.04 z"
       id="path78354"
       style="font-weight:900;font-size:160px;line-height:1.25;font-family:'Liera Sans';-inkscape-font-specification:'Liera Sans, Heavy'" />
    <path
       d="m 516.24386,137.92415 q -14.24,0 -20,-7.04 -5.76,-7.2 -5.76,-21.6 v -42.08 h -10.08 v -15.2 q 5.76,-1.76 9.6,-3.36 3.84,-1.76 5.6,-5.44 1.28,-2.72 2.88,-6.88 1.76,-4.32 3.2,-8 h 17.44 v 20.16 h 22.88 v 18.72 h -22.88 v 31.36 q 0,6.24 0.48,9.92 0.48,3.52 1.6,5.28 1.28,1.76 3.2,2.24 2.08,0.48 4.96,0.48 2.88,0 6.88,-1.12 4,-1.12 6.08,-2.4 l 3.36,15.84 q -1.6,1.6 -4.64,3.2 -2.88,1.6 -6.88,2.88 -3.84,1.28 -8.48,2.08 -4.64,0.96 -9.44,0.96 z"
       id="path78356"
       style="font-weight:900;font-size:160px;line-height:1.25;font-family:'Liera Sans';-inkscape-font-specification:'Liera Sans, Heavy'" />
    <path
       d="m 561.04376,136.64415 v -88.16 h 26.24 l 0.64,10.24 q 1.92,-2.08 4.96,-4.16 3.2,-2.08 7.04,-3.68 3.84,-1.6 8,-2.56 4.32,-1.12 8.8,-1.12 6.56,-0.16 11.68,1.6 5.12,1.6 8.48,5.76 3.36,4 4.96,10.56 1.76,6.4 1.76,16 v 55.52 h -28.64 v -50.4 q 0,-9.6 -2.56,-13.28 -2.4,-3.68 -8.64,-3.36 -3.2,0 -7.2,1.44 -4,1.44 -7.04,4.32 v 61.28 z"
       id="path78358"
       style="font-weight:900;font-size:160px;line-height:1.25;font-family:'Liera Sans';-inkscape-font-specification:'Liera Sans, Heavy'" />
    <path
       d="m 662.80352,136.64415 z m 2.88,0 v -88.16 h 28.64 v 88.16 z m 12.96,-98.88 q -7.04,0 -11.52,-4 -4.32,-4.16 -4.32,-10.72 0,-3.36 1.28,-6.08 1.44,-2.88 3.68,-5.12 2.4,-2.2400002 5.6,-3.5200002 3.2,-1.28 6.72,-1.28 7.04,0 11.36,4.1600002 4.32,4 4.32,10.56 0,3.36 -1.44,6.24 -1.28,2.88 -3.68,5.12 -2.24,2.08 -5.28,3.36 -3.04,1.28 -6.72,1.28 z"
       id="path78360"
       style="font-weight:900;font-size:160px;line-height:1.25;font-family:'Liera Sans';-inkscape-font-specification:'Liera Sans, Heavy'" />
    <path
       d="m 741.84329,137.92415 q -6.56,0 -11.84,-2.08 -5.28,-2.08 -9.12,-5.76 -3.68,-3.84 -5.76,-8.96 -1.92,-5.28 -1.92,-11.36 0,-6.56 2.4,-11.04 2.56,-4.48 6.72,-7.52 4.32,-3.2 9.6,-4.96 5.44,-1.92 11.2,-2.88 5.76,-0.96 11.52,-1.12 5.76,-0.32 10.24,-0.32 v -5.12 q 0,-5.92 -3.2,-7.68 -3.04,-1.92 -9.12,-1.92 -3.84,0 -8,0.48 -4,0.48 -8,1.28 -4,0.8 -7.68,1.92 -3.68,1.12 -6.56,2.56 l -5.92,-16.8 q 2.4,-1.44 6.56,-3.2 4.32,-1.76 9.44,-3.04 5.12,-1.44 11.04,-2.4 5.92,-0.96 11.84,-0.96 10.4,0 17.6,1.76 7.2,1.6 11.84,5.6 4.64,4 6.72,10.4 2.08,6.24 2.08,15.52 v 56.32 h -27.2 v -7.52 q -3.68,3.2 -9.6,6.08 -5.92,2.72 -14.88,2.72 z m 23.04,-42.08 q -4,0.16 -8.64,0.8 -4.48,0.64 -6.88,1.76 -2.56,1.12 -4.64,3.2 -2.08,1.92 -2.08,6.72 0,6.24 3.36,9.12 3.36,2.72 7.84,2.72 3.52,0 6.56,-1.12 3.2,-1.28 4.48,-2.56 z"
       id="path78362"
       style="font-weight:900;font-size:160px;line-height:1.25;font-family:'Liera Sans';-inkscape-font-specification:'Liera Sans, Heavy'" />
    <path
       d="m 827.44321,138.08415 q -3.68,0 -6.4,-2.88 -2.56,-2.88 -2.72,-7.2 -0.16,-4.8 2.88,-8.16 3.2,-3.36 7.04,-3.36 4.48,0 6.72,3.04 2.4,2.88 2.56,7.04 0.16,4.96 -3.04,8.32 -3.04,3.2 -7.04,3.2 z"
       style="font-weight:300;font-size:160px;line-height:1.25;font-family:'Liera Sans';-inkscape-font-specification:'Liera Sans, Light'"
       id="path78364" />
    <path
       d="m 856.08302,93.92415 q 0,-10.08 2.56,-18.56 2.72,-8.64 8,-14.72 5.28,-6.24 13.12,-9.76 7.84,-3.52 17.92,-3.52 8,0 13.6,1.44 5.76,1.28 8.16,2.88 l -2.4,11.04 q -3.36,-2.4 -8.48,-3.52 -4.96,-1.28 -11.36,-1.28 -5.28,0 -10.24,2.08 -4.96,1.92 -8.8,6.08 -3.84,4 -6.24,10.24 -2.24,6.24 -2.56,14.88 -0.16,8.96 1.76,15.84 2.08,6.72 5.76,11.36 3.84,4.48 8.8,6.88 5.12,2.24 10.72,2.24 7.52,0 13.28,-2.08 5.92,-2.08 8.8,-3.84 l 2.56,7.84 q -4,3.84 -11.2,6.24 -7.04,2.24 -15.68,2.24 -9.12,0 -16.16,-3.36 -7.04,-3.36 -12,-9.28 -4.96,-5.92 -7.52,-13.92 -2.4,-8 -2.4,-17.44 z"
       style="font-weight:300;font-size:160px;line-height:1.25;font-family:'Liera Sans';-inkscape-font-specification:'Liera Sans, Light'"
       id="path78366" />
    <path
       d="m 973.2029,137.92415 q -10.56,0 -17.92,-3.84 -7.36,-3.84 -12.16,-10.24 -4.64,-6.56 -6.72,-15.04 -1.92,-8.64 -1.76,-17.92 0,-10.56 3.2,-18.56 3.2,-8.16 8.48,-13.76 5.44,-5.6 12.64,-8.32 7.36,-2.88 15.84,-2.88 10.4,0 17.76,3.68 7.36,3.68 12,10.08 4.64,6.4 6.72,14.88 2.24,8.48 2.08,17.92 -0.16,10.56 -3.36,18.72 -3.04,8.16 -8.32,13.76 -5.28,5.6 -12.64,8.64 -7.2,2.88 -15.84,2.88 z m 0.32,-9.76 q 12.32,0.16 19.04,-9.12 6.72,-9.44 6.72,-25.76 0,-7.52 -1.44,-14.08 -1.28,-6.56 -4.32,-11.36 -3.04,-4.8 -7.68,-7.68 -4.64,-2.88 -11.2,-2.88 -12.32,-0.32 -19.2,8.64 -6.72,8.8 -6.72,25.12 0,7.36 1.28,14.08 1.44,6.72 4.48,11.84 3.04,4.96 7.68,8 4.8,3.04 11.36,3.2 z"
       style="font-weight:300;font-size:160px;line-height:1.25;font-family:'Liera Sans';-inkscape-font-specification:'Liera Sans, Light'"
       id="path78368" />
    <path
       d="m 1036.5627,136.64415 v -88 h 12.16 v 10.88 q 2.4,-1.92 6.08,-4 3.68,-2.24 7.84,-4 4.32,-1.92 9.12,-3.04 4.8,-1.12 9.12,-1.28 8.48,-0.16 13.76,2.4 5.44,2.56 8.16,9.28 2.56,-1.92 6.08,-4 3.52,-2.08 7.68,-3.68 4.32,-1.76 8.8,-2.88 4.64,-1.12 9.28,-1.12 7.04,0 12,1.76 4.96,1.6 8,5.76 3.2,4.16 4.64,10.88 1.44,6.72 1.44,16.48 v 54.56 h -13.76 v -53.76 q 0,-5.92 -0.64,-10.56 -0.64,-4.8 -2.56,-7.84 -1.76,-3.04 -5.12,-4.48 -3.36,-1.6 -9.12,-1.44 -3.04,0 -6.24,0.96 -3.2,0.8 -6.56,2.08 -3.2,1.28 -6.08,2.88 -2.88,1.44 -5.44,3.2 0.96,5.92 0.96,14.08 v 54.88 h -13.6 v -53.92 q 0,-6.4 -0.64,-11.04 -0.64,-4.64 -2.56,-7.52 -1.92,-3.04 -5.28,-4.32 -3.36,-1.44 -8.64,-1.12 -2.88,0.16 -6.24,0.96 -3.2,0.8 -6.56,2.24 -3.36,1.28 -6.56,3.04 -3.2,1.76 -5.76,3.84 v 67.84 z"
       style="font-weight:300;font-size:160px;line-height:1.25;font-family:'Liera Sans';-inkscape-font-specification:'Liera Sans, Light'"
       id="path78370" />
  </g>
  <g
     inkscape:label="Rocketnia.com outline"
     inkscape:groupmode="layer"
     id="g96168"
     style="display:inline"
     transform="translate(-5.5136719,-1.7539062)"
     sodipodi:insensitive="true">
    <g
       id="g96310"
       inkscape:path-effect="#path-effect96514">
      <path
         d="m 56.404297,12.472656 c -8.505038,0 -15.640187,0.215862 -21.365235,0.65625 l 0.0957,-0.0059 C 29.768492,13.43871 25.077353,13.59375 21.044922,13.59375 H 5.5136719 v 128.3418 H 45.537109 v -41.59961 h 2.041016 l 0.130859,-0.006 c 1.899246,-0.095 3.571368,-0.19152 5.144532,-0.28711 0.439521,0.0794 1.249817,0.43646 1.964843,1.4375 l 0.03711,0.0488 0.03711,0.0488 c 1.242949,1.65727 2.460764,3.90402 3.619141,6.89649 l 0.02539,0.0684 0.0293,0.0684 c 1.310734,3.1256 2.530759,6.52893 3.658203,10.21875 l 0.01953,0.0625 0.02148,0.0645 c 1.321702,3.96511 2.757387,7.77718 4.308594,11.43359 l 0.04687,0.10938 0.05078,0.10742 c 1.170025,2.44641 1.99965,4.20627 2.517578,5.3457 l 0.03906,0.0898 0.04492,0.0879 c 0.657774,1.31555 1.408374,2.55427 2.259765,3.68945 l 1.585938,2.11524 h 44.244142 l -4.52344,-7.91602 c -0.88053,-1.54093 -1.76378,-3.03117 -2.64843,-4.46875 -0.71157,-1.3102 -1.46559,-2.6174 -2.26172,-3.91992 -1.85865,-3.40752 -3.61504,-6.92338 -5.27149,-10.54688 l 0.0723,0.16407 c -1.61777,-3.88266 -3.294271,-7.60696 -5.025395,-11.1836 -1.66202,-3.76253 -3.454464,-7.236078 -5.376953,-10.410153 -0.734132,-1.280333 -1.589376,-2.420158 -2.445313,-3.558594 3.867929,-2.823726 7.192655,-6.272701 9.859376,-10.439453 l 0.01172,-0.01953 0.01367,-0.01953 c 4.094915,-6.526278 5.927735,-14.86266 5.927735,-24.572266 0,-7.989068 -1.45045,-15.022529 -4.66601,-20.810547 C 97.992458,28.768065 94.078659,24.326541 89.177734,20.933594 84.397543,17.62423 79.035974,15.382023 73.144531,14.179688 67.576172,13.043288 61.993466,12.472656 56.404297,12.472656 Z m 35.923828,81.181641 c 0.0093,0.01623 0.02196,0.02867 0.03125,0.04492 l -0.07031,-0.121094 c 0.01406,0.02316 0.02502,0.05298 0.03906,0.07617 z m 5.376953,10.410153 c 0.0068,0.0154 0.01467,0.0275 0.02148,0.043 l -0.08008,-0.17187 c 0.02001,0.0413 0.0386,0.0876 0.05859,0.1289 z M 52.884766,43.695312 c 3.454613,0 5.824815,0.415316 7.513672,1.076172 l 0.03516,0.01367 0.03516,0.01367 c 1.949472,0.731052 3.104946,1.571512 3.779297,2.34961 0.848844,0.979436 1.438304,2.100711 1.759765,3.322265 0.409826,1.557338 0.626954,3.240492 0.626954,5.052735 0,4.609552 -1.137084,8.183948 -3.158204,10.982421 l -0.0078,0.01172 -0.0098,0.0098 c -1.284767,1.798674 -4.089364,3.386719 -8.814453,3.386718 H 51.285156 47.496094 C 46.81936,69.861794 46.187793,69.80817 45.537109,69.755859 V 44.226562 c 0.462903,-0.06381 0.791421,-0.186794 1.291016,-0.234374 2.082866,-0.198368 4.100201,-0.296876 6.056641,-0.296876 z"
         id="path96142"
         style="font-weight:900;font-size:160px;line-height:1.25;font-family:'Liera Sans';-inkscape-font-specification:'Liera Sans, Heavy'"
         inkscape:original-d="m 40.245204,136.64415 h -29.44 v -117.76 h 10.24 q 6.24,0 14.4,-0.48 8.32,-0.64 20.96,-0.64 7.84,0 15.68,1.6 7.84,1.6 14.08,5.92 6.24,4.32 10.24,11.52 3.999996,7.2 3.999996,18.24 0,13.6 -5.119996,21.76 -5.12,8 -13.6,12.16 3.52,2.88 6.08,7.36 2.72,4.48 5.12,9.92 2.56,5.28 4.96,11.04 2.559996,5.6 5.439996,10.88 1.28,2.08 2.4,4.16 1.28,2.08 2.56,4.32 H 75.765204 q -0.96,-1.28 -1.76,-2.88 -0.8,-1.76 -2.56,-5.44 -2.24,-5.28 -4.16,-11.04 -1.76,-5.76 -3.84,-10.72 -1.92,-4.96 -4.32,-8.16 -2.4,-3.36 -5.92,-3.68 -2.56,0.16 -5.76,0.32 -3.04,0 -7.2,0 z m 0,-62.08 q 1.28,0.16 3.04,0.32 1.92,0.16 4,0.32 2.08,0 4,0 2.08,0 3.36,0 9.12,0 13.12,-5.6 4.16,-5.76 4.16,-14.08 0,-3.36 -0.8,-6.4 -0.8,-3.04 -2.88,-5.44 -2.08,-2.4 -5.92,-3.84 -3.68,-1.44 -9.44,-1.44 -3.2,0 -6.56,0.32 -3.36,0.32 -6.08,1.12 z" />
      <path
         d="m 159.28516,42.072266 c -7.21733,0 -13.93393,1.033043 -20.10157,3.164062 -6.11379,2.042112 -11.46141,5.153851 -16.08789,9.40625 -4.69535,4.2075 -8.25285,9.370284 -10.77539,15.490234 -2.54536,6.06755 -3.8112,12.938483 -3.92578,20.501954 -0.11434,6.746037 0.62956,13.247744 2.25,19.498044 l 0.002,0.0117 0.004,0.0117 c 1.68045,6.36166 4.49533,12.01338 8.51367,17.00586 l 0.0195,0.0234 0.0195,0.0254 c 4.09152,4.95942 9.35467,8.83892 15.65821,11.69336 6.49226,2.93988 14.17803,4.31054 22.82422,4.31054 7.12073,0 13.7458,-1.03283 19.82031,-3.17382 6.15864,-2.13323 11.53118,-5.25139 16.05469,-9.40235 4.68493,-4.20047 8.23882,-9.35324 10.75976,-15.46094 2.65457,-6.17106 3.98076,-13.09929 4.09571,-20.685542 0.114,-6.840009 -0.62672,-13.343198 -2.25391,-19.507813 -1.67445,-6.452115 -4.48434,-12.11993 -8.5293,-17.033203 -4.02051,-5.015179 -9.22936,-8.826596 -15.56445,-11.582031 -6.48302,-2.927575 -14.15293,-4.296875 -22.7832,-4.296875 z m 38.34765,15.878906 c 0.008,0.0098 0.0176,0.01758 0.0254,0.02734 l -0.0508,-0.0625 c 0.009,0.01122 0.0162,0.02393 0.0254,0.03516 z m 6.6875,57.226558 c -0.006,0.0139 -0.01,0.0291 -0.0156,0.043 l 0.0332,-0.0801 c -0.005,0.0129 -0.0123,0.0242 -0.0176,0.0371 z m -10.75976,15.46094 c -0.0104,0.009 -0.0189,0.02 -0.0293,0.0293 l 0.0527,-0.0469 c -0.007,0.007 -0.0162,0.011 -0.0234,0.0176 z M 123.0957,54.642578 c 0.008,-0.0068 0.0139,-0.01469 0.0215,-0.02148 l -0.0566,0.05078 c 0.0113,-0.01042 0.0238,-0.01889 0.0351,-0.0293 z m 16.08789,-9.40625 c 0.01,-0.0032 0.0177,-0.0085 0.0273,-0.01172 l -0.0566,0.01953 c 0.009,-0.0033 0.0199,-0.0046 0.0293,-0.0078 z m 19.6211,27.09961 c 1.83621,0 2.95187,0.446078 3.66601,0.992187 l 0.0586,0.04492 0.0586,0.04102 c 1.04396,0.75397 1.99462,1.901093 2.72461,3.580079 l 0.0547,0.130859 0.0644,0.126953 c 0.87351,1.747 1.52873,3.891825 1.89063,6.515625 l 0.0117,0.08789 0.0156,0.08789 c 0.47557,2.758269 0.72461,5.811041 0.72461,9.181641 0,8.074618 -1.01837,13.195108 -2.72852,16.371088 l -0.0117,0.0215 -0.0117,0.0215 c -1.01198,1.92274 -2.92553,3.25391 -6.99805,3.25391 -1.94197,0 -3.20321,-0.46057 -4.04297,-1.05078 -1.05354,-0.82157 -2.0393,-1.99965 -2.88086,-3.66992 -0.9033,-1.90088 -1.6104,-4.18368 -2.07422,-6.91407 -0.38873,-3.042635 -0.58984,-6.197683 -0.58984,-9.474604 0,-7.628424 0.95135,-12.557976 2.60547,-15.798828 1.13714,-2.151085 3.21096,-3.548828 7.46289,-3.548828 z"
         id="path96144"
         style="font-weight:900;font-size:160px;line-height:1.25;font-family:'Liera Sans';-inkscape-font-specification:'Liera Sans, Heavy'"
         inkscape:original-d="m 157.68472,137.92415 q -12.16,0 -20.64,-3.84 -8.48,-3.84 -13.76,-10.24 -5.28,-6.56 -7.52,-15.04 -2.24,-8.64 -2.08,-18.08 0.16,-10.56 3.52,-18.56 3.36,-8.16 9.44,-13.6 6.08,-5.6 14.24,-8.32 8.32,-2.88 18.4,-2.88 12.16,0 20.64,3.84 8.48,3.68 13.6,10.08 5.28,6.4 7.52,15.04 2.24,8.48 2.08,18.08 -0.16,10.56 -3.68,18.72 -3.36,8.16 -9.44,13.6 -5.92,5.44 -14.24,8.32 -8.16,2.88 -18.08,2.88 z m 0.64,-19.84 q 8.48,0 11.68,-6.08 3.36,-6.24 3.36,-18.88 0,-5.44 -0.8,-10.08 -0.64,-4.64 -2.4,-8.16 -1.6,-3.68 -4.48,-5.76 -2.72,-2.08 -6.88,-2.08 -8.8,0 -12.16,6.4 -3.2,6.24 -3.2,18.24 0,5.28 0.64,10.24 0.8,4.8 2.56,8.48 1.76,3.52 4.48,5.6 2.88,2.08 7.2,2.08 z" />
      <path
         d="m 256.4043,42.072266 c -8.21119,0 -15.60535,1.259232 -22.0293,3.925781 -6.33491,2.629583 -11.66366,6.294413 -15.98828,11.113281 l -0.0254,0.02734 -0.0254,0.0293 c -4.14777,4.757723 -7.16122,10.332204 -9.07032,16.646484 -1.87737,6.104417 -2.79296,12.658583 -2.79296,19.628906 0,6.745482 0.85815,13.119662 2.61523,19.093752 l 0.0137,0.0469 0.0137,0.0449 c 1.91456,6.10262 4.88201,11.46831 8.93946,16.01757 l 0.0273,0.0293 0.0254,0.0293 c 4.16444,4.5319 9.25947,8.0862 15.20703,10.70312 l 0.041,0.0176 0.041,0.0176 c 6.11684,2.56907 13.13427,3.77148 20.92774,3.77148 3.04057,0 6.03413,-0.17396 8.98047,-0.50976 2.95223,-0.2311 5.78087,-0.62747 8.46484,-1.21094 l 0.0781,-0.0176 0.0801,-0.0195 c 2.78025,-0.69506 5.3387,-1.53833 7.58594,-2.53711 l 0.11133,-0.0488 0.10742,-0.0547 c 2.33981,-1.16991 4.42758,-2.60336 6.17383,-4.34961 l 2.01367,-2.01563 -5.53906,-26.97265 -5.91211,2.43359 c -1.39743,0.5754 -3.51318,1.16636 -6.66992,1.77734 l -0.0156,0.004 -0.0156,0.002 c -2.82268,0.56454 -5.88611,0.85742 -9.20313,0.85742 -2.21459,0 -4.25162,-0.34286 -6.10156,-0.98632 -1.62352,-0.56471 -3.06141,-1.49299 -4.29101,-2.79493 -1.17569,-1.24484 -2.25122,-3.0319 -3.11915,-5.50586 -0.74499,-2.526961 -1.13529,-5.725677 -1.03906,-9.767574 0.0954,-3.722347 0.65613,-6.466854 1.50391,-8.470703 0.93034,-2.198988 2.02654,-3.769081 3.1914,-4.878906 1.39289,-1.223946 2.82625,-2.050879 4.28907,-2.544922 1.83753,-0.581519 3.64949,-0.869141 5.40625,-0.869141 3.88218,0 6.81221,0.343599 9.02539,0.939453 2.53663,0.68294 4.38977,1.391326 5.77929,2.126953 l 6.66602,3.529297 4.53711,-32.248047 -2.61133,-1.865234 c -2.21686,-1.583475 -6.34261,-2.883541 -10.86328,-3.765625 -4.78904,-0.934445 -10.32296,-1.378906 -16.5332,-1.378906 z m 6.90039,100.632814 c -0.0327,0.003 -0.061,0.0111 -0.0937,0.0137 l 0.20117,-0.0195 c -0.0352,0.004 -0.0722,0.002 -0.10742,0.006 z"
         id="path96146"
         style="font-weight:900;font-size:160px;line-height:1.25;font-family:'Liera Sans';-inkscape-font-specification:'Liera Sans, Heavy'"
         inkscape:original-d="m 211.7646,93.44415 q 0,-9.76 2.56,-18.08 2.56,-8.48 8,-14.72 5.6,-6.24 14.08,-9.76 8.48,-3.52 20,-3.52 8.96,0 15.52,1.28 6.56,1.28 8.8,2.88 l -3.04,21.6 q -2.72,-1.44 -6.88,-2.56 -4.16,-1.12 -10.4,-1.12 -3.52,0 -7.04,1.12 -3.36,1.12 -6.24,3.68 -2.72,2.56 -4.48,6.72 -1.76,4.16 -1.92,10.4 -0.16,6.72 1.28,11.52 1.6,4.64 4.32,7.52 2.72,2.88 6.4,4.16 3.68,1.28 7.84,1.28 5.44,0 10.24,-0.96 4.96,-0.96 7.68,-2.08 l 3.68,17.92 q -1.92,1.92 -4.8,3.36 -2.88,1.28 -6.72,2.24 -3.68,0.8 -7.84,1.12 -4.16,0.48 -8.48,0.48 -10.88,0 -18.88,-3.36 -8,-3.52 -13.44,-9.44 -5.28,-5.92 -7.84,-14.08 -2.4,-8.16 -2.4,-17.6 z" />
      <path
         d="M 292.07422,2.8730469 V 141.93555 h 38.90039 v -19.89258 l -0.12695,-8.33985 2.24804,-2.46093 18.21485,30.69336 h 44.34179 L 359.18945,82.900391 396.26367,43.193359 h -47.3164 l -18.3125,22.257813 0.33984,-8.541016 V 2.8730469 Z"
         id="path96148"
         style="font-weight:900;font-size:160px;line-height:1.25;font-family:'Liera Sans';-inkscape-font-specification:'Liera Sans, Heavy'"
         inkscape:original-d="m 384.08438,48.48415 -31.52,33.76 33.6,54.4 h -31.84 l -20.32,-34.24 -8.48,9.28 0.16,10.4 v 14.56 h -28.32 V 8.1641498 h 28.32 V 56.80415 l -0.96,24.16 26.72,-32.48 z" />
      <path
         d="m 433.04492,42.072266 c -7.61065,0 -14.58316,1.210681 -20.86133,3.746093 l -0.0176,0.0059 -0.0176,0.0078 c -6.11304,2.517135 -11.34918,6.052061 -15.74805,10.695313 -4.2724,4.516538 -7.47527,9.858653 -9.62695,15.955078 -2.14401,6.074697 -3.17969,12.646988 -3.17969,19.68164 0,15.2721 4.01544,27.86577 12.59766,37.1836 8.74908,9.49901 21.11443,13.86718 36.5332,13.86718 8.31517,0 15.90153,-1.0112 22.6875,-3.11718 l 0.0391,-0.0117 0.0391,-0.0117 c 6.43799,-2.10899 11.78615,-4.60375 15.38282,-7.42969 l 2.81054,-2.20898 -7.2539,-24.87891 -5.67188,2.83594 c -0.73443,0.36721 -1.77284,0.76396 -3.44531,1.25586 -1.64273,0.48315 -3.46166,0.92554 -5.46484,1.32617 -1.96426,0.39285 -4.10525,0.74006 -6.40821,1.04297 -2.17045,0.19485 -4.22537,0.29492 -6.15625,0.29492 -5.59826,0 -9.53006,-1.20625 -12.2207,-3.13477 -1.23201,-0.92147 -2.31783,-2.47375 -3.14453,-4.68164 h 50.27539 l 0.29297,-4.980467 c 0.10462,-1.778738 0.26249,-4.097304 0.47461,-6.960937 0.22389,-3.02241 0.33398,-6.192757 0.33398,-9.509766 v -0.04102 -0.03906 c -0.11342,-7.485914 -1.317,-14.082849 -3.82031,-19.50586 -2.30838,-5.326481 -5.49915,-9.734628 -9.68359,-13.019531 -4.08319,-3.31058 -8.74592,-5.503325 -13.99414,-6.634765 -4.85737,-1.150718 -9.77208,-1.732422 -14.75196,-1.732422 z m 14.75196,1.732422 c 0.024,0.0057 0.0483,0.008 0.0723,0.01367 l -0.11523,-0.02734 c 0.0151,0.0032 0.0279,0.01042 0.043,0.01367 z m 13.99414,6.634765 c 0.009,0.0073 0.0203,0.01028 0.0293,0.01758 l -0.0781,-0.0625 c 0.0175,0.01364 0.0314,0.03124 0.0488,0.04492 z m 9.68359,13.019531 c 0.007,0.01727 0.0199,0.02959 0.0273,0.04687 l -0.0605,-0.134765 c 0.0129,0.02773 0.0204,0.0601 0.0332,0.08789 z m -39.07031,7.435547 c 2.70539,0 3.7667,0.835823 4.41797,2.097657 l 0.0156,0.03125 0.0176,0.03125 c 0.74124,1.389841 1.10711,3.719695 1.25195,6.61914 h -14.08594 c 0.69979,-2.951924 1.50567,-5.204015 2.42579,-6.24414 l 0.0332,-0.03711 0.0312,-0.03711 c 1.25681,-1.475392 3.25926,-2.460938 5.89258,-2.460938 z"
         id="path96150"
         style="font-weight:900;font-size:160px;line-height:1.25;font-family:'Liera Sans';-inkscape-font-specification:'Liera Sans, Heavy'"
         inkscape:original-d="m 432.72414,137.92415 q -21.44,0 -32.64,-12.16 -11.2,-12.16 -11.2,-33.6 0,-9.76 2.88,-17.92 2.88,-8.16 8.48,-14.08 5.76,-6.08 13.92,-9.44 8.32,-3.36 18.88,-3.36 6.88,0 13.6,1.6 6.72,1.44 11.84,5.6 5.12,4 8.16,11.04 3.2,6.88 3.36,17.44 0,4.8 -0.32,9.12 -0.32,4.32 -0.48,7.04 h -51.84 q 0.96,10.08 6.56,14.24 5.76,4.16 15.36,4.16 3.2,0 6.72,-0.32 3.68,-0.48 6.88,-1.12 3.2,-0.64 5.92,-1.44 2.72,-0.8 4.32,-1.6 l 4.48,15.36 q -4.48,3.52 -13.76,6.56 -9.28,2.88 -21.12,2.88 z m 10.72,-52.96 q 0.64,-9.6 -1.92,-14.4 -2.56,-4.96 -9.12,-4.96 -6.24,0 -9.92,4.32 -3.68,4.16 -4.8,15.04 z" />
      <path
         d="m 498.07227,23.033203 -1.31641,3.363281 c -0.94998,2.427727 -2.00656,5.071308 -3.17188,7.931641 l -0.0195,0.04883 -0.0195,0.04687 c -1.03536,2.691933 -1.93794,4.840945 -2.71875,6.501953 -0.59818,1.247965 -1.56753,2.215908 -2.98047,2.876953 -2.3429,0.970953 -5.29843,2.013171 -8.98828,3.140625 l -3.74414,1.144532 v 24.408203 h 10.08008 V 109.2832 c 0,10.26134 2.06981,18.84605 6.91797,24.90625 l 0.0195,0.0234 0.0176,0.0234 c 5.23578,6.39928 13.7035,8.97851 24.0957,8.97851 3.52186,0 6.98722,-0.35221 10.4082,-1.05273 3.27421,-0.56783 6.33414,-1.31256 9.15235,-2.25 2.88444,-0.92477 5.50715,-2.01313 7.77148,-3.26758 2.26313,-1.19714 4.30693,-2.55497 5.84961,-4.09765 l 2.0293,-2.03126 -5.51172,-25.99023 -6.39258,3.93359 c -0.85772,0.52784 -2.27035,1.11922 -4.73242,1.8086 -2.38973,0.66912 -4.13702,0.92578 -5.45508,0.92578 -1.60951,0 -2.79733,-0.13752 -3.6914,-0.33789 l -0.0313,-0.0332 c -0.2363,-0.38932 -0.52459,-1.09802 -0.79101,-3.04102 -0.28172,-2.16755 -0.43555,-5.16742 -0.43555,-9.216797 V 72.496094 h 22.88086 V 43.193359 H 524.41406 V 23.033203 Z m 45.5039,113.611327 c -0.0242,0.0128 -0.0441,0.0283 -0.0684,0.041 l 0.10547,-0.0566 c -0.0108,0.006 -0.0263,0.01 -0.0371,0.0156 z m -7.77148,3.26758 c -0.0102,0.003 -0.0172,0.008 -0.0274,0.0117 l 0.0606,-0.0195 c -0.0102,0.003 -0.023,0.004 -0.0332,0.008 z m -9.15235,2.25 c -0.0252,0.004 -0.0451,0.0132 -0.0703,0.0176 l 0.17383,-0.0332 c -0.0343,0.007 -0.0693,0.009 -0.10352,0.0156 z"
         id="path96152"
         style="font-weight:900;font-size:160px;line-height:1.25;font-family:'Liera Sans';-inkscape-font-specification:'Liera Sans, Heavy'"
         inkscape:original-d="m 516.24386,137.92415 q -14.24,0 -20,-7.04 -5.76,-7.2 -5.76,-21.6 v -42.08 h -10.08 v -15.2 q 5.76,-1.76 9.6,-3.36 3.84,-1.76 5.6,-5.44 1.28,-2.72 2.88,-6.88 1.76,-4.32 3.2,-8 h 17.44 v 20.16 h 22.88 v 18.72 h -22.88 v 31.36 q 0,6.24 0.48,9.92 0.48,3.52 1.6,5.28 1.28,1.76 3.2,2.24 2.08,0.48 4.96,0.48 2.88,0 6.88,-1.12 4,-1.12 6.08,-2.4 l 3.36,15.84 q -1.6,1.6 -4.64,3.2 -2.88,1.6 -6.88,2.88 -3.84,1.28 -8.48,2.08 -4.64,0.96 -9.44,0.96 z" />
      <path
         d="m 616.72461,41.914062 -0.12891,0.002 c 0.0182,-4.45e-4 0.0345,0.0024 0.0527,0.002 0.0256,-4.8e-5 0.0506,-0.0039 0.0762,-0.0039 z m -0.0762,0.0039 c -3.38237,0.0063 -6.71018,0.429968 -9.98047,1.271484 -3.0316,0.703517 -5.95969,1.635708 -8.7793,2.810547 -1.89552,0.789802 -3.56844,1.800789 -5.28515,2.767578 l -0.34961,-5.574219 h -36.50196 v 98.742188 h 39.0625 V 77.9375 c 1.08827,-0.76935 2.24699,-1.447507 3.54297,-1.914062 2.27175,-0.81783 4.0192,-1.128907 5.40625,-1.128907 h 0.13477 l 0.13672,-0.0059 c 2.95412,-0.151494 3.66998,0.55661 3.9375,0.966797 l 0.043,0.06641 0.0449,0.06445 c 0.78245,1.124783 1.61133,4.209988 1.61133,10.257813 v 55.691409 h 39.22265 V 81.125 c 0,-6.65108 -0.61829,-12.501794 -1.93555,-17.326172 -1.20763,-4.912876 -3.1492,-9.198842 -6.00781,-12.611328 -2.90558,-3.576391 -6.48574,-6.008672 -10.88281,-7.400391 -4.08473,-1.395704 -8.58466,-1.981878 -13.41992,-1.86914 z m 13.41992,1.86914 c 0.018,0.0062 0.0386,0.0075 0.0566,0.01367 l -0.14258,-0.04687 c 0.03,0.0094 0.056,0.02374 0.0859,0.0332 z m 10.88281,7.400391 c 0.0154,0.019 0.0334,0.03367 0.0488,0.05273 l -0.0664,-0.08008 c 0.007,0.0082 0.0107,0.01918 0.0176,0.02734 z m 6.00781,12.611328 c 0.006,0.02587 0.0191,0.04636 0.0254,0.07227 l -0.0391,-0.148438 c 0.006,0.02298 0.007,0.05314 0.0137,0.07617 z M 606.66797,43.189453 c 0.023,-0.0053 0.0434,-0.01618 0.0664,-0.02148 l -0.13868,0.03516 c 0.0239,-0.0062 0.0484,-0.0075 0.0723,-0.01367 z"
         id="path96154"
         style="font-weight:900;font-size:160px;line-height:1.25;font-family:'Liera Sans';-inkscape-font-specification:'Liera Sans, Heavy'"
         inkscape:original-d="m 561.04376,136.64415 v -88.16 h 26.24 l 0.64,10.24 q 1.92,-2.08 4.96,-4.16 3.2,-2.08 7.04,-3.68 3.84,-1.6 8,-2.56 4.32,-1.12 8.8,-1.12 6.56,-0.16 11.68,1.6 5.12,1.6 8.48,5.76 3.36,4 4.96,10.56 1.76,6.4 1.76,16 v 55.52 h -28.64 v -50.4 q 0,-9.6 -2.56,-13.28 -2.4,-3.68 -8.64,-3.36 -3.2,0 -7.2,1.44 -4,1.44 -7.04,4.32 v 61.28 z" />
      <path
         d="m 680.08398,1.7539062 c -3.00698,0 -5.91028,0.5480971 -8.68554,1.6582032 -2.71525,1.0861004 -5.14065,2.5974137 -7.2461,4.5625 l -0.0664,0.0625 -0.0645,0.064453 c -1.90794,1.9079446 -3.45743,4.0711136 -4.66992,6.4960936 l -0.0293,0.05664 -0.0254,0.05664 c -1.22107,2.594778 -1.78516,5.399035 -1.78516,8.333984 0,5.825547 1.81103,10.551895 5.9414,14.529297 l 0.0723,0.07031 0.0742,0.06641 c 4.14196,3.698188 9.22221,5.34375 15.04297,5.34375 3.08495,0 6.0196,-0.533853 8.77344,-1.69336 2.5587,-1.077347 4.83988,-2.514977 6.82617,-4.359375 l 0.006,-0.0039 0.006,-0.0039 c 2.06557,-1.927869 3.68771,-4.178778 4.83984,-6.726563 1.3176,-2.673546 1.96094,-5.499343 1.96094,-8.503906 0,-5.803949 -1.80619,-10.514359 -5.97461,-14.3964846 -4.03842,-3.8721947 -9.1455,-5.6132812 -14.9961,-5.6132813 z m 14.9961,5.6132813 c 0.0106,0.010182 0.0226,0.017132 0.0332,0.027344 l -0.0742,-0.072266 c 0.0156,0.014417 0.0255,0.030482 0.041,0.044922 z m 4.01367,22.9003905 c -0.0165,0.03352 -0.0204,0.07005 -0.0371,0.103516 l 0.10352,-0.21875 c -0.0182,0.04095 -0.048,0.07444 -0.0664,0.115234 z m -38.70117,12.925781 v 98.742191 h 39.22265 V 43.193359 Z"
         id="path96156"
         style="font-weight:900;font-size:160px;line-height:1.25;font-family:'Liera Sans';-inkscape-font-specification:'Liera Sans, Heavy'"
         inkscape:original-d="m 662.80352,136.64415 z m 2.88,0 v -88.16 h 28.64 v 88.16 z m 12.96,-98.88 q -7.04,0 -11.52,-4 -4.32,-4.16 -4.32,-10.72 0,-3.36 1.28,-6.08 1.44,-2.88 3.68,-5.12 2.4,-2.2400002 5.6,-3.5200002 3.2,-1.28 6.72,-1.28 7.04,0 11.36,4.1600002 4.32,4 4.32,10.56 0,3.36 -1.44,6.24 -1.28,2.88 -3.68,5.12 -2.24,2.08 -5.28,3.36 -3.04,1.28 -6.72,1.28 z" />
      <path
         d="m 755.2832,41.753906 c -4.23399,0 -8.46272,0.342246 -12.6875,1.027344 -4.08915,0.663105 -7.93701,1.50167 -11.54101,2.511719 -3.59871,0.902713 -6.9679,1.978891 -10.08789,3.25 l -0.0332,0.01367 -0.0332,0.01367 c -2.8795,1.218253 -5.3658,2.424168 -7.2207,3.53711 l -3.70313,2.222656 9.35156,26.527344 5.36329,-2.681641 c 1.61345,-0.806725 3.50697,-1.551206 5.73242,-2.228515 2.27838,-0.693419 4.66858,-1.291531 7.17578,-1.792969 2.53315,-0.506631 5.06298,-0.913654 7.58789,-1.216797 h 0.006 c 2.57903,-0.2967 5.03415,-0.441406 7.36914,-0.441406 3.56603,0 5.44722,0.568123 6.29492,1.103515 l 0.13672,0.08398 0.13867,0.07813 c 0,0 0.45755,0.527728 0.45899,3.035156 -1.70687,0.05362 -3.2206,0.05589 -5.11524,0.160156 -4.07833,0.114188 -8.15244,0.509132 -12.22265,1.1875 -4.11802,0.686336 -8.12623,1.717921 -12.02539,3.089844 -4.01831,1.341944 -7.69011,3.233313 -11.0254,5.699219 -0.002,0.0011 -0.002,0.0028 -0.004,0.0039 -3.38916,2.477635 -6.1042,5.512907 -8.18945,9.162109 l -0.0371,0.0625 -0.0332,0.06445 c -2.10677,3.93265 -3.02734,8.5188 -3.02734,13.53711 0,4.62767 0.72822,9.01727 2.23828,13.16992 l 0.0332,0.0918 0.0371,0.0918 c 1.63004,4.0124 3.90595,7.56345 6.8418,10.62695 l 0.0781,0.082 0.082,0.0781 c 3.09192,2.9631 6.72103,5.23994 10.84179,6.86328 4.22604,1.66481 8.83792,2.44726 13.7793,2.44726 6.47461,0 12.27802,-0.99123 17.08789,-3.20117 l 0.0527,-0.0254 0.0527,-0.0254 c 0.71809,-0.34934 1.31315,-0.74179 1.99609,-1.10351 v 3.07617 h 37.78125 V 80.324219 c 0,-6.553329 -0.73177,-12.325722 -2.34961,-17.183594 -1.66119,-5.094942 -4.39321,-9.387332 -8.28711,-12.744141 -3.86676,-3.333411 -8.62449,-5.518435 -14.10156,-6.742187 -5.28817,-1.285965 -11.62431,-1.900391 -18.79297,-1.900391 z m 18.79297,1.900391 c 0.019,0.0046 0.0435,0.0051 0.0625,0.0098 l -0.10742,-0.02539 c 0.0161,0.0036 0.0288,0.01202 0.0449,0.01563 z m 22.38867,19.486328 c 0.003,0.01019 0.008,0.0191 0.0117,0.0293 l -0.0137,-0.03906 c 9.9e-4,0.003 9.7e-4,0.0068 0.002,0.0098 z m -66.23632,18.09375 c 0.008,-0.0025 0.0139,-0.0072 0.0215,-0.0098 l -0.0879,0.0293 c 0.0218,-0.0077 0.0446,-0.01187 0.0664,-0.01953 z m 24.24804,-4.277344 c 0.007,-1.82e-4 0.013,-0.0018 0.0195,-0.002 l -0.14648,0.0059 c 0.0471,-0.0026 0.0799,-0.0013 0.12695,-0.0039 z M 731.05469,45.292969 c 0.0231,-0.0058 0.0414,-0.01571 0.0644,-0.02148 l -0.14844,0.03906 c 0.0262,-0.0074 0.0578,-0.01024 0.084,-0.01758 z m 28.53711,56.349611 v 11.89648 c -0.38486,0.20236 -0.35611,0.25861 -1.06836,0.54883 -1.37466,0.50038 -2.92867,0.78516 -4.67969,0.78516 -1.74518,0 -3.20728,-0.53448 -4.42773,-1.4961 -0.62647,-0.55907 -1.48243,-2.01015 -1.48243,-5.05273 0,-2.05342 0.37891,-2.83203 0.37891,-2.83203 l 0.0762,-0.0723 0.0762,-0.0742 c 0.94015,-0.94015 1.95038,-1.62599 3.01954,-2.09375 l 0.0586,-0.0254 0.0586,-0.0273 c 1.00243,-0.4678 2.62555,-0.92005 5.38086,-1.31445 0.94818,-0.13063 1.71258,-0.14395 2.60938,-0.24219 z"
         id="path96158"
         style="font-weight:900;font-size:160px;line-height:1.25;font-family:'Liera Sans';-inkscape-font-specification:'Liera Sans, Heavy'"
         inkscape:original-d="m 741.84329,137.92415 q -6.56,0 -11.84,-2.08 -5.28,-2.08 -9.12,-5.76 -3.68,-3.84 -5.76,-8.96 -1.92,-5.28 -1.92,-11.36 0,-6.56 2.4,-11.04 2.56,-4.48 6.72,-7.52 4.32,-3.2 9.6,-4.96 5.44,-1.92 11.2,-2.88 5.76,-0.96 11.52,-1.12 5.76,-0.32 10.24,-0.32 v -5.12 q 0,-5.92 -3.2,-7.68 -3.04,-1.92 -9.12,-1.92 -3.84,0 -8,0.48 -4,0.48 -8,1.28 -4,0.8 -7.68,1.92 -3.68,1.12 -6.56,2.56 l -5.92,-16.8 q 2.4,-1.44 6.56,-3.2 4.32,-1.76 9.44,-3.04 5.12,-1.44 11.04,-2.4 5.92,-0.96 11.84,-0.96 10.4,0 17.6,1.76 7.2,1.6 11.84,5.6 4.64,4 6.72,10.4 2.08,6.24 2.08,15.52 v 56.32 h -27.2 v -7.52 q -3.68,3.2 -9.6,6.08 -5.92,2.72 -14.88,2.72 z m 23.04,-42.08 q -4,0.16 -8.64,0.8 -4.48,0.64 -6.88,1.76 -2.56,1.12 -4.64,3.2 -2.08,1.92 -2.08,6.72 0,6.24 3.36,9.12 3.36,2.72 7.84,2.72 3.52,0 6.56,-1.12 3.2,-1.28 4.48,-2.56 z" />
      <path
         d="m 828.24414,111.19336 c -4.29524,0 -7.91858,1.89978 -10.87305,5.00195 l -0.0469,0.0488 -0.0449,0.0488 c -3.00721,3.32376 -4.39616,7.38482 -4.2461,11.88672 l 0.002,0.01 v 0.01 c 0.14834,4.00546 1.40483,7.5426 4.05273,10.52148 l 0.0527,0.0586 0.0547,0.0586 c 2.83691,3.00379 6.07126,4.53711 10.24805,4.53711 4.42915,0 7.85144,-1.6632 10.87109,-4.8418 3.17591,-3.33469 4.64737,-7.50933 4.49805,-12.13867 l -0.002,-0.0176 v -0.0156 c -0.14697,-3.82093 -1.31691,-7.18863 -3.72266,-10.11914 -2.73076,-3.59917 -6.42962,-5.04883 -10.84375,-5.04883 z m 10.84375,5.04883 c 0.0416,0.0548 0.0936,0.0868 0.13477,0.14258 l -0.19532,-0.24805 c 0.0272,0.0326 0.0337,0.0728 0.0606,0.10547 z"
         style="font-weight:300;font-size:160px;line-height:1.25;font-family:'Liera Sans';-inkscape-font-specification:'Liera Sans, Light'"
         id="path96160"
         inkscape:original-d="m 827.44321,138.08415 q -3.68,0 -6.4,-2.88 -2.56,-2.88 -2.72,-7.2 -0.16,-4.8 2.88,-8.16 3.2,-3.36 7.04,-3.36 4.48,0 6.72,3.04 2.4,2.88 2.56,7.04 0.16,4.96 -3.04,8.32 -3.04,3.2 -7.04,3.2 z" />
      <path
         d="m 897.68359,42.072266 c -7.34633,0 -14.07692,1.287527 -20.08789,3.986328 -5.9193,2.657647 -10.90606,6.347328 -14.97265,11.146484 -4.04202,4.662961 -7.02441,10.206082 -9.02735,16.56836 l -0.01,0.03125 -0.01,0.0293 c -1.87522,6.211676 -2.7832,12.92089 -2.7832,20.089844 0,6.744368 0.85496,13.071878 2.62109,18.958978 l 0.0137,0.0469 0.0156,0.0469 c 1.89965,5.9364 4.71749,11.18582 8.50391,15.70508 3.81094,4.54856 8.38812,8.08608 13.77734,10.6582 5.51983,2.63447 11.68775,3.875 18.4375,3.875 6.21697,0 11.99623,-0.80543 17.28516,-2.48828 l 0.0352,-0.0117 0.0352,-0.0117 c 5.29181,-1.76393 9.82303,-4.21159 13.18945,-7.44335 l 2.39649,-2.30079 -5.66993,-17.36132 -5.71093,3.49023 c -1.48167,0.90546 -3.98683,2.02599 -7.79297,3.36328 l -0.0215,0.008 -0.0215,0.008 c -3.15865,1.14062 -6.95132,1.76562 -11.48438,1.76562 -2.94735,0 -5.80071,-0.60022 -8.49609,-1.76367 -2.543,-1.24518 -4.8545,-3.03328 -6.92969,-5.43359 -1.94086,-2.46816 -3.5593,-5.5981 -4.77148,-9.48828 -1.09916,-3.97048 -1.64413,-8.673422 -1.54883,-14.205079 0.20191,-5.319229 0.97614,-9.648225 2.23242,-13.169922 1.39155,-3.599175 3.11663,-6.368398 5.08985,-8.423828 l 0.0371,-0.03711 0.0352,-0.03711 c 2.03375,-2.203224 4.33465,-3.773381 6.82227,-4.736328 l 0.0684,-0.02539 0.0684,-0.0293 c 2.66984,-1.11961 5.38998,-1.667968 8.19335,-1.667968 3.92394,0 7.24563,0.392899 10.03711,1.113281 l 0.0957,0.02539 0.0957,0.02148 c 2.88749,0.63164 5.00224,1.561311 6.53516,2.65625 l 6.53906,4.669922 4.875,-22.419922 -3.00195,-2 c -2.12342,-1.415608 -5.89335,-2.72647 -9.84571,-3.613281 -4.26988,-1.090354 -9.24542,-1.595703 -14.84961,-1.595703 z m 14.84961,1.595703 c 0.0211,0.0054 0.0473,0.0063 0.0684,0.01172 l -0.16992,-0.04102 c 0.0358,0.008 0.0658,0.02127 0.10156,0.0293 z"
         style="font-weight:300;font-size:160px;line-height:1.25;font-family:'Liera Sans';-inkscape-font-specification:'Liera Sans, Light'"
         id="path96162"
         inkscape:original-d="m 856.08302,93.92415 q 0,-10.08 2.56,-18.56 2.72,-8.64 8,-14.72 5.28,-6.24 13.12,-9.76 7.84,-3.52 17.92,-3.52 8,0 13.6,1.44 5.76,1.28 8.16,2.88 l -2.4,11.04 q -3.36,-2.4 -8.48,-3.52 -4.96,-1.28 -11.36,-1.28 -5.28,0 -10.24,2.08 -4.96,1.92 -8.8,6.08 -3.84,4 -6.24,10.24 -2.24,6.24 -2.56,14.88 -0.16,8.96 1.76,15.84 2.08,6.72 5.76,11.36 3.84,4.48 8.8,6.88 5.12,2.24 10.72,2.24 7.52,0 13.28,-2.08 5.92,-2.08 8.8,-3.84 l 2.56,7.84 q -4,3.84 -11.2,6.24 -7.04,2.24 -15.68,2.24 -9.12,0 -16.16,-3.36 -7.04,-3.36 -12,-9.28 -4.96,-5.92 -7.52,-13.92 -2.4,-8 -2.4,-17.44 z" />
      <path
         d="m 974.80273,42.072266 c -6.25819,0 -12.17247,1.064869 -17.73046,3.234375 -5.54561,2.098806 -10.37721,5.280004 -14.54493,9.570312 l -0.0273,0.0293 -0.0273,0.02734 c -4.03869,4.283459 -7.20028,9.464928 -9.54688,15.443359 -2.42219,6.062933 -3.56916,12.924717 -3.57226,20.478516 -0.10847,6.563293 0.51195,12.928802 1.88281,19.097652 l 0.0137,0.0567 0.0137,0.0547 c 1.53289,6.24945 4.02802,11.87011 7.53906,16.83399 l 0.043,0.0605 0.0449,0.0586 c 3.70374,4.93831 8.34733,8.83712 13.94532,11.75781 5.82864,3.04103 12.68464,4.43945 20.36718,4.43945 6.36562,0 12.30525,-1.05803 17.80469,-3.25781 l 0.0274,-0.01 0.0273,-0.0117 c 5.59428,-2.31067 10.40454,-5.58782 14.47074,-9.90039 4.0609,-4.30699 7.1666,-9.49904 9.4102,-15.50782 2.3925,-6.12056 3.5969,-12.98917 3.7109,-20.513669 0.1139,-6.726688 -0.6284,-13.164231 -2.2461,-19.308594 -1.5357,-6.240418 -4.0327,-11.816793 -7.5625,-16.685547 -3.6219,-4.995762 -8.266,-8.882008 -13.91605,-11.707031 -5.79918,-2.899584 -12.56745,-4.240234 -20.12696,-4.240234 z m 41.60547,32.632812 c 0,0.01379 0.01,0.02527 0.014,0.03906 l -0.024,-0.0918 c 0,0.01716 0.01,0.03557 0.01,0.05273 z m -1.4648,39.822262 c -0.01,0.0158 -0.01,0.0331 -0.016,0.0488 l 0.033,-0.084 c 0,0.0127 -0.013,0.0225 -0.018,0.0352 z M 929.35352,90.855469 c 3.5e-4,-0.02114 -0.002,-0.04135 -0.002,-0.0625 v 0.0918 c 0,-0.01024 0.002,-0.01906 0.002,-0.0293 z m 27.71875,-45.548828 c 0.008,-0.0029 0.0137,-0.0088 0.0215,-0.01172 l -0.0586,0.02148 c 0.0119,-0.0047 0.0252,-0.0051 0.0371,-0.0098 z m 17.43359,17.265625 0.0684,0.002 h 0.0684 c 3.54985,0 6.32538,0.791936 8.41015,2.085937 2.37179,1.472146 4.39313,3.478465 6,6.015625 1.61992,2.557763 2.84949,5.708579 3.59766,9.542969 l 0.0117,0.06055 0.0137,0.06055 c 0.86924,3.95985 1.31641,8.267219 1.31641,12.943359 0,10.153114 -2.07889,17.536674 -5.72852,22.673824 -3.33746,4.59825 -8.12885,6.99083 -14.64258,6.91406 -3.50957,-0.0907 -6.34885,-0.94792 -8.5957,-2.36328 -2.36695,-1.55937 -4.39699,-3.65684 -6.01367,-6.28711 -1.67469,-2.8313 -2.96905,-6.2002 -3.82227,-10.16015 -0.77747,-4.107952 -1.17578,-8.44316 -1.17578,-13.015625 0,-10.168459 2.07959,-17.246443 5.62695,-21.898438 l 0.002,-0.002 c 3.40233,-4.429566 8.28514,-6.743126 14.86328,-6.572265 z"
         style="font-weight:300;font-size:160px;line-height:1.25;font-family:'Liera Sans';-inkscape-font-specification:'Liera Sans, Light'"
         id="path96164"
         inkscape:original-d="m 973.2029,137.92415 q -10.56,0 -17.92,-3.84 -7.36,-3.84 -12.16,-10.24 -4.64,-6.56 -6.72,-15.04 -1.92,-8.64 -1.76,-17.92 0,-10.56 3.2,-18.56 3.2,-8.16 8.48,-13.76 5.44,-5.6 12.64,-8.32 7.36,-2.88 15.84,-2.88 10.4,0 17.76,3.68 7.36,3.68 12,10.08 4.64,6.4 6.72,14.88 2.24,8.48 2.08,17.92 -0.16,10.56 -3.36,18.72 -3.04,8.16 -8.32,13.76 -5.28,5.6 -12.64,8.64 -7.2,2.88 -15.84,2.88 z m 0.32,-9.76 q 12.32,0.16 19.04,-9.12 6.72,-9.44 6.72,-25.76 0,-7.52 -1.44,-14.08 -1.28,-6.56 -4.32,-11.36 -3.04,-4.8 -7.68,-7.68 -4.64,-2.88 -11.2,-2.88 -12.32,-0.32 -19.2,8.64 -6.72,8.8 -6.72,25.12 0,7.36 1.28,14.08 1.44,6.72 4.48,11.84 3.04,4.96 7.68,8 4.8,3.04 11.36,3.2 z" />
      <path
         d="m 1080.7832,41.914062 -0.049,0.002 -0.047,0.002 c -3.2601,0.120744 -6.6409,0.600654 -10.127,1.414062 -3.4911,0.814597 -6.8282,1.923296 -10.0117,3.333985 -2.2982,0.973692 -4.422,2.148712 -6.5351,3.335937 v -6.648437 h -22.7422 v 98.582031 h 24.3418 V 71.611328 c 0.9763,-0.678632 1.8755,-1.380567 3.0195,-2.009766 1.9228,-1.057517 3.8863,-1.968111 5.8926,-2.732421 l 0.1016,-0.03906 0.1,-0.04297 c 1.9992,-0.856813 3.9092,-1.505106 5.7343,-1.96289 1.9769,-0.46875 3.7256,-0.730304 5.2754,-0.816407 h 0.014 l 0.014,-0.002 c 3.0089,-0.182361 4.9817,0.164311 6.2343,0.701172 l 0.1,0.04297 0.1015,0.03906 c 1.1277,0.429603 2.046,1.182408 2.6895,2.201172 l 0.035,0.05469 0.037,0.05469 c 0.7203,1.08042 1.3671,2.757092 1.7188,5.306641 0.3873,2.808488 0.5918,6.206506 0.5918,10.318359 v 59.210942 h 24.1816 V 81.763672 c 0,-4.153528 -0.2454,-7.831241 -0.6191,-11.267578 0.7297,-0.422699 1.4022,-0.892498 2.1758,-1.279297 l 0.1015,-0.05078 0.1016,-0.05664 c 1.7029,-0.946048 3.5132,-1.803459 5.4297,-2.572266 2.0473,-0.778326 4.0229,-1.405623 5.9238,-1.880859 l 0.1191,-0.0293 0.1172,-0.03516 c 1.6831,-0.504916 3.258,-0.736328 4.7207,-0.736328 h 0.074 l 0.072,-0.002 c 3.3873,-0.09409 5.4388,0.328432 6.6973,0.927734 l 0.096,0.04492 0.096,0.04102 c 1.1918,0.510769 2.0709,1.310581 2.625,2.267578 l 0.053,0.08984 0.053,0.08594 c 0.766,1.212868 1.4321,3.036504 1.789,5.712891 v 0.01172 0.01172 c 0.3877,2.811143 0.5918,6.070544 0.5918,9.837891 V 141.9355 h 24.3418 V 82.083984 c 0,-6.73413 -0.5004,-12.660422 -1.5567,-17.589843 -1.0757,-5.019911 -2.8835,-9.412321 -5.5957,-12.953125 -2.697,-3.663254 -6.1749,-6.159339 -10.5097,-7.576172 -3.9914,-1.406915 -8.6263,-2.050782 -13.709,-2.050782 -3.5248,0 -7.0303,0.422908 -10.5215,1.265626 l -0.02,0.0059 -0.022,0.0059 c -3.2175,0.804359 -6.3739,1.839181 -9.4688,3.097656 -3.003,1.158127 -5.8144,2.501442 -8.4199,4.041016 -0.5989,0.35389 -1.0249,0.696768 -1.5918,1.048828 -2.0112,-2.783552 -4.4988,-5.047671 -7.6836,-6.550781 -4.4894,-2.167823 -9.9773,-3.030205 -16.1328,-2.914063 z m 16.1328,2.914063 c 0.011,0.0054 0.024,0.0083 0.035,0.01367 l -0.055,-0.02539 c 0.01,0.0033 0.013,0.0084 0.019,0.01172 z m 17.6953,1.460937 c 0.018,-0.0069 0.033,-0.01652 0.051,-0.02344 l -0.096,0.03906 c 0.015,-0.006 0.03,-0.0096 0.045,-0.01563 z m 33.7403,-2.324218 c 0.019,0.0066 0.042,0.007 0.061,0.01367 l -0.1445,-0.04883 c 0.03,0.0095 0.055,0.02551 0.084,0.03516 z m 10.5097,7.576172 c 0.017,0.02245 0.036,0.03996 0.053,0.0625 l -0.078,-0.105469 c 0.01,0.01291 0.015,0.03004 0.025,0.04297 z m -98.3125,-4.875 c 0.011,-0.0046 0.02,-0.01099 0.031,-0.01563 l -0.086,0.03711 c 0.018,-0.0079 0.037,-0.01358 0.055,-0.02148 z m -8.3496,4.251953 c -0.026,0.01485 -0.042,0.03007 -0.068,0.04492 -0.025,0.01532 -0.055,0.02566 -0.08,0.04102 z"
         style="font-weight:300;font-size:160px;line-height:1.25;font-family:'Liera Sans';-inkscape-font-specification:'Liera Sans, Light'"
         id="path96166"
         inkscape:original-d="m 1036.5627,136.64415 v -88 h 12.16 v 10.88 q 2.4,-1.92 6.08,-4 3.68,-2.24 7.84,-4 4.32,-1.92 9.12,-3.04 4.8,-1.12 9.12,-1.28 8.48,-0.16 13.76,2.4 5.44,2.56 8.16,9.28 2.56,-1.92 6.08,-4 3.52,-2.08 7.68,-3.68 4.32,-1.76 8.8,-2.88 4.64,-1.12 9.28,-1.12 7.04,0 12,1.76 4.96,1.6 8,5.76 3.2,4.16 4.64,10.88 1.44,6.72 1.44,16.48 v 54.56 h -13.76 v -53.76 q 0,-5.92 -0.64,-10.56 -0.64,-4.8 -2.56,-7.84 -1.76,-3.04 -5.12,-4.48 -3.36,-1.6 -9.12,-1.44 -3.04,0 -6.24,0.96 -3.2,0.8 -6.56,2.08 -3.2,1.28 -6.08,2.88 -2.88,1.44 -5.44,3.2 0.96,5.92 0.96,14.08 v 54.88 h -13.6 v -53.92 q 0,-6.4 -0.64,-11.04 -0.64,-4.64 -2.56,-7.52 -1.92,-3.04 -5.28,-4.32 -3.36,-1.44 -8.64,-1.12 -2.88,0.16 -6.24,0.96 -3.2,0.8 -6.56,2.24 -3.36,1.28 -6.56,3.04 -3.2,1.76 -5.76,3.84 v 67.84 z" />
    </g>
  </g>
  <g
     inkscape:label=".com path"
     inkscape:groupmode="layer"
     id="g78458"
     style="display:inline"
     sodipodi:insensitive="true"
     transform="translate(-5.5136719,-1.7539062)">
    <g
       id="g96122"
       style="fill:#ffffff">
      <path
         d="m 827.44321,138.08415 q -3.68,0 -6.4,-2.88 -2.56,-2.88 -2.72,-7.2 -0.16,-4.8 2.88,-8.16 3.2,-3.36 7.04,-3.36 4.48,0 6.72,3.04 2.4,2.88 2.56,7.04 0.16,4.96 -3.04,8.32 -3.04,3.2 -7.04,3.2 z"
         style="font-weight:300;font-size:160px;line-height:1.25;font-family:'Liera Sans';-inkscape-font-specification:'Liera Sans, Light';fill:#ffffff"
         id="path78450" />
      <path
         d="m 856.08302,93.92415 q 0,-10.08 2.56,-18.56 2.72,-8.64 8,-14.72 5.28,-6.24 13.12,-9.76 7.84,-3.52 17.92,-3.52 8,0 13.6,1.44 5.76,1.28 8.16,2.88 l -2.4,11.04 q -3.36,-2.4 -8.48,-3.52 -4.96,-1.28 -11.36,-1.28 -5.28,0 -10.24,2.08 -4.96,1.92 -8.8,6.08 -3.84,4 -6.24,10.24 -2.24,6.24 -2.56,14.88 -0.16,8.96 1.76,15.84 2.08,6.72 5.76,11.36 3.84,4.48 8.8,6.88 5.12,2.24 10.72,2.24 7.52,0 13.28,-2.08 5.92,-2.08 8.8,-3.84 l 2.56,7.84 q -4,3.84 -11.2,6.24 -7.04,2.24 -15.68,2.24 -9.12,0 -16.16,-3.36 -7.04,-3.36 -12,-9.28 -4.96,-5.92 -7.52,-13.92 -2.4,-8 -2.4,-17.44 z"
         style="font-weight:300;font-size:160px;line-height:1.25;font-family:'Liera Sans';-inkscape-font-specification:'Liera Sans, Light';fill:#ffffff"
         id="path78452" />
      <path
         d="m 973.2029,137.92415 q -10.56,0 -17.92,-3.84 -7.36,-3.84 -12.16,-10.24 -4.64,-6.56 -6.72,-15.04 -1.92,-8.64 -1.76,-17.92 0,-10.56 3.2,-18.56 3.2,-8.16 8.48,-13.76 5.44,-5.6 12.64,-8.32 7.36,-2.88 15.84,-2.88 10.4,0 17.76,3.68 7.36,3.68 12,10.08 4.64,6.4 6.72,14.88 2.24,8.48 2.08,17.92 -0.16,10.56 -3.36,18.72 -3.04,8.16 -8.32,13.76 -5.28,5.6 -12.64,8.64 -7.2,2.88 -15.84,2.88 z m 0.32,-9.76 q 12.32,0.16 19.04,-9.12 6.72,-9.44 6.72,-25.76 0,-7.52 -1.44,-14.08 -1.28,-6.56 -4.32,-11.36 -3.04,-4.8 -7.68,-7.68 -4.64,-2.88 -11.2,-2.88 -12.32,-0.32 -19.2,8.64 -6.72,8.8 -6.72,25.12 0,7.36 1.28,14.08 1.44,6.72 4.48,11.84 3.04,4.96 7.68,8 4.8,3.04 11.36,3.2 z"
         style="font-weight:300;font-size:160px;line-height:1.25;font-family:'Liera Sans';-inkscape-font-specification:'Liera Sans, Light';fill:#ffffff"
         id="path78454" />
      <path
         d="m 1036.5627,136.64415 v -88 h 12.16 v 10.88 q 2.4,-1.92 6.08,-4 3.68,-2.24 7.84,-4 4.32,-1.92 9.12,-3.04 4.8,-1.12 9.12,-1.28 8.48,-0.16 13.76,2.4 5.44,2.56 8.16,9.28 2.56,-1.92 6.08,-4 3.52,-2.08 7.68,-3.68 4.32,-1.76 8.8,-2.88 4.64,-1.12 9.28,-1.12 7.04,0 12,1.76 4.96,1.6 8,5.76 3.2,4.16 4.64,10.88 1.44,6.72 1.44,16.48 v 54.56 h -13.76 v -53.76 q 0,-5.92 -0.64,-10.56 -0.64,-4.8 -2.56,-7.84 -1.76,-3.04 -5.12,-4.48 -3.36,-1.6 -9.12,-1.44 -3.04,0 -6.24,0.96 -3.2,0.8 -6.56,2.08 -3.2,1.28 -6.08,2.88 -2.88,1.44 -5.44,3.2 0.96,5.92 0.96,14.08 v 54.88 h -13.6 v -53.92 q 0,-6.4 -0.64,-11.04 -0.64,-4.64 -2.56,-7.52 -1.92,-3.04 -5.28,-4.32 -3.36,-1.44 -8.64,-1.12 -2.88,0.16 -6.24,0.96 -3.2,0.8 -6.56,2.24 -3.36,1.28 -6.56,3.04 -3.2,1.76 -5.76,3.84 v 67.84 z"
         style="font-weight:300;font-size:160px;line-height:1.25;font-family:'Liera Sans';-inkscape-font-specification:'Liera Sans, Light';fill:#ffffff"
         id="path78456" />
    </g>
  </g>
  <g
     inkscape:label="Rocketnia path"
     inkscape:groupmode="layer"
     id="g78430"
     style="display:inline"
     transform="translate(-5.5136719,-1.7539062)">
    <g
       id="g78709"
       style="fill:#f4a4a4;fill-opacity:1;filter:url(#filter14139)">
      <path
         d="m 40.245204,136.64415 h -29.44 v -117.76 h 10.24 q 6.24,0 14.4,-0.48 8.32,-0.64 20.96,-0.64 7.84,0 15.68,1.6 7.84,1.6 14.08,5.92 6.24,4.32 10.24,11.52 3.999996,7.2 3.999996,18.24 0,13.6 -5.119996,21.76 -5.12,8 -13.6,12.16 3.52,2.88 6.08,7.36 2.72,4.48 5.12,9.92 2.56,5.28 4.96,11.04 2.559996,5.6 5.439996,10.88 1.28,2.08 2.4,4.16 1.28,2.08 2.56,4.32 H 75.765204 q -0.96,-1.28 -1.76,-2.88 -0.8,-1.76 -2.56,-5.44 -2.24,-5.28 -4.16,-11.04 -1.76,-5.76 -3.84,-10.72 -1.92,-4.96 -4.32,-8.16 -2.4,-3.36 -5.92,-3.68 -2.56,0.16 -5.76,0.32 -3.04,0 -7.2,0 z m 0,-62.08 q 1.28,0.16 3.04,0.32 1.92,0.16 4,0.32 2.08,0 4,0 2.08,0 3.36,0 9.12,0 13.12,-5.6 4.16,-5.76 4.16,-14.08 0,-3.36 -0.8,-6.4 -0.8,-3.04 -2.88,-5.44 -2.08,-2.4 -5.92,-3.84 -3.68,-1.44 -9.44,-1.44 -3.2,0 -6.56,0.32 -3.36,0.32 -6.08,1.12 z"
         id="path78404"
         style="font-weight:900;font-size:160px;line-height:1.25;font-family:'Liera Sans';-inkscape-font-specification:'Liera Sans, Heavy';fill:#f4a4a4;fill-opacity:1" />
      <path
         d="m 157.68472,137.92415 q -12.16,0 -20.64,-3.84 -8.48,-3.84 -13.76,-10.24 -5.28,-6.56 -7.52,-15.04 -2.24,-8.64 -2.08,-18.08 0.16,-10.56 3.52,-18.56 3.36,-8.16 9.44,-13.6 6.08,-5.6 14.24,-8.32 8.32,-2.88 18.4,-2.88 12.16,0 20.64,3.84 8.48,3.68 13.6,10.08 5.28,6.4 7.52,15.04 2.24,8.48 2.08,18.08 -0.16,10.56 -3.68,18.72 -3.36,8.16 -9.44,13.6 -5.92,5.44 -14.24,8.32 -8.16,2.88 -18.08,2.88 z m 0.64,-19.84 q 8.48,0 11.68,-6.08 3.36,-6.24 3.36,-18.88 0,-5.44 -0.8,-10.08 -0.64,-4.64 -2.4,-8.16 -1.6,-3.68 -4.48,-5.76 -2.72,-2.08 -6.88,-2.08 -8.8,0 -12.16,6.4 -3.2,6.24 -3.2,18.24 0,5.28 0.64,10.24 0.8,4.8 2.56,8.48 1.76,3.52 4.48,5.6 2.88,2.08 7.2,2.08 z"
         id="path78406"
         style="font-weight:900;font-size:160px;line-height:1.25;font-family:'Liera Sans';-inkscape-font-specification:'Liera Sans, Heavy';fill:#f4a4a4;fill-opacity:1" />
      <path
         d="m 211.7646,93.44415 q 0,-9.76 2.56,-18.08 2.56,-8.48 8,-14.72 5.6,-6.24 14.08,-9.76 8.48,-3.52 20,-3.52 8.96,0 15.52,1.28 6.56,1.28 8.8,2.88 l -3.04,21.6 q -2.72,-1.44 -6.88,-2.56 -4.16,-1.12 -10.4,-1.12 -3.52,0 -7.04,1.12 -3.36,1.12 -6.24,3.68 -2.72,2.56 -4.48,6.72 -1.76,4.16 -1.92,10.4 -0.16,6.72 1.28,11.52 1.6,4.64 4.32,7.52 2.72,2.88 6.4,4.16 3.68,1.28 7.84,1.28 5.44,0 10.24,-0.96 4.96,-0.96 7.68,-2.08 l 3.68,17.92 q -1.92,1.92 -4.8,3.36 -2.88,1.28 -6.72,2.24 -3.68,0.8 -7.84,1.12 -4.16,0.48 -8.48,0.48 -10.88,0 -18.88,-3.36 -8,-3.52 -13.44,-9.44 -5.28,-5.92 -7.84,-14.08 -2.4,-8.16 -2.4,-17.6 z"
         id="path78408"
         style="font-weight:900;font-size:160px;line-height:1.25;font-family:'Liera Sans';-inkscape-font-specification:'Liera Sans, Heavy';fill:#f4a4a4;fill-opacity:1" />
      <path
         d="m 384.08438,48.48415 -31.52,33.76 33.6,54.4 h -31.84 l -20.32,-34.24 -8.48,9.28 0.16,10.4 v 14.56 h -28.32 V 8.1641498 h 28.32 V 56.80415 l -0.96,24.16 26.72,-32.48 z"
         id="path78410"
         style="font-weight:900;font-size:160px;line-height:1.25;font-family:'Liera Sans';-inkscape-font-specification:'Liera Sans, Heavy';fill:#f4a4a4;fill-opacity:1" />
      <path
         d="m 432.72414,137.92415 q -21.44,0 -32.64,-12.16 -11.2,-12.16 -11.2,-33.6 0,-9.76 2.88,-17.92 2.88,-8.16 8.48,-14.08 5.76,-6.08 13.92,-9.44 8.32,-3.36 18.88,-3.36 6.88,0 13.6,1.6 6.72,1.44 11.84,5.6 5.12,4 8.16,11.04 3.2,6.88 3.36,17.44 0,4.8 -0.32,9.12 -0.32,4.32 -0.48,7.04 h -51.84 q 0.96,10.08 6.56,14.24 5.76,4.16 15.36,4.16 3.2,0 6.72,-0.32 3.68,-0.48 6.88,-1.12 3.2,-0.64 5.92,-1.44 2.72,-0.8 4.32,-1.6 l 4.48,15.36 q -4.48,3.52 -13.76,6.56 -9.28,2.88 -21.12,2.88 z m 10.72,-52.96 q 0.64,-9.6 -1.92,-14.4 -2.56,-4.96 -9.12,-4.96 -6.24,0 -9.92,4.32 -3.68,4.16 -4.8,15.04 z"
         id="path78412"
         style="font-weight:900;font-size:160px;line-height:1.25;font-family:'Liera Sans';-inkscape-font-specification:'Liera Sans, Heavy';fill:#f4a4a4;fill-opacity:1" />
      <path
         d="m 516.24386,137.92415 q -14.24,0 -20,-7.04 -5.76,-7.2 -5.76,-21.6 v -42.08 h -10.08 v -15.2 q 5.76,-1.76 9.6,-3.36 3.84,-1.76 5.6,-5.44 1.28,-2.72 2.88,-6.88 1.76,-4.32 3.2,-8 h 17.44 v 20.16 h 22.88 v 18.72 h -22.88 v 31.36 q 0,6.24 0.48,9.92 0.48,3.52 1.6,5.28 1.28,1.76 3.2,2.24 2.08,0.48 4.96,0.48 2.88,0 6.88,-1.12 4,-1.12 6.08,-2.4 l 3.36,15.84 q -1.6,1.6 -4.64,3.2 -2.88,1.6 -6.88,2.88 -3.84,1.28 -8.48,2.08 -4.64,0.96 -9.44,0.96 z"
         id="path78414"
         style="font-weight:900;font-size:160px;line-height:1.25;font-family:'Liera Sans';-inkscape-font-specification:'Liera Sans, Heavy';fill:#f4a4a4;fill-opacity:1" />
      <path
         d="m 561.04376,136.64415 v -88.16 h 26.24 l 0.64,10.24 q 1.92,-2.08 4.96,-4.16 3.2,-2.08 7.04,-3.68 3.84,-1.6 8,-2.56 4.32,-1.12 8.8,-1.12 6.56,-0.16 11.68,1.6 5.12,1.6 8.48,5.76 3.36,4 4.96,10.56 1.76,6.4 1.76,16 v 55.52 h -28.64 v -50.4 q 0,-9.6 -2.56,-13.28 -2.4,-3.68 -8.64,-3.36 -3.2,0 -7.2,1.44 -4,1.44 -7.04,4.32 v 61.28 z"
         id="path78416"
         style="font-weight:900;font-size:160px;line-height:1.25;font-family:'Liera Sans';-inkscape-font-specification:'Liera Sans, Heavy';fill:#f4a4a4;fill-opacity:1" />
      <path
         d="m 662.80352,136.64415 z m 2.88,0 v -88.16 h 28.64 v 88.16 z m 12.96,-98.88 q -7.04,0 -11.52,-4 -4.32,-4.16 -4.32,-10.72 0,-3.36 1.28,-6.08 1.44,-2.88 3.68,-5.12 2.4,-2.2400002 5.6,-3.5200002 3.2,-1.28 6.72,-1.28 7.04,0 11.36,4.1600002 4.32,4 4.32,10.56 0,3.36 -1.44,6.24 -1.28,2.88 -3.68,5.12 -2.24,2.08 -5.28,3.36 -3.04,1.28 -6.72,1.28 z"
         id="path78418"
         style="font-weight:900;font-size:160px;line-height:1.25;font-family:'Liera Sans';-inkscape-font-specification:'Liera Sans, Heavy';fill:#f4a4a4;fill-opacity:1" />
      <path
         d="m 741.84329,137.92415 q -6.56,0 -11.84,-2.08 -5.28,-2.08 -9.12,-5.76 -3.68,-3.84 -5.76,-8.96 -1.92,-5.28 -1.92,-11.36 0,-6.56 2.4,-11.04 2.56,-4.48 6.72,-7.52 4.32,-3.2 9.6,-4.96 5.44,-1.92 11.2,-2.88 5.76,-0.96 11.52,-1.12 5.76,-0.32 10.24,-0.32 v -5.12 q 0,-5.92 -3.2,-7.68 -3.04,-1.92 -9.12,-1.92 -3.84,0 -8,0.48 -4,0.48 -8,1.28 -4,0.8 -7.68,1.92 -3.68,1.12 -6.56,2.56 l -5.92,-16.8 q 2.4,-1.44 6.56,-3.2 4.32,-1.76 9.44,-3.04 5.12,-1.44 11.04,-2.4 5.92,-0.96 11.84,-0.96 10.4,0 17.6,1.76 7.2,1.6 11.84,5.6 4.64,4 6.72,10.4 2.08,6.24 2.08,15.52 v 56.32 h -27.2 v -7.52 q -3.68,3.2 -9.6,6.08 -5.92,2.72 -14.88,2.72 z m 23.04,-42.08 q -4,0.16 -8.64,0.8 -4.48,0.64 -6.88,1.76 -2.56,1.12 -4.64,3.2 -2.08,1.92 -2.08,6.72 0,6.24 3.36,9.12 3.36,2.72 7.84,2.72 3.52,0 6.56,-1.12 3.2,-1.28 4.48,-2.56 z"
         id="path78420"
         style="font-weight:900;font-size:160px;line-height:1.25;font-family:'Liera Sans';-inkscape-font-specification:'Liera Sans, Heavy';fill:#f4a4a4;fill-opacity:1" />
    </g>
  </g>
</svg>
